<svg width="66" height="58" viewBox="0 0 66 58" fill="none" xmlns="http://www.w3.org/2000/svg">
<g filter="url(#filter0_f_409_1588)">
<ellipse cx="32.6992" cy="28.7" rx="26.5" ry="22.5" fill="#94B48E"/>
</g>
<path d="M23.2416 25.275V19.965C23.2416 19.675 23.1616 19.45 23.0016 19.29C22.8516 19.12 22.6416 19.035 22.3716 19.035H18.2466V17.16H22.7766C23.5766 17.16 24.1966 17.385 24.6366 17.835C25.0766 18.285 25.2966 18.91 25.2966 19.71V25.14L23.2416 25.275ZM18.3216 25.275V21.165C18.6716 21.135 19.0216 21.11 19.3716 21.09C19.7216 21.06 20.0666 21.04 20.4066 21.03V25.14L18.3216 25.275ZM30.2607 25.275V19.995C30.2607 19.705 30.1807 19.475 30.0207 19.305C29.8607 19.125 29.6407 19.035 29.3607 19.035H26.5407V17.16H29.7957C30.5957 17.16 31.2157 17.385 31.6557 17.835C32.0957 18.285 32.3157 18.91 32.3157 19.71V25.14L30.2607 25.275ZM35.0573 25.2V19.155C34.7873 19.125 34.5123 19.085 34.2323 19.035C33.9623 18.975 33.7023 18.91 33.4523 18.84L33.7073 17.01C34.5273 17.21 35.3173 17.31 36.0773 17.31C36.8373 17.31 37.6273 17.21 38.4473 17.01L38.7023 18.84C38.4623 18.91 38.2023 18.975 37.9223 19.035C37.6423 19.085 37.3723 19.125 37.1123 19.155V25.2H35.0573ZM40.1649 25.275V17.16H44.7999C45.5999 17.16 46.2199 17.385 46.6599 17.835C47.0999 18.285 47.3199 18.91 47.3199 19.71V25.14L45.2649 25.275V19.995C45.2649 19.695 45.1849 19.46 45.0249 19.29C44.8649 19.12 44.6449 19.035 44.3649 19.035H42.2199V25.14L40.1649 25.275ZM15.7489 40.275V34.965C15.7489 34.675 15.6689 34.45 15.5089 34.29C15.3589 34.12 15.1489 34.035 14.8789 34.035H10.7539V32.16H15.2839C16.0839 32.16 16.7039 32.385 17.1439 32.835C17.5839 33.285 17.8039 33.91 17.8039 34.71V40.14L15.7489 40.275ZM10.8289 40.275V36.165C11.1789 36.135 11.5289 36.11 11.8789 36.09C12.2289 36.06 12.5739 36.04 12.9139 36.03V40.14L10.8289 40.275ZM22.603 40.275V34.035H18.973V32.16H26.113L25.903 34.035H24.658V40.14L22.603 40.275ZM27.4068 40.245L28.7568 34.05L27.2718 33.735L27.6618 31.935L28.8618 32.16H32.2668C33.2168 32.16 33.9518 32.42 34.4718 32.94C35.0018 33.46 35.2668 34.19 35.2668 35.13V40.2H31.1868V38.325H33.2118V35.31C33.2118 34.9 33.0968 34.58 32.8668 34.35C32.6468 34.12 32.3368 34.005 31.9368 34.005H30.8568L29.5518 40.245H27.4068ZM38.0539 40.275V34.035H36.5839V32.16H40.1089V40.14L38.0539 40.275ZM43.5856 40.65C43.3656 40.37 43.1606 40.09 42.9706 39.81C42.7806 39.53 42.6006 39.25 42.4306 38.97C42.9606 38.47 43.4206 38.045 43.8106 37.695C44.2006 37.335 44.5256 37.015 44.7856 36.735C45.0456 36.455 45.2406 36.185 45.3706 35.925C45.5006 35.665 45.5656 35.38 45.5656 35.07V34.035H41.7406V30.06H43.7956V32.16H47.6206V34.77C47.6206 35.39 47.5306 35.94 47.3506 36.42C47.1706 36.9 46.9056 37.355 46.5556 37.785C46.2156 38.205 45.7956 38.645 45.2956 39.105C44.7956 39.565 44.2256 40.08 43.5856 40.65ZM50.9098 40.65C50.6898 40.37 50.4848 40.09 50.2948 39.81C50.1048 39.53 49.9248 39.25 49.7548 38.97C50.2848 38.47 50.7448 38.045 51.1348 37.695C51.5248 37.335 51.8498 37.015 52.1098 36.735C52.3698 36.455 52.5648 36.185 52.6948 35.925C52.8248 35.665 52.8898 35.38 52.8898 35.07V34.035H49.0648V30.06H51.1198V32.16H54.9448V34.77C54.9448 35.39 54.8548 35.94 54.6748 36.42C54.4948 36.9 54.2298 37.355 53.8798 37.785C53.5398 38.205 53.1198 38.645 52.6198 39.105C52.1198 39.565 51.5498 40.08 50.9098 40.65Z" fill="white"/>
<defs>
<filter id="filter0_f_409_1588" x="-0.000781059" y="-4.86374e-05" width="65.4" height="57.4" filterUnits="userSpaceOnUse" color-interpolation-filters="sRGB">
<feFlood flood-opacity="0" result="BackgroundImageFix"/>
<feBlend mode="normal" in="SourceGraphic" in2="BackgroundImageFix" result="shape"/>
<feGaussianBlur stdDeviation="3.1" result="effect1_foregroundBlur_409_1588"/>
</filter>
</defs>
</svg>
