<svg width="110" height="62" viewBox="0 0 110 62" fill="none" xmlns="http://www.w3.org/2000/svg">
<rect width="110" height="55" rx="15" fill="#94B48E"/>
<path d="M10.6846 29.595L9.85664 18.532L14.2496 18.072L13.3986 29.595H10.6846ZM12.1336 35.575C11.551 35.575 11.045 35.368 10.6156 34.954C10.2016 34.5247 9.99464 34.0187 9.99464 33.436C9.99464 32.8533 10.2016 32.3473 10.6156 31.918C11.045 31.4887 11.551 31.274 12.1336 31.274C12.7163 31.274 13.2146 31.4887 13.6286 31.918C14.058 32.3473 14.2726 32.8533 14.2726 33.436C14.2726 34.0187 14.058 34.5247 13.6286 34.954C13.2146 35.368 12.7163 35.575 12.1336 35.575ZM23.0895 35.115V27.019C23.0895 26.5743 22.9669 26.2217 22.7215 25.961C22.4762 25.685 22.1389 25.547 21.7095 25.547H17.3855V22.672H22.3765C23.6032 22.672 24.5539 23.017 25.2285 23.707C25.9032 24.397 26.2405 25.3553 26.2405 26.582V34.908L23.0895 35.115ZM30.4903 30.584V25.547H28.1213V22.672H33.6873V30.377L30.4903 30.584ZM35.9223 35L36.1293 32.125H39.2573C40.4073 32.125 41.2353 31.849 41.7413 31.297C42.2626 30.7297 42.5233 29.825 42.5233 28.583C42.5233 26.559 41.7183 25.547 40.1083 25.547H36.3823V22.672H40.1773C42.0633 22.672 43.451 23.1473 44.3403 24.098C45.245 25.0333 45.6973 26.49 45.6973 28.468C45.6973 30.7527 45.153 32.4163 44.0643 33.459C42.9756 34.4863 41.22 35 38.7973 35H35.9223ZM47.1966 35V32.125H50.6926V25.547H48.0476V22.672H53.8436V35H47.1966ZM62.8795 35.115V25.547H60.6255V22.672H66.0305V34.908L62.8795 35.115ZM77.1167 35.437L73.3447 29.342C72.9614 29.5413 72.6777 29.802 72.4937 30.124C72.3097 30.4307 72.1871 30.8677 72.1257 31.435C72.0951 31.757 72.0567 32.263 72.0107 32.953C71.9801 33.643 71.9494 34.3407 71.9187 35.046C71.1214 35.092 70.3087 35.115 69.4807 35.115H68.6757C68.6911 34.3483 68.7141 33.666 68.7447 33.068C68.7754 32.47 68.7984 32.0253 68.8137 31.734C68.8904 30.7833 69.0974 29.9783 69.4347 29.319C69.7874 28.6597 70.3547 28.1153 71.1367 27.686C70.6614 27.0267 70.2091 26.3673 69.7797 25.708C69.3657 25.0487 68.9747 24.3893 68.6067 23.73C69.0667 23.4387 69.5344 23.1703 70.0097 22.925C70.5004 22.6643 71.0064 22.4113 71.5277 22.166C72.0491 23.0247 72.5857 23.8987 73.1377 24.788C73.7051 25.6773 74.3031 26.559 74.9317 27.433C75.4224 27.3103 75.7751 27.1417 75.9897 26.927C76.2197 26.7123 76.3654 26.3827 76.4267 25.938C76.4727 25.6927 76.5111 25.3783 76.5417 24.995C76.5724 24.5963 76.6031 24.1823 76.6337 23.753C76.6797 23.3237 76.7104 22.948 76.7257 22.626C77.0784 22.5953 77.4311 22.58 77.7837 22.58C78.1364 22.5647 78.4584 22.557 78.7497 22.557C79.0411 22.557 79.2711 22.5647 79.4397 22.58C79.6237 22.58 79.8307 22.58 80.0607 22.58L79.8537 25.34C79.7771 26.398 79.5011 27.2183 79.0257 27.801C78.5657 28.3837 77.8834 28.8437 76.9787 29.181L80.0837 34.08C79.5624 34.356 79.0564 34.609 78.5657 34.839C78.0751 35.069 77.5921 35.2683 77.1167 35.437ZM84.3971 35.115V25.547H82.1431V22.672H87.5481V34.908L84.3971 35.115ZM89.8713 35V32.125H96.1043V26.973C96.1043 26.5283 95.9816 26.1833 95.7363 25.938C95.5063 25.6773 95.1843 25.547 94.7703 25.547H90.4233V22.672H95.3913C96.618 22.672 97.5686 23.017 98.2433 23.707C98.918 24.397 99.2553 25.3553 99.2553 26.582V32.125H101.095L100.773 35H89.8713Z" fill="white"/>
</svg>
