<svg width="168" height="55" viewBox="0 0 168 55" fill="none" xmlns="http://www.w3.org/2000/svg">
<rect width="168" height="55" rx="15" fill="#94B48E"/>
<path d="M17.7081 29.595L16.8801 18.532L21.2731 18.072L20.4221 29.595H17.7081ZM19.1571 35.575C18.5744 35.575 18.0684 35.368 17.6391 34.954C17.2251 34.5247 17.0181 34.0187 17.0181 33.436C17.0181 32.8533 17.2251 32.3473 17.6391 31.918C18.0684 31.4887 18.5744 31.274 19.1571 31.274C19.7397 31.274 20.2381 31.4887 20.6521 31.918C21.0814 32.3473 21.2961 32.8533 21.2961 33.436C21.2961 34.0187 21.0814 34.5247 20.6521 34.954C20.2381 35.368 19.7397 35.575 19.1571 35.575ZM27.2445 35.345C26.9991 35.345 26.7461 35.345 26.4855 35.345C26.2248 35.345 25.9565 35.3373 25.6805 35.322L24.8985 24.259V22.856L27.9345 22.603L28.3485 27.962C28.8545 27.8393 29.2685 27.6937 29.5905 27.525C29.9125 27.3563 30.1501 27.1263 30.3035 26.835C30.4721 26.5283 30.5871 26.1143 30.6485 25.593C30.7098 25.0717 30.7405 24.397 30.7405 23.569V22.856L33.8225 22.603C33.8531 24.3357 33.7151 25.7233 33.4085 26.766C33.1018 27.7933 32.5575 28.56 31.7755 29.066C30.9935 29.572 29.9048 29.917 28.5095 30.101L28.6705 32.424C29.9125 32.4393 30.9935 32.3473 31.9135 32.148C32.8335 31.9487 33.6001 31.5883 34.2135 31.067C34.8268 30.5303 35.3021 29.7867 35.6395 28.836C35.9768 27.87 36.1761 26.6433 36.2375 25.156C36.2528 24.8647 36.2605 24.6117 36.2605 24.397C36.2758 24.167 36.2835 23.9523 36.2835 23.753C36.2835 23.5997 36.2758 23.454 36.2605 23.316C36.2605 23.1627 36.2605 23.0093 36.2605 22.856L39.4345 22.603C39.4651 22.9097 39.4805 23.2163 39.4805 23.523C39.4805 23.8143 39.4805 24.1057 39.4805 24.397C39.4805 27.019 39.0665 29.135 38.2385 30.745C37.4258 32.355 36.1225 33.528 34.3285 34.264C32.5345 34.9847 30.1731 35.345 27.2445 35.345ZM47.0651 35.115V25.547H41.4991V22.672H52.4471L52.1251 25.547H50.2161V34.908L47.0651 35.115ZM54.7555 35.115V22.672H61.8625C63.0892 22.672 64.0398 23.017 64.7145 23.707C65.3892 24.397 65.7265 25.3553 65.7265 26.582V34.908L62.5755 35.115V27.019C62.5755 26.559 62.4528 26.1987 62.2075 25.938C61.9622 25.6773 61.6248 25.547 61.1955 25.547H57.9065V34.908L54.7555 35.115ZM68.2443 35.069L70.3143 25.57L68.0373 25.087L68.6353 22.327L70.4753 22.672H75.6963C77.153 22.672 78.28 23.0707 79.0773 23.868C79.89 24.6653 80.2963 25.7847 80.2963 27.226V35H74.0403V32.125H77.1453V27.502C77.1453 26.8733 76.969 26.3827 76.6163 26.03C76.279 25.6773 75.8036 25.501 75.1903 25.501H73.5343L71.5333 35.069H68.2443ZM89.7725 35.69C89.4351 35.2607 89.1208 34.8313 88.8295 34.402C88.5381 33.9727 88.2621 33.5433 88.0015 33.114C88.8141 32.3473 89.5195 31.6957 90.1175 31.159C90.7155 30.607 91.2138 30.1163 91.6125 29.687C92.0111 29.2577 92.3101 28.8437 92.5095 28.445C92.7088 28.0463 92.8085 27.6093 92.8085 27.134V25.547H86.9435V19.452H90.0945V22.672H95.9595V26.674C95.9595 27.6247 95.8215 28.468 95.5455 29.204C95.2695 29.94 94.8631 30.6377 94.3265 31.297C93.8051 31.941 93.1611 32.6157 92.3945 33.321C91.6278 34.0263 90.7538 34.816 89.7725 35.69ZM100.472 30.584V25.547H98.1028V22.672H103.669V30.377L100.472 30.584ZM106.663 35.115V22.672H113.77C114.996 22.672 115.947 23.017 116.622 23.707C117.296 24.397 117.634 25.3553 117.634 26.582V34.908L114.483 35.115V27.019C114.483 26.559 114.36 26.1987 114.115 25.938C113.869 25.6773 113.532 25.547 113.103 25.547H109.814V34.908L106.663 35.115ZM121.762 35.253C121.44 35.253 121.072 35.23 120.658 35.184C120.244 35.1533 119.837 35.0997 119.439 35.023C119.515 34.5937 119.615 34.1567 119.738 33.712C119.876 33.2673 120.021 32.8073 120.175 32.332C120.343 32.3473 120.512 32.3627 120.681 32.378C120.849 32.3933 120.987 32.401 121.095 32.401C121.953 32.401 122.383 31.941 122.383 31.021V25.547H119.83V22.672H128.869C130.095 22.672 131.046 23.017 131.721 23.707C132.395 24.397 132.733 25.3553 132.733 26.582V34.908L129.582 35.115V27.019C129.582 26.5743 129.459 26.2217 129.214 25.961C128.968 25.685 128.631 25.547 128.202 25.547H125.534V31.55C125.534 32.8533 125.235 33.7963 124.637 34.379C124.039 34.9617 123.08 35.253 121.762 35.253ZM143.065 35.115V26.973C143.065 26.5283 142.943 26.1833 142.697 25.938C142.467 25.6773 142.145 25.547 141.731 25.547H135.406V22.672H142.352C143.579 22.672 144.53 23.017 145.204 23.707C145.879 24.397 146.216 25.3553 146.216 26.582V34.908L143.065 35.115ZM135.521 35.115V28.813C136.058 28.767 136.595 28.7287 137.131 28.698C137.668 28.652 138.197 28.6213 138.718 28.606V34.908L135.521 35.115ZM151.091 35.69C150.753 35.2607 150.439 34.8313 150.148 34.402C149.856 33.9727 149.58 33.5433 149.32 33.114C150.132 32.3473 150.838 31.6957 151.436 31.159C152.034 30.607 152.532 30.1163 152.931 29.687C153.329 29.2577 153.628 28.8437 153.828 28.445C154.027 28.0463 154.127 27.6093 154.127 27.134V25.547H148.262V19.452H151.413V22.672H157.278V26.674C157.278 27.6247 157.14 28.468 156.864 29.204C156.588 29.94 156.181 30.6377 155.645 31.297C155.123 31.941 154.479 32.6157 153.713 33.321C152.946 34.0263 152.072 34.816 151.091 35.69Z" fill="white"/>
</svg>
