<svg width="63" height="60" viewBox="0 0 63 60" fill="none" xmlns="http://www.w3.org/2000/svg">
<g clip-path="url(#clip0_373_811)">
<path d="M44.0566 0.0147187C45.7503 0.226257 46.7385 2.2266 45.9056 3.69902C41.8466 8.00958 37.5637 12.142 33.3686 16.3338C31.34 18.3601 29.3143 20.4041 27.2781 22.4295C23.7807 25.9087 21.1577 29.6292 15.7041 29.9243C4.33476 30.5394 -1.08018 16.4164 7.71729 9.41613C13.0135 5.20206 20.1733 6.52046 24.408 11.4916C26.5311 13.9837 23.3358 17.1085 20.8431 15.0256C20.0488 14.3613 19.4833 13.5291 18.5761 12.9436C14.5461 10.3476 9.08285 12.7683 8.44012 17.4806C7.60052 23.6403 14.8587 27.3561 19.4659 23.2283L42.0155 0.640057C42.3812 0.335738 42.8889 0.0703868 43.3675 0.0147187C43.5316 -0.00476515 43.8945 -0.00569295 44.0566 0.0147187Z" fill="#D3EEFF"/>
<path d="M49.6167 6.86768C54.0473 6.5448 57.479 9.46274 59.0781 13.3465C62.7917 22.3666 55.0934 31.6112 45.4804 29.6758C42.0564 28.9865 40.3183 27.2617 37.9337 24.9672C37.1481 24.212 34.5154 21.8192 34.1304 21.0473C32.9269 18.6359 35.853 16.3322 37.9646 17.9865C39.7412 19.5851 41.3809 21.5177 43.1624 23.0875C48.3621 27.6699 56.2765 23.2666 54.828 16.4778C54.2837 13.9255 52.0457 10.9621 49.0704 12.0244C47.2262 12.6822 45.6802 15.8302 43.9035 16.0158C41.9319 16.2218 40.494 14.4506 41.211 12.6052C41.4822 11.9056 43.835 9.63902 44.5134 9.04337C45.9273 7.80104 47.7184 7.00592 49.6167 6.86768Z" fill="#D3EEFF"/>
<path d="M59.7422 46.1005V43.7931C59.7422 43.7587 59.5878 43.4117 59.5454 43.3616C59.2568 43.0221 58.4307 43.0221 58.0466 43.1362C57.7996 43.7699 56.8731 48.3718 56.6164 48.5536C56.5527 48.5991 56.5151 48.6 56.4427 48.6093C56.0132 48.664 54.3263 48.6696 53.9152 48.6028C53.7521 48.5768 53.5716 48.4321 53.6083 48.2502L55.1215 43.3681L55.1476 43.0805H53.9123C53.8486 43.0805 53.728 42.8476 53.7145 42.7641C53.6595 42.4181 53.6672 41.249 53.7096 40.8863C53.7347 40.6757 53.8283 40.5356 54.0387 40.4725C55.8945 40.5402 57.8719 40.3398 59.7142 40.4604C64.2076 40.7555 62.6924 45.1226 62.9636 48.1816L62.7889 48.5778H58.3072C58.1894 48.4915 58.1499 48.3764 58.1335 48.2372C58.1065 48.0109 58.1084 46.4512 58.1644 46.3288C58.1779 46.3 58.3767 46.0996 58.3931 46.0996H59.7432L59.7422 46.1005Z" fill="#D3EEFF"/>
<path d="M25.1153 40.7082C25.5534 40.2907 27.525 40.4345 28.0992 40.6451C29.3191 41.0914 29.5738 42.3532 29.6375 43.5065C29.8489 47.3244 28.4852 49.0334 24.4938 48.7207C20.0574 48.3728 21.2184 43.9676 21.0726 40.8873C21.0823 40.6683 21.2319 40.4986 21.4509 40.4642C21.6874 40.428 23.6358 40.4336 23.7729 40.4902C23.8607 40.5264 24.019 40.7184 24.0074 40.8279C24.0923 42.2103 23.8848 43.7412 24.0025 45.1051C24.0334 45.4641 24.1058 45.6868 24.4243 45.8826C25.0853 46.2899 26.3862 46.2092 26.4779 45.2767C26.5185 44.8666 26.5185 43.641 26.3351 43.3042C26.0002 42.6891 25.0805 43.5761 24.9358 42.9257C24.8769 42.6613 24.8856 41.4124 24.9222 41.1137C24.9377 40.9838 25.0236 40.7945 25.1153 40.7073V40.7082Z" fill="#D3EEFF"/>
<path d="M3.03188 40.4604C4.6387 40.3927 6.27834 40.5764 6.96642 42.2279C8.06563 44.8647 6.36616 47.6035 3.80875 48.4942C3.58003 48.574 2.5561 48.8756 2.40266 48.8078C2.37371 48.7948 2.24246 48.6687 2.22509 48.639C2.03111 48.2975 2.24825 46.6869 2.18263 46.1979C2.55031 45.6626 3.24323 45.7377 3.63215 45.1857C3.97667 44.6967 4.15231 43.3449 3.39185 43.1529C2.48759 42.9237 1.27354 43.2048 0.357701 43.0842C0.134773 43.0555 0.0672186 42.9219 0.0430922 42.7122C0.149249 41.5042 -0.0939462 40.0735 0.0430922 38.8924C0.0672186 38.6827 0.134773 38.5501 0.357701 38.5204C0.785222 38.4647 2.29264 38.4638 2.7192 38.5204C2.81281 38.5324 3.03188 38.6512 3.03188 38.7226V40.4604Z" fill="#D3EEFF"/>
<path d="M31.5767 22.5893C33.9064 22.31 35.3742 24.8234 33.917 26.6187C33.4818 27.155 31.4677 29.2073 30.9533 29.5478C28.5493 31.1362 25.7294 28.1431 27.6528 25.8199C28.0919 25.2901 30.3202 23.0643 30.8298 22.8175C31.0508 22.7108 31.3326 22.619 31.5767 22.5893Z" fill="#D3EEFF"/>
<path d="M45.7519 42.9675C45.6631 42.9425 45.5135 42.6985 45.4961 42.5936C45.443 42.2596 45.4575 41.2993 45.4903 40.9421C45.5106 40.7213 45.556 40.5784 45.777 40.4866L52.6733 40.4912C52.708 40.5061 52.8595 40.6564 52.874 40.6907C52.9319 40.8299 52.9329 42.5027 52.8885 42.6975C52.7987 43.0946 52.2872 42.9304 51.9939 42.9777C51.3801 44.6589 51.8645 46.6101 51.6677 48.3794C51.5606 48.5213 51.4438 48.5891 51.2681 48.6095C50.7325 48.6726 49.3959 48.6642 48.8497 48.6113C48.6876 48.5956 48.6026 48.5844 48.51 48.436C48.5283 47.0201 48.3826 45.4893 48.4772 44.0772C48.4946 43.8192 48.5573 43.4964 48.6094 43.2403C48.62 43.1893 48.7706 42.9684 48.6229 42.9684H45.7499L45.7519 42.9675Z" fill="#D3EEFF"/>
<path d="M33.1229 40.4726C33.6382 40.3603 35.4825 40.4271 36.1011 40.4577C41.2622 40.7138 39.6361 44.476 39.9208 48.1798C39.9015 48.396 39.7741 48.5788 39.5492 48.6084C39.087 48.6687 37.4782 48.6687 37.015 48.6084C36.8355 48.5852 36.711 48.4832 36.6994 48.2948C36.6386 46.969 36.7911 45.5606 36.7052 44.245C36.6627 43.5927 36.5701 43.0704 35.8077 42.9702C35.273 42.9006 33.2763 43.0797 32.9936 42.9117C32.9617 42.8923 32.898 42.8264 32.8836 42.793C32.8305 42.6733 32.8208 40.9875 32.8507 40.7694C32.8729 40.6043 32.955 40.5078 33.1248 40.4716L33.1229 40.4726Z" fill="#D3EEFF"/>
<path d="M41.455 40.4726L44.1997 40.4614L44.5046 40.7286L44.5191 48.2392C44.5162 48.4025 44.3734 48.5147 44.246 48.5945L41.4435 48.6047L41.152 48.3245L41.125 40.8864C41.1298 40.6887 41.263 40.5245 41.4541 40.4726H41.455Z" fill="#D3EEFF"/>
<path d="M16.8046 40.4725C17.6355 40.5328 18.6932 40.3509 19.4961 40.4576C19.666 40.4799 19.7316 40.5643 19.8368 40.6896V44.9593L19.6361 45.1588H16.7081C16.5344 45.0345 16.4938 44.9111 16.4745 44.707C16.3616 43.4953 16.5653 42.1166 16.4765 40.8863C16.4813 40.6887 16.6145 40.5244 16.8056 40.4725H16.8046Z" fill="#D3EEFF"/>
<path d="M41.2413 54.4739L41.0406 58.405H39.317C39.1867 58.3215 39.2031 57.6795 39.2562 57.6043L39.9983 57.5431L40.0929 57.4085C40.1122 56.4279 40.0224 55.4407 40.2077 54.4748C40.1817 54.4488 39.7879 54.5036 39.6712 54.4655C39.456 54.3941 39.4637 53.6899 39.6326 53.5916C39.7426 53.5266 41.8966 53.5396 42.1919 53.5619C42.9234 53.6157 43.6945 53.9089 43.9879 54.6298C44.2214 55.2041 44.262 57.5013 44.1751 58.1526C44.1558 58.2964 44.1278 58.3753 43.9695 58.405C43.8113 58.4347 43.129 58.4505 43.0518 58.2927C42.9022 57.3714 43.1608 56.208 43.0093 55.3154C42.9591 55.0167 42.7661 54.7615 42.5007 54.6242C42.4515 54.5992 42.1523 54.4767 42.133 54.4767H41.2423L41.2413 54.4739Z" fill="#D3EEFF"/>
<path d="M9.55289 38.5242H11.5062L11.6451 38.8294C11.3846 39.9177 11.3759 41.1675 11.1182 42.2409C11.0468 42.5397 10.9117 42.7689 10.5903 42.8004C10.0644 42.8524 8.61968 42.8663 8.11302 42.8004C7.79552 42.7587 7.83315 42.5545 7.89685 42.2957C8.0667 41.6063 8.88507 39.593 9.22573 38.9426C9.31645 38.7691 9.39848 38.6503 9.55192 38.526L9.55289 38.5242Z" fill="#D3EEFF"/>
<path d="M13.4611 38.5242H15.4144L15.5533 38.8294C15.2928 39.9177 15.2841 41.1675 15.0264 42.2409C14.955 42.5397 14.8199 42.7689 14.4985 42.8004C13.9726 42.8524 12.5279 42.8663 12.0212 42.8004C11.7037 42.7587 11.7414 42.5545 11.8051 42.2957C11.9749 41.6063 12.7933 39.593 13.1339 38.9426C13.2247 38.7691 13.3067 38.6503 13.4601 38.526L13.4611 38.5242Z" fill="#D3EEFF"/>
<path d="M7.46986 57.5069C8.27375 57.2406 9.55632 57.8363 9.97708 56.8305C10.1614 56.3889 10.1682 55.4825 9.95006 55.0492C9.51289 54.178 8.21392 54.7124 7.46986 54.46C7.3666 54.358 7.3637 53.7521 7.45056 53.6417C7.50364 53.573 7.57602 53.5693 7.65419 53.5591C8.03152 53.5099 8.92131 53.5322 9.31602 53.5693C10.4808 53.6779 11.1033 54.3858 11.1931 55.5251C11.2992 56.8732 10.9846 58.213 9.42314 58.3883C9.05931 58.4291 7.92923 58.4644 7.60207 58.4022C7.54224 58.3911 7.49109 58.3735 7.45152 58.3243C7.3637 58.213 7.36853 57.608 7.47082 57.506L7.46986 57.5069Z" fill="#D3EEFF"/>
<path d="M57.9172 54.461C57.8149 54.3598 57.81 53.754 57.8979 53.6426L58.0484 53.5647C59.7952 53.7057 62.1904 52.8865 62.3835 55.3581C62.5051 56.9057 61.7427 57.9977 60.2449 58.4199C60.0364 58.4783 59.744 58.6277 59.6861 58.3178C59.663 58.1935 59.6659 57.7148 59.7141 57.6081C59.8077 57.4021 60.6589 57.1989 60.9735 56.7489C61.2881 56.2989 61.3846 55.0659 60.9117 54.7096C60.3549 54.2912 58.1748 54.7161 57.9172 54.46V54.461Z" fill="#D3EEFF"/>
<path d="M20.3832 54.4741H18.1713C17.9619 54.4741 18.0111 53.7077 18.0854 53.563H22.0788C22.2583 53.563 22.2593 54.2282 22.1936 54.3609C22.0923 54.5669 21.7169 54.4184 21.5316 54.5019C21.4303 54.5632 21.3347 55.0141 21.3193 55.1458C21.2054 56.0903 21.4293 57.2445 21.3058 58.1519C21.2952 58.227 21.2324 58.4052 21.1591 58.4052H20.2973C20.2153 58.3551 20.2182 58.292 20.2085 58.2085C20.1236 57.4876 20.1429 55.7535 20.2085 55.0131C20.2269 54.8062 20.2809 54.6513 20.3832 54.4741Z" fill="#D3EEFF"/>
<path d="M30.3605 53.5713C31.7164 53.639 33.9081 53.1232 34.4446 54.8034C34.6261 55.3722 34.6608 57.5284 34.5778 58.1509C34.5672 58.2307 34.5643 58.2984 34.4948 58.3532C34.3954 58.4311 33.5008 58.4933 33.4381 58.2511C33.3416 57.3474 33.5278 56.3 33.4265 55.4139C33.2624 53.9721 31.285 54.6392 30.32 54.449L30.291 53.6158L30.3605 53.5704V53.5713Z" fill="#D3EEFF"/>
<path d="M4.3527 55.4713C4.27164 54.8284 3.85859 54.5259 3.2342 54.4721C2.83853 54.4378 1.48358 54.5584 1.25004 54.4461C1.08019 54.3645 1.0522 53.6445 1.29057 53.574C2.38205 53.6389 4.22918 53.2465 5.00894 54.1937C5.13826 54.3515 5.44515 54.949 5.44515 55.129V58.3187L5.35926 58.4041H4.43956L4.35367 58.3187C4.2726 57.4234 4.46369 56.3425 4.35367 55.4704L4.3527 55.4713Z" fill="#D3EEFF"/>
<path d="M27.1652 55.4713C27.0841 54.8284 26.6711 54.5259 26.0467 54.4721C25.651 54.4378 24.2961 54.5584 24.0625 54.4461C23.8927 54.3645 23.8647 53.6445 24.1031 53.574C25.1946 53.6389 27.0417 53.2465 27.8214 54.1937C27.9508 54.3515 28.2576 54.949 28.2576 55.129V58.3187L28.1718 58.4041H27.2521L27.1662 58.3187C27.0851 57.4234 27.2762 56.3425 27.1662 55.4704L27.1652 55.4713Z" fill="#D3EEFF"/>
<path d="M52.2531 53.5721C52.4066 53.5211 53.667 53.5424 53.9121 53.5609C54.715 53.6194 55.4649 53.8912 55.7467 54.704C55.9435 55.2718 55.9783 57.519 55.8943 58.1517C55.8837 58.2315 55.8808 58.2992 55.8113 58.354C55.7119 58.4319 54.8173 58.4941 54.7546 58.2519C54.6581 57.3482 54.8443 56.3008 54.743 55.4147C54.6861 54.9118 54.3357 54.5648 53.8387 54.4887C53.5087 54.4377 52.3786 54.5435 52.2145 54.447C52.0505 54.3505 52.0389 53.6445 52.2531 53.573V53.5721Z" fill="#D3EEFF"/>
<path d="M15.3853 55.4138C15.2125 54.1436 13.8508 54.589 12.9977 54.4767C12.5876 54.4229 12.687 53.6352 12.8974 53.574C13.1077 53.5127 14.3266 53.5406 14.6084 53.5638C15.1643 53.6083 15.7916 53.817 16.1322 54.2754C16.2297 54.4062 16.4768 54.9378 16.4768 55.0724V58.3197L16.3909 58.405H15.4712L15.3853 58.3197V55.4147V55.4138Z" fill="#D3EEFF"/>
<path d="M57.9026 59.9999C57.7694 58.5423 57.8842 57.0514 57.8427 55.5827C57.8543 55.3553 57.9672 55.3442 58.1583 55.3257C58.4305 55.2997 58.9883 55.2394 58.9912 55.5891C58.886 56.8816 59.1446 58.4264 58.996 59.6882C58.9806 59.8162 58.9535 59.9136 58.8512 59.9999H57.9035H57.9026Z" fill="#D3EEFF"/>
<path d="M1.2904 55.3407C1.46411 55.2896 2.20913 55.2692 2.27282 55.4826C2.21203 56.3074 2.39442 57.354 2.2873 58.151C2.27282 58.2623 2.25352 58.3569 2.12903 58.3931C1.95532 58.4442 1.2103 58.4646 1.1466 58.2512C1.2074 57.4264 1.025 56.3798 1.13213 55.5828C1.1466 55.4715 1.1659 55.3768 1.2904 55.3407Z" fill="#D3EEFF"/>
<path d="M24.1009 55.3407C24.2747 55.2896 25.0197 55.2692 25.0834 55.4826C25.0226 56.3074 25.205 57.354 25.0978 58.151C25.0834 58.2623 25.0641 58.3569 24.9396 58.3931C24.7659 58.4442 24.0208 58.4646 23.9571 58.2512C24.0179 57.4264 23.8356 56.3798 23.9427 55.5828C23.9571 55.4715 23.9764 55.3768 24.1009 55.3407Z" fill="#D3EEFF"/>
<path d="M30.3535 55.3286H31.2722L31.3591 55.414V58.3198L31.2722 58.4052H30.3535L30.2676 58.3198V55.414L30.3535 55.3286Z" fill="#D3EEFF"/>
<path d="M46.1533 53.563H47.1299L47.2158 53.6483V56.326L47.1299 56.4113H46.1533L46.0664 56.326V53.6483L46.1533 53.563Z" fill="#D3EEFF"/>
<path d="M49.2568 53.563H50.2334L50.3193 53.6483V56.326L50.2334 56.4113H49.2568L49.1699 56.326V53.6483L49.2568 53.563Z" fill="#D3EEFF"/>
</g>
<defs>
<clipPath id="clip0_373_811">
<rect width="63" height="60" fill="white"/>
</clipPath>
</defs>
</svg>
