<svg width="123" height="127" viewBox="0 0 123 127" fill="none" xmlns="http://www.w3.org/2000/svg">
<rect width="123" height="127" rx="21" fill="#D3EEFF"/>
<path d="M13.0217 24.938C13.0217 23.266 12.1931 22.43 10.5357 22.43H7.03772C6.89105 22.43 6.75905 22.3787 6.64172 22.276C6.53905 22.1587 6.48772 22.0267 6.48772 21.88V19.988C6.48772 19.8267 6.53905 19.6947 6.64172 19.592C6.75905 19.4893 6.89105 19.438 7.03772 19.438H10.6677C12.7211 19.438 14.2464 19.856 15.2437 20.692C16.2411 21.5133 16.7397 22.8847 16.7397 24.806V34.178C16.7397 34.3393 16.6884 34.4713 16.5857 34.574C16.4831 34.6767 16.3511 34.728 16.1897 34.728H13.5937C13.4324 34.728 13.2931 34.6767 13.1757 34.574C13.0731 34.4713 13.0217 34.3393 13.0217 34.178V24.938ZM19.7699 32C19.6232 32 19.4912 31.9487 19.3739 31.846C19.2712 31.7287 19.2199 31.5967 19.2199 31.45V19.988C19.2199 19.8267 19.2712 19.6947 19.3739 19.592C19.4912 19.4893 19.6232 19.438 19.7699 19.438H22.5199C22.6812 19.438 22.8132 19.4893 22.9159 19.592C23.0332 19.6947 23.0919 19.8267 23.0919 19.988V31.45C23.0919 31.6113 23.0332 31.7433 22.9159 31.846C22.8132 31.9487 22.6812 32 22.5199 32H19.7699ZM33.4087 31.45C33.4087 31.6113 33.35 31.7433 33.2327 31.846C33.13 31.9487 32.998 32 32.8367 32H30.0867H25.7527C25.606 32 25.474 31.9487 25.3567 31.846C25.254 31.7287 25.2027 31.5967 25.2027 31.45V29.558C25.2027 29.3967 25.254 29.2647 25.3567 29.162C25.474 29.0593 25.606 29.008 25.7527 29.008H29.4267L29.2287 24.674C29.1993 23.8233 29.06 23.2073 28.8107 22.826C28.5613 22.4447 28.0993 22.254 27.4247 22.254H26.3027C26.156 22.254 26.024 22.2027 25.9067 22.1C25.804 21.9827 25.7527 21.8507 25.7527 21.704V19.856C25.7527 19.6947 25.804 19.5627 25.9067 19.46C26.0093 19.3427 26.1413 19.284 26.3027 19.284H27.5127C29.434 19.284 30.8273 19.7167 31.6927 20.582C32.558 21.4473 33.0273 22.8333 33.1007 24.74L33.4087 31.45ZM35.9241 26.786C35.7774 26.786 35.6454 26.7347 35.5281 26.632C35.4254 26.5147 35.3741 26.3827 35.3741 26.236V19.988C35.3741 19.8267 35.4254 19.6947 35.5281 19.592C35.6454 19.4893 35.7774 19.438 35.9241 19.438H38.6741C38.8354 19.438 38.9674 19.4893 39.0701 19.592C39.1874 19.6947 39.2461 19.8267 39.2461 19.988V26.236C39.2461 26.3973 39.1874 26.5293 39.0701 26.632C38.9674 26.7347 38.8354 26.786 38.6741 26.786H35.9241ZM42.307 32C42.1603 32 42.0283 31.9487 41.911 31.846C41.8083 31.7287 41.757 31.5967 41.757 31.45V19.988C41.757 19.8267 41.8083 19.6947 41.911 19.592C42.0283 19.4893 42.1603 19.438 42.307 19.438H47.521C49.589 19.438 51.1217 19.8707 52.119 20.736C53.1163 21.5867 53.615 22.9947 53.615 24.96V31.45C53.615 31.5967 53.5637 31.7287 53.461 31.846C53.3583 31.9487 53.2263 32 53.065 32H50.447C50.2857 32 50.1537 31.9487 50.051 31.846C49.9483 31.7433 49.897 31.6113 49.897 31.45V24.938C49.897 23.266 49.0683 22.43 47.411 22.43H45.475V31.45C45.475 31.5967 45.4237 31.7287 45.321 31.846C45.2183 31.9487 45.0863 32 44.925 32H42.307ZM66.26 24.938C66.26 23.266 65.4313 22.43 63.774 22.43H60.276C60.1293 22.43 59.9973 22.3787 59.88 22.276C59.7773 22.1587 59.726 22.0267 59.726 21.88V19.988C59.726 19.8267 59.7773 19.6947 59.88 19.592C59.9973 19.4893 60.1293 19.438 60.276 19.438H63.906C65.9593 19.438 67.4847 19.856 68.482 20.692C69.4793 21.5133 69.978 22.8847 69.978 24.806V34.178C69.978 34.3393 69.9267 34.4713 69.824 34.574C69.7213 34.6767 69.5893 34.728 69.428 34.728H66.832C66.6707 34.728 66.5313 34.6767 66.414 34.574C66.3113 34.4713 66.26 34.3393 66.26 34.178V24.938ZM78.9922 32C78.8308 32 78.6915 31.9487 78.5742 31.846C78.4715 31.7433 78.4202 31.6113 78.4202 31.45V24.938C78.4202 23.266 77.5915 22.43 75.9342 22.43H72.5902C72.4435 22.43 72.3115 22.3787 72.1942 22.276C72.0915 22.1587 72.0402 22.0267 72.0402 21.88V19.988C72.0402 19.8267 72.0915 19.6947 72.1942 19.592C72.3115 19.4893 72.4435 19.438 72.5902 19.438H76.0662C78.1048 19.438 79.6228 19.856 80.6202 20.692C81.6322 21.528 82.1382 22.8993 82.1382 24.806V31.45C82.1382 31.5967 82.0868 31.7287 81.9842 31.846C81.8815 31.9487 81.7495 32 81.5882 32H78.9922ZM95.5523 19.438C95.7136 19.438 95.8456 19.4893 95.9483 19.592C96.0656 19.6947 96.1243 19.8267 96.1243 19.988V26.5C96.1243 27.952 95.6183 29.162 94.6063 30.13C93.5943 31.0833 92.1716 31.7213 90.3383 32.044L84.6843 33.232C84.523 33.2613 84.3836 33.2247 84.2663 33.122C84.149 33.0193 84.0903 32.8873 84.0903 32.726V30.812C84.0903 30.6653 84.1343 30.5407 84.2223 30.438C84.3103 30.3207 84.435 30.2473 84.5963 30.218L87.0383 29.624L84.4423 20.318C84.369 20.0687 84.3323 19.922 84.3323 19.878C84.3323 19.7607 84.3763 19.658 84.4643 19.57C84.5523 19.482 84.655 19.438 84.7723 19.438H87.6543C87.7863 19.438 87.8963 19.4747 87.9843 19.548C88.0723 19.6067 88.131 19.68 88.1603 19.768L90.3383 28.766C91.1303 28.458 91.673 28.0473 91.9663 27.534C92.2596 27.006 92.4063 26.2947 92.4063 25.4V19.988C92.4063 19.8267 92.4576 19.6947 92.5603 19.592C92.663 19.4893 92.795 19.438 92.9563 19.438H95.5523ZM105.953 19.438C107.493 19.438 108.732 19.8853 109.671 20.78C110.61 21.6747 111.079 23.0167 111.079 24.806V31.45C111.079 31.5967 111.028 31.7287 110.925 31.846C110.822 31.9487 110.69 32 110.529 32H104.545C104.384 32 104.244 31.9487 104.127 31.846C104.024 31.7433 103.973 31.6113 103.973 31.45V29.558C103.973 29.3967 104.024 29.2647 104.127 29.162C104.244 29.0593 104.384 29.008 104.545 29.008H107.361V24.982C107.361 24.2193 107.178 23.6253 106.811 23.2C106.444 22.7747 105.968 22.562 105.381 22.562H103.687L101.795 31.428C101.795 31.5893 101.736 31.7287 101.619 31.846C101.516 31.9487 101.384 32 101.223 32H98.6932C98.5318 32 98.3925 31.9487 98.2752 31.846C98.1725 31.7287 98.1358 31.5893 98.1652 31.428L100.343 22.584H98.8692C98.7078 22.584 98.5758 22.5327 98.4732 22.43C98.3705 22.3127 98.3192 22.1733 98.3192 22.012V19.988C98.3192 19.8267 98.3705 19.6947 98.4732 19.592C98.5905 19.4893 98.7225 19.438 98.8692 19.438H105.953Z" fill="#2A5470"/>
<path d="M74.0752 101.753L73.5272 102.017L49.8184 52.7753L50.3663 52.5117L74.0752 101.753Z" fill="#93C255"/>
<path d="M58.8234 61.2489L58.3823 61.6675L50.0234 52.8526L50.4645 52.4341L58.8234 61.2489Z" fill="#93C255"/>
<path d="M98.5864 89.4713L98.2558 89.9819L74.5469 74.6319L74.8776 74.1213L98.5864 89.4713Z" fill="#93C255"/>
<path d="M54.3732 66.4746L54.3227 67.0802L25.1426 64.6485L25.193 64.043L54.3732 66.4746Z" fill="#93C255"/>
<path d="M86.6054 65.4074L74.751 66.9272L74.6738 66.324L86.5283 64.8042L86.6054 65.4074Z" fill="#93C255"/>
<path d="M58.1631 85.8254L57.8277 86.3324L25 64.5993L25.3354 64.0923L58.1631 85.8254Z" fill="#93C255"/>
<path d="M98.3702 89.4395L98.1707 90.0136L25.0684 64.6329L25.2678 64.0588L98.3702 89.4395Z" fill="#93C255"/>
<path d="M86.664 65.5459C86.674 65.5426 86.6535 65.5508 86.5702 65.5899C86.4989 65.6232 86.3975 65.6716 86.2671 65.7341C86.0065 65.8591 85.6323 66.0403 85.1561 66.2717C84.2037 66.7345 82.8449 67.398 81.1737 68.2157C77.8315 69.8511 73.2409 72.1032 68.1566 74.6C57.988 79.5938 45.8447 85.5666 37.7644 89.5433L37.4961 88.9978C45.5764 85.0209 57.7197 79.048 67.8885 74.0541C72.9729 71.5572 77.5639 69.3051 80.9066 67.6695C82.5778 66.8517 83.9373 66.1881 84.8904 65.7249C85.3669 65.4934 85.742 65.3116 86.0041 65.1859C86.135 65.1231 86.2385 65.0741 86.3122 65.0395C86.3735 65.0108 86.4386 64.9805 86.4716 64.9695L86.664 65.5459Z" fill="#93C255"/>
<path d="M58.3387 86.8362L37.6694 89.5719L37.5898 88.9693L58.2591 86.2336L58.3387 86.8362Z" fill="#93C255"/>
<path d="M98.1416 89.4235L98.0929 90.0297L58.5781 86.8381L58.6268 86.2319L98.1416 89.4235Z" fill="#93C255"/>
<path d="M50.3968 52.6478L49.4849 113.744L48.877 113.735L49.7888 52.6389L50.3968 52.6478Z" fill="#0D4651"/>
<path d="M65.2732 68.0922L49.4673 113.99L48.8926 113.792L64.6985 67.8945L65.2732 68.0922Z" fill="#0D4651"/>
<path d="M86.809 65.5951L49.5739 114.077L49.0918 113.706L86.3269 65.2246L86.809 65.5951Z" fill="#0D4651"/>
<path d="M74.1718 101.977L73.7355 102.401L58.6895 86.8986L59.1258 86.4753L74.1718 101.977Z" fill="#0D4651"/>
<path d="M59.0102 86.3684L58.502 86.7014L49.5352 73.0232L50.0433 72.6902L59.0102 86.3684Z" fill="#0D4651"/>
<path d="M74.3511 81.8087L58.8491 86.824L58.6621 86.2458L74.1641 81.2305L74.3511 81.8087Z" fill="#0D4651"/>
<path d="M65.1378 68.1453L68.1774 59.4824L50.0918 72.8567L65.1378 68.1453Z" fill="#0D4651"/>
<path d="M65.2564 68.2677L65.1836 68.2906L50.1376 73.002L50.002 72.7345L68.4847 59.0664L65.2564 68.2677ZM50.9091 72.4415L65.0201 68.0228L67.8706 59.8984L50.9091 72.4415Z" fill="#0D4651"/>
<path d="M65.1387 68.1453L68.3303 59.1785L74.1055 81.2156L65.1387 68.1453Z" fill="#1B7A8E"/>
<path d="M74.2517 81.1771L73.9795 81.3018L64.9688 68.1674L64.9949 68.0944L68.3515 58.6633L74.2517 81.1771ZM65.3068 68.1232L73.7367 80.4104L68.3073 59.6936L65.3068 68.1232Z" fill="#1B7A8E"/>
<path d="M50.3965 72.2489L74.4093 41.093L68.3301 59.0267L50.3965 72.2489Z" fill="#1B7A8E"/>
<path d="M74.5527 41.1416L68.4581 59.1206L50.4861 72.3711L50.2754 72.1559L74.2882 41L74.5527 41.1416ZM51.1778 71.4833L68.2007 58.9325L73.9712 41.9095L51.1778 71.4833Z" fill="#1B7A8E"/>
<path d="M68.4824 59.0265L74.4096 41.2449V81.0636L68.4824 59.0265Z" fill="#0D4651"/>
<path d="M74.5619 41.2449V81.0636L74.2633 81.1031L68.3242 59.0218L68.3385 58.9784L74.2657 41.1968L74.5619 41.2449ZM68.6412 59.0313L74.258 79.9137V42.1817L68.6412 59.0313Z" fill="#0D4651"/>
<path d="M50.0301 73.1943L37.7197 89.1522L37.2383 88.7811L49.5487 72.8232L50.0301 73.1943Z" fill="#0D4651"/>
<path d="M74.4087 81.6737L74.2567 102.039L73.6488 102.035L73.8008 81.6692L74.4087 81.6737Z" fill="#0D4651"/>
</svg>
