<svg width="195" height="195" viewBox="0 0 195 195" fill="none" xmlns="http://www.w3.org/2000/svg">
<circle cx="97.5" cy="97.5" r="97.5" fill="#A6DDFF"/>
<path d="M46.3476 52.58C48.1742 52.58 49.5476 52.98 50.4676 53.78C51.4009 54.5667 51.8676 55.8 51.8676 57.48V63.5C51.8676 63.6333 51.8209 63.7533 51.7276 63.86C51.6342 63.9533 51.5142 64 51.3676 64H48.9876C48.8409 64 48.7209 63.9533 48.6276 63.86C48.5342 63.7667 48.4876 63.6467 48.4876 63.5V57.58C48.4876 56.06 47.7342 55.3 46.2276 55.3H44.9276C44.8076 55.7533 44.7209 56.2067 44.6676 56.66C44.6276 57.1133 44.6076 57.64 44.6076 58.24L44.7676 63.5C44.7676 63.6333 44.7209 63.7533 44.6276 63.86C44.5342 63.9533 44.4142 64 44.2676 64L40.0076 63.98C39.8742 63.98 39.7542 63.9333 39.6476 63.84C39.5542 63.7333 39.5076 63.6133 39.5076 63.48V61.9C39.5076 61.7533 39.5542 61.6333 39.6476 61.54C39.7542 61.4467 39.8742 61.4 40.0076 61.4H41.6276V58.26C41.6276 57.14 41.7342 56.1533 41.9476 55.3H40.7476C40.6142 55.3 40.4942 55.2533 40.3876 55.16C40.2942 55.0533 40.2476 54.9333 40.2476 54.8V53.08C40.2476 52.9333 40.2942 52.8133 40.3876 52.72C40.4942 52.6267 40.6142 52.58 40.7476 52.58H46.3476ZM54.6249 64C54.4916 64 54.3716 63.9533 54.2649 63.86C54.1716 63.7533 54.1249 63.6333 54.1249 63.5V53.08C54.1249 52.9333 54.1716 52.8133 54.2649 52.72C54.3716 52.6267 54.4916 52.58 54.6249 52.58H57.1249C57.2716 52.58 57.3916 52.6267 57.4849 52.72C57.5916 52.8133 57.6449 52.9333 57.6449 53.08V63.5C57.6449 63.6467 57.5916 63.7667 57.4849 63.86C57.3916 63.9533 57.2716 64 57.1249 64H54.6249ZM60.3838 64C60.2505 64 60.1305 63.9533 60.0238 63.86C59.9305 63.7533 59.8838 63.6333 59.8838 63.5V61.66C59.8838 61.5133 59.9305 61.3933 60.0238 61.3C60.1172 61.1933 60.2372 61.14 60.3838 61.14H63.3038C64.0638 61.14 64.6438 60.9467 65.0438 60.56C65.4438 60.1733 65.6572 59.6133 65.6838 58.88C65.6972 58.72 65.7038 58.52 65.7038 58.28C65.7038 58.0533 65.6972 57.86 65.6838 57.7C65.6572 56.9667 65.4438 56.4067 65.0438 56.02C64.6438 55.6333 64.0638 55.44 63.3038 55.44H60.3838C60.2372 55.44 60.1172 55.3933 60.0238 55.3C59.9305 55.1933 59.8838 55.0667 59.8838 54.92V53.08C59.8838 52.9333 59.9305 52.8133 60.0238 52.72C60.1305 52.6267 60.2505 52.58 60.3838 52.58H63.4038C66.9372 52.58 68.7838 54.2933 68.9438 57.72C68.9572 57.8667 68.9638 58.0533 68.9638 58.28C68.9638 60.0933 68.5238 61.5 67.6438 62.5C66.7772 63.5 65.3638 64 63.4038 64H60.3838ZM77.446 52.58C78.846 52.58 79.9727 52.9867 80.826 53.8C81.6794 54.6133 82.106 55.8333 82.106 57.46V63.5C82.106 63.6333 82.0594 63.7533 81.966 63.86C81.8727 63.9533 81.7527 64 81.606 64H76.166C76.0194 64 75.8927 63.9533 75.786 63.86C75.6927 63.7667 75.646 63.6467 75.646 63.5V61.78C75.646 61.6333 75.6927 61.5133 75.786 61.42C75.8927 61.3267 76.0194 61.28 76.166 61.28H78.726V57.62C78.726 56.9267 78.5594 56.3867 78.226 56C77.8927 55.6133 77.4594 55.42 76.926 55.42H75.386L73.666 63.48C73.666 63.6267 73.6127 63.7533 73.506 63.86C73.4127 63.9533 73.2927 64 73.146 64H70.846C70.6994 64 70.5727 63.9533 70.466 63.86C70.3727 63.7533 70.3394 63.6267 70.366 63.48L72.346 55.44H71.006C70.8594 55.44 70.7394 55.3933 70.646 55.3C70.5527 55.1933 70.506 55.0667 70.506 54.92V53.08C70.506 52.9333 70.5527 52.8133 70.646 52.72C70.7527 52.6267 70.8727 52.58 71.006 52.58H77.446ZM89.6598 64.2C87.8464 64.2 86.4864 63.7667 85.5798 62.9C84.6731 62.02 84.2198 60.78 84.2198 59.18V53.08C84.2198 52.9333 84.2664 52.8133 84.3598 52.72C84.4664 52.6267 84.5864 52.58 84.7198 52.58H89.8398C91.7464 52.58 93.1131 52.9867 93.9398 53.8C94.7798 54.6133 95.2398 55.8133 95.3198 57.4C95.3331 57.5333 95.3398 57.8467 95.3398 58.34C95.3398 58.8467 95.3331 59.1667 95.3198 59.3C95.2531 60.9 94.7798 62.12 93.8998 62.96C93.0331 63.7867 91.6198 64.2 89.6598 64.2ZM89.6398 61.34C90.5464 61.34 91.1731 61.18 91.5198 60.86C91.8798 60.5267 92.0731 59.9733 92.0998 59.2C92.1131 59.0667 92.1198 58.78 92.1198 58.34C92.1198 57.9133 92.1131 57.6333 92.0998 57.5C92.0731 56.7533 91.8731 56.2 91.4998 55.84C91.1264 55.48 90.5398 55.3 89.7398 55.3H87.3198V59.12C87.3198 60.6 88.0931 61.34 89.6398 61.34ZM109.426 64C109.279 64 109.153 63.9533 109.046 63.86C108.953 63.7667 108.906 63.6467 108.906 63.5V57.58C108.906 56.06 108.153 55.3 106.646 55.3H102.086C101.953 55.3 101.833 55.2533 101.726 55.16C101.633 55.0533 101.586 54.9333 101.586 54.8V53.08C101.586 52.9333 101.633 52.8133 101.726 52.72C101.833 52.6267 101.953 52.58 102.086 52.58H106.746C108.586 52.58 109.966 52.9867 110.886 53.8C111.819 54.6133 112.286 55.88 112.286 57.6V63.5C112.286 63.6333 112.239 63.7533 112.146 63.86C112.053 63.9533 111.933 64 111.786 64H109.426ZM102.086 64C101.953 64 101.833 63.9533 101.726 63.86C101.633 63.7533 101.586 63.6333 101.586 63.5V57.66C101.586 57.5133 101.633 57.3933 101.726 57.3C101.833 57.2067 101.953 57.16 102.086 57.16H104.466C104.613 57.16 104.733 57.2067 104.826 57.3C104.919 57.3933 104.966 57.5133 104.966 57.66V63.5C104.966 63.6333 104.919 63.7533 104.826 63.86C104.733 63.9533 104.613 64 104.466 64H102.086ZM115.055 64C114.921 64 114.801 63.9533 114.695 63.86C114.601 63.7533 114.555 63.6333 114.555 63.5V53.08C114.555 52.9333 114.601 52.8133 114.695 52.72C114.801 52.6267 114.921 52.58 115.055 52.58H117.555C117.701 52.58 117.821 52.6267 117.915 52.72C118.021 52.8133 118.075 52.9333 118.075 53.08V63.5C118.075 63.6467 118.021 63.7667 117.915 63.86C117.821 63.9533 117.701 64 117.555 64H115.055ZM120.934 64C120.8 64 120.68 63.9533 120.574 63.86C120.48 63.7533 120.434 63.6333 120.434 63.5V53.08C120.434 52.9333 120.48 52.8133 120.574 52.72C120.68 52.6267 120.8 52.58 120.934 52.58H123.434C123.58 52.58 123.7 52.6267 123.794 52.72C123.9 52.8133 123.954 52.9333 123.954 53.08V63.5C123.954 63.6467 123.9 63.7667 123.794 63.86C123.7 63.9533 123.58 64 123.434 64H120.934ZM134.152 64C134.006 64 133.879 63.9533 133.772 63.86C133.679 63.7667 133.632 63.6467 133.632 63.5V57.58C133.632 56.06 132.879 55.3 131.372 55.3H126.812C126.679 55.3 126.559 55.2533 126.452 55.16C126.359 55.0533 126.312 54.9333 126.312 54.8V53.08C126.312 52.9333 126.359 52.8133 126.452 52.72C126.559 52.6267 126.679 52.58 126.812 52.58H131.472C133.312 52.58 134.692 52.9867 135.612 53.8C136.546 54.6133 137.012 55.88 137.012 57.6V63.5C137.012 63.6333 136.966 63.7533 136.872 63.86C136.779 63.9533 136.659 64 136.512 64H134.152ZM126.812 64C126.679 64 126.559 63.9533 126.452 63.86C126.359 63.7533 126.312 63.6333 126.312 63.5V57.66C126.312 57.5133 126.359 57.3933 126.452 57.3C126.559 57.2067 126.679 57.16 126.812 57.16H129.192C129.339 57.16 129.459 57.2067 129.552 57.3C129.646 57.3933 129.692 57.5133 129.692 57.66V63.5C129.692 63.6333 129.646 63.7533 129.552 63.86C129.459 63.9533 129.339 64 129.192 64H126.812ZM145.981 52.58C147.381 52.58 148.508 52.9867 149.361 53.8C150.215 54.6133 150.641 55.8333 150.641 57.46V63.5C150.641 63.6333 150.595 63.7533 150.501 63.86C150.408 63.9533 150.288 64 150.141 64H144.701C144.555 64 144.428 63.9533 144.321 63.86C144.228 63.7667 144.181 63.6467 144.181 63.5V61.78C144.181 61.6333 144.228 61.5133 144.321 61.42C144.428 61.3267 144.555 61.28 144.701 61.28H147.261V57.62C147.261 56.9267 147.095 56.3867 146.761 56C146.428 55.6133 145.995 55.42 145.461 55.42H143.921L142.201 63.48C142.201 63.6267 142.148 63.7533 142.041 63.86C141.948 63.9533 141.828 64 141.681 64H139.381C139.235 64 139.108 63.9533 139.001 63.86C138.908 63.7533 138.875 63.6267 138.901 63.48L140.881 55.44H139.541C139.395 55.44 139.275 55.3933 139.181 55.3C139.088 55.1933 139.041 55.0667 139.041 54.92V53.08C139.041 52.9333 139.088 52.8133 139.181 52.72C139.288 52.6267 139.408 52.58 139.541 52.58H145.981ZM36.6567 88C36.5101 88 36.3834 87.9533 36.2767 87.86C36.1834 87.7667 36.1367 87.6467 36.1367 87.5V81.58C36.1367 80.06 35.3834 79.3 33.8767 79.3H30.8367C30.7034 79.3 30.5834 79.2533 30.4767 79.16C30.3834 79.0533 30.3367 78.9333 30.3367 78.8V77.08C30.3367 76.9333 30.3834 76.8133 30.4767 76.72C30.5834 76.6267 30.7034 76.58 30.8367 76.58H33.9967C35.8501 76.58 37.2301 76.96 38.1367 77.72C39.0567 78.48 39.5167 79.7267 39.5167 81.46V87.5C39.5167 87.6333 39.4701 87.7533 39.3767 87.86C39.2834 87.9533 39.1634 88 39.0167 88H36.6567ZM42.2714 88C42.1381 88 42.0181 87.9533 41.9114 87.86C41.8181 87.7533 41.7714 87.6333 41.7714 87.5V77.08C41.7714 76.9333 41.8181 76.8133 41.9114 76.72C42.0181 76.6267 42.1381 76.58 42.2714 76.58H44.7714C44.9181 76.58 45.0381 76.6267 45.1314 76.72C45.2381 76.8133 45.2914 76.9333 45.2914 77.08V87.5C45.2914 87.6467 45.2381 87.7667 45.1314 87.86C45.0381 87.9533 44.9181 88 44.7714 88H42.2714ZM52.9903 88.26C52.857 88.2867 52.7303 88.24 52.6103 88.12C52.5036 88 52.4503 87.8667 52.4503 87.72V85.7C52.4503 85.5667 52.497 85.4467 52.5903 85.34C52.6836 85.22 52.8036 85.1267 52.9503 85.06L53.5903 84.8C54.2036 84.56 54.6836 84.2067 55.0303 83.74C55.3903 83.26 55.5703 82.58 55.5703 81.7C55.5703 80.86 55.4236 80.2733 55.1303 79.94C54.837 79.6067 54.2903 79.44 53.4903 79.44H48.1503C48.017 79.44 47.897 79.3933 47.7903 79.3C47.697 79.1933 47.6503 79.0667 47.6503 78.92V77.06C47.6503 76.9267 47.697 76.8133 47.7903 76.72C47.897 76.6267 48.017 76.58 48.1503 76.58H54.1903C55.9236 76.58 57.1703 77 57.9303 77.84C58.6903 78.6667 59.0703 79.92 59.0703 81.6C59.0703 83.2933 58.5703 84.68 57.5703 85.76C56.5703 86.84 55.317 87.5933 53.8103 88.02L52.9903 88.26ZM48.1503 91.82C48.017 91.82 47.897 91.7733 47.7903 91.68C47.697 91.5867 47.6503 91.4667 47.6503 91.32V81.66C47.6503 81.5133 47.697 81.3933 47.7903 81.3C47.897 81.2067 48.017 81.16 48.1503 81.16H50.4503C50.597 81.16 50.717 81.2067 50.8103 81.3C50.9036 81.3933 50.9503 81.5133 50.9503 81.66V91.32C50.9503 91.4667 50.9036 91.5867 50.8103 91.68C50.717 91.7733 50.597 91.82 50.4503 91.82H48.1503ZM67.6902 76.58C69.0902 76.58 70.2168 76.9867 71.0702 77.8C71.9235 78.6133 72.3502 79.8333 72.3502 81.46V87.5C72.3502 87.6333 72.3035 87.7533 72.2102 87.86C72.1168 87.9533 71.9968 88 71.8502 88H66.4102C66.2635 88 66.1368 87.9533 66.0302 87.86C65.9368 87.7667 65.8902 87.6467 65.8902 87.5V85.78C65.8902 85.6333 65.9368 85.5133 66.0302 85.42C66.1368 85.3267 66.2635 85.28 66.4102 85.28H68.9702V81.62C68.9702 80.9267 68.8035 80.3867 68.4702 80C68.1368 79.6133 67.7035 79.42 67.1702 79.42H65.6302L63.9102 87.48C63.9102 87.6267 63.8568 87.7533 63.7502 87.86C63.6568 87.9533 63.5368 88 63.3902 88H61.0902C60.9435 88 60.8168 87.9533 60.7102 87.86C60.6168 87.7533 60.5835 87.6267 60.6102 87.48L62.5902 79.44H61.2502C61.1035 79.44 60.9835 79.3933 60.8902 79.3C60.7968 79.1933 60.7502 79.0667 60.7502 78.92V77.08C60.7502 76.9333 60.7968 76.8133 60.8902 76.72C60.9968 76.6267 61.1168 76.58 61.2502 76.58H67.6902ZM75.0839 88C74.9506 88 74.8306 87.9533 74.7239 87.86C74.6306 87.7533 74.5839 87.6333 74.5839 87.5V77.08C74.5839 76.9333 74.6306 76.8133 74.7239 76.72C74.8306 76.6267 74.9506 76.58 75.0839 76.58H77.5839C77.7306 76.58 77.8506 76.6267 77.9439 76.72C78.0506 76.8133 78.1039 76.9333 78.1039 77.08V87.5C78.1039 87.6467 78.0506 87.7667 77.9439 87.86C77.8506 87.9533 77.7306 88 77.5839 88H75.0839ZM91.2011 76.58C93.0278 76.58 94.4011 76.98 95.3211 77.78C96.2544 78.5667 96.7211 79.8 96.7211 81.48V87.5C96.7211 87.6333 96.6744 87.7533 96.5811 87.86C96.4878 87.9533 96.3678 88 96.2211 88H93.8411C93.6944 88 93.5744 87.9533 93.4811 87.86C93.3878 87.7667 93.3411 87.6467 93.3411 87.5V81.58C93.3411 80.06 92.5878 79.3 91.0811 79.3H89.7811C89.6611 79.7533 89.5744 80.2067 89.5211 80.66C89.4811 81.1133 89.4611 81.64 89.4611 82.24L89.6211 87.5C89.6211 87.6333 89.5744 87.7533 89.4811 87.86C89.3878 87.9533 89.2678 88 89.1211 88L84.8611 87.98C84.7278 87.98 84.6078 87.9333 84.5011 87.84C84.4078 87.7333 84.3611 87.6133 84.3611 87.48V85.9C84.3611 85.7533 84.4078 85.6333 84.5011 85.54C84.6078 85.4467 84.7278 85.4 84.8611 85.4H86.4811V82.26C86.4811 81.14 86.5878 80.1533 86.8011 79.3H85.6011C85.4678 79.3 85.3478 79.2533 85.2411 79.16C85.1478 79.0533 85.1011 78.9333 85.1011 78.8V77.08C85.1011 76.9333 85.1478 76.8133 85.2411 76.72C85.3478 76.6267 85.4678 76.58 85.6011 76.58H91.2011ZM99.3984 83.26C99.2651 83.26 99.1451 83.2133 99.0384 83.12C98.9451 83.0133 98.8984 82.8933 98.8984 82.76V77.08C98.8984 76.9333 98.9451 76.8133 99.0384 76.72C99.1451 76.6267 99.2651 76.58 99.3984 76.58H101.898C102.045 76.58 102.165 76.6267 102.258 76.72C102.365 76.8133 102.418 76.9333 102.418 77.08V82.76C102.418 82.9067 102.365 83.0267 102.258 83.12C102.165 83.2133 102.045 83.26 101.898 83.26H99.3984ZM114.641 76.58C114.788 76.58 114.908 76.6267 115.001 76.72C115.108 76.8133 115.161 76.9333 115.161 77.08V83C115.161 84.32 114.701 85.42 113.781 86.3C112.861 87.1667 111.568 87.7467 109.901 88.04L104.761 89.12C104.614 89.1467 104.488 89.1133 104.381 89.02C104.274 88.9267 104.221 88.8067 104.221 88.66V86.92C104.221 86.7867 104.261 86.6733 104.341 86.58C104.421 86.4733 104.534 86.4067 104.681 86.38L106.901 85.84L104.541 77.38C104.474 77.1533 104.441 77.02 104.441 76.98C104.441 76.8733 104.481 76.78 104.561 76.7C104.641 76.62 104.734 76.58 104.841 76.58H107.461C107.581 76.58 107.681 76.6133 107.761 76.68C107.841 76.7333 107.894 76.8 107.921 76.88L109.901 85.06C110.621 84.78 111.114 84.4067 111.381 83.94C111.648 83.46 111.781 82.8133 111.781 82V77.08C111.781 76.9333 111.828 76.8133 111.921 76.72C112.014 76.6267 112.134 76.58 112.281 76.58H114.641ZM117.896 88C117.763 88 117.643 87.9533 117.536 87.86C117.443 87.7533 117.396 87.6333 117.396 87.5V77.08C117.396 76.9333 117.443 76.8133 117.536 76.72C117.643 76.6267 117.763 76.58 117.896 76.58H120.396C120.543 76.58 120.663 76.6267 120.756 76.72C120.863 76.8133 120.916 76.9333 120.916 77.08V87.5C120.916 87.6467 120.863 87.7667 120.756 87.86C120.663 87.9533 120.543 88 120.396 88H117.896ZM132.935 78.84C132.935 79.7333 132.735 80.5467 132.335 81.28C131.935 82.0133 131.349 82.62 130.575 83.1L132.115 85.22C132.302 85.4333 132.395 85.6533 132.395 85.88V87.5C132.395 87.6333 132.349 87.7533 132.255 87.86C132.162 87.9533 132.042 88 131.895 88H123.775C123.642 88 123.522 87.9533 123.415 87.86C123.322 87.7533 123.275 87.6333 123.275 87.5V85.72C123.275 85.5733 123.322 85.4533 123.415 85.36C123.522 85.2667 123.642 85.22 123.775 85.22H128.455L122.655 77.3C122.575 77.1667 122.535 77.06 122.535 76.98C122.535 76.86 122.575 76.7667 122.655 76.7C122.749 76.62 122.855 76.58 122.975 76.58H125.455C125.722 76.58 125.935 76.7 126.095 76.94L128.895 80.8C129.522 80.2533 129.835 79.4 129.835 78.24V77.12C129.835 76.96 129.882 76.8333 129.975 76.74C130.069 76.6333 130.189 76.58 130.335 76.58H132.435C132.569 76.58 132.682 76.6333 132.775 76.74C132.882 76.8467 132.935 76.9733 132.935 77.12V78.84ZM140.412 88.26C140.279 88.2867 140.152 88.24 140.032 88.12C139.926 88 139.872 87.8667 139.872 87.72V85.7C139.872 85.5667 139.919 85.4467 140.012 85.34C140.106 85.22 140.226 85.1267 140.372 85.06L141.012 84.8C141.626 84.56 142.106 84.2067 142.452 83.74C142.812 83.26 142.992 82.58 142.992 81.7C142.992 80.86 142.846 80.2733 142.552 79.94C142.259 79.6067 141.712 79.44 140.912 79.44H135.572C135.439 79.44 135.319 79.3933 135.212 79.3C135.119 79.1933 135.072 79.0667 135.072 78.92V77.06C135.072 76.9267 135.119 76.8133 135.212 76.72C135.319 76.6267 135.439 76.58 135.572 76.58H141.612C143.346 76.58 144.592 77 145.352 77.84C146.112 78.6667 146.492 79.92 146.492 81.6C146.492 83.2933 145.992 84.68 144.992 85.76C143.992 86.84 142.739 87.5933 141.232 88.02L140.412 88.26ZM135.572 91.82C135.439 91.82 135.319 91.7733 135.212 91.68C135.119 91.5867 135.072 91.4667 135.072 91.32V81.66C135.072 81.5133 135.119 81.3933 135.212 81.3C135.319 81.2067 135.439 81.16 135.572 81.16H137.872C138.019 81.16 138.139 81.2067 138.232 81.3C138.326 81.3933 138.372 81.5133 138.372 81.66V91.32C138.372 91.4667 138.326 91.5867 138.232 91.68C138.139 91.7733 138.019 91.82 137.872 91.82H135.572ZM155.112 76.58C156.512 76.58 157.639 76.9867 158.492 77.8C159.345 78.6133 159.772 79.8333 159.772 81.46V87.5C159.772 87.6333 159.725 87.7533 159.632 87.86C159.539 87.9533 159.419 88 159.272 88H153.832C153.685 88 153.559 87.9533 153.452 87.86C153.359 87.7667 153.312 87.6467 153.312 87.5V85.78C153.312 85.6333 153.359 85.5133 153.452 85.42C153.559 85.3267 153.685 85.28 153.832 85.28H156.392V81.62C156.392 80.9267 156.225 80.3867 155.892 80C155.559 79.6133 155.125 79.42 154.592 79.42H153.052L151.332 87.48C151.332 87.6267 151.279 87.7533 151.172 87.86C151.079 87.9533 150.959 88 150.812 88H148.512C148.365 88 148.239 87.9533 148.132 87.86C148.039 87.7533 148.005 87.6267 148.032 87.48L150.012 79.44H148.672C148.525 79.44 148.405 79.3933 148.312 79.3C148.219 79.1933 148.172 79.0667 148.172 78.92V77.08C148.172 76.9333 148.219 76.8133 148.312 76.72C148.419 76.6267 148.539 76.58 148.672 76.58H155.112ZM47.3379 107.26C47.2046 107.26 47.0846 107.213 46.9779 107.12C46.8846 107.013 46.8379 106.893 46.8379 106.76V101.08C46.8379 100.933 46.8846 100.813 46.9779 100.72C47.0846 100.627 47.2046 100.58 47.3379 100.58H49.8379C49.9846 100.58 50.1046 100.627 50.1979 100.72C50.3046 100.813 50.3579 100.933 50.3579 101.08V106.76C50.3579 106.907 50.3046 107.027 50.1979 107.12C50.1046 107.213 49.9846 107.26 49.8379 107.26H47.3379ZM56.5405 100.58C58.2739 100.58 59.5139 101 60.2605 101.84C61.0205 102.667 61.4005 103.92 61.4005 105.6C61.4005 107.293 60.9005 108.68 59.9005 109.76C58.9005 110.84 57.6472 111.593 56.1405 112.02L55.3405 112.26C55.2072 112.287 55.0805 112.24 54.9605 112.12C54.8539 112.013 54.8005 111.88 54.8005 111.72V109.7C54.8005 109.567 54.8472 109.447 54.9405 109.34C55.0339 109.22 55.1539 109.127 55.3005 109.06L55.9405 108.8C56.5539 108.56 57.0339 108.207 57.3805 107.74C57.7405 107.26 57.9205 106.58 57.9205 105.7C57.9205 104.86 57.7672 104.273 57.4605 103.94C57.1672 103.607 56.6272 103.44 55.8405 103.44H55.3805H55.3205L52.6405 103.42C52.4939 103.42 52.3739 103.373 52.2805 103.28C52.1872 103.187 52.1405 103.067 52.1405 102.92V98.3C52.1405 98.1533 52.1872 98.0333 52.2805 97.94C52.3872 97.8467 52.5072 97.8 52.6405 97.8H54.8005C54.9472 97.8 55.0672 97.8467 55.1605 97.94C55.2539 98.0333 55.3005 98.1533 55.3005 98.3V100.58H56.1405H56.5405ZM63.7832 107.26C63.6499 107.26 63.5299 107.213 63.4232 107.12C63.3299 107.013 63.2832 106.893 63.2832 106.76V101.08C63.2832 100.933 63.3299 100.813 63.4232 100.72C63.5299 100.627 63.6499 100.58 63.7832 100.58H66.2832C66.4299 100.58 66.5499 100.627 66.6432 100.72C66.7499 100.813 66.8032 100.933 66.8032 101.08V106.76C66.8032 106.907 66.7499 107.027 66.6432 107.12C66.5499 107.213 66.4299 107.26 66.2832 107.26H63.7832ZM69.5059 107.26C69.3725 107.26 69.2525 107.213 69.1459 107.12C69.0525 107.013 69.0059 106.893 69.0059 106.76V101.08C69.0059 100.933 69.0525 100.813 69.1459 100.72C69.2525 100.627 69.3725 100.58 69.5059 100.58H72.0059C72.1525 100.58 72.2725 100.627 72.3659 100.72C72.4725 100.813 72.5259 100.933 72.5259 101.08V106.76C72.5259 106.907 72.4725 107.027 72.3659 107.12C72.2725 107.213 72.1525 107.26 72.0059 107.26H69.5059ZM75.3085 112C75.1752 112 75.0552 111.953 74.9485 111.86C74.8552 111.753 74.8085 111.633 74.8085 111.5V101.08C74.8085 100.933 74.8552 100.813 74.9485 100.72C75.0552 100.627 75.1752 100.58 75.3085 100.58H80.0485C81.9285 100.58 83.3219 100.973 84.2285 101.76C85.1352 102.533 85.5885 103.813 85.5885 105.6V111.5C85.5885 111.633 85.5419 111.753 85.4485 111.86C85.3552 111.953 85.2352 112 85.0885 112H82.7085C82.5619 112 82.4419 111.953 82.3485 111.86C82.2552 111.767 82.2085 111.647 82.2085 111.5V105.58C82.2085 104.06 81.4552 103.3 79.9485 103.3H78.1885V111.5C78.1885 111.633 78.1419 111.753 78.0485 111.86C77.9552 111.953 77.8352 112 77.6885 112H75.3085ZM91.5796 100.58C93.3129 100.58 94.5529 101 95.2996 101.84C96.0596 102.667 96.4396 103.92 96.4396 105.6C96.4396 107.293 95.9396 108.68 94.9396 109.76C93.9396 110.84 92.6863 111.593 91.1796 112.02L90.3796 112.26C90.2463 112.287 90.1196 112.24 89.9996 112.12C89.8929 112.013 89.8396 111.88 89.8396 111.72V109.7C89.8396 109.567 89.8863 109.447 89.9796 109.34C90.0729 109.22 90.1929 109.127 90.3396 109.06L90.9796 108.8C91.5929 108.56 92.0729 108.207 92.4196 107.74C92.7796 107.26 92.9596 106.58 92.9596 105.7C92.9596 104.86 92.8063 104.273 92.4996 103.94C92.2063 103.607 91.6663 103.44 90.8796 103.44H90.4196H90.3596L87.6796 103.42C87.5329 103.42 87.4129 103.373 87.3196 103.28C87.2263 103.187 87.1796 103.067 87.1796 102.92V98.3C87.1796 98.1533 87.2263 98.0333 87.3196 97.94C87.4263 97.8467 87.5463 97.8 87.6796 97.8H89.8396C89.9863 97.8 90.1063 97.8467 90.1996 97.94C90.2929 98.0333 90.3396 98.1533 90.3396 98.3V100.58H91.1796H91.5796ZM112.581 100.58C112.727 100.58 112.847 100.627 112.941 100.72C113.047 100.813 113.101 100.933 113.101 101.08V107C113.101 108.32 112.641 109.42 111.721 110.3C110.801 111.167 109.507 111.747 107.841 112.04L102.701 113.12C102.554 113.147 102.427 113.113 102.321 113.02C102.214 112.927 102.161 112.807 102.161 112.66V110.92C102.161 110.787 102.201 110.673 102.281 110.58C102.361 110.473 102.474 110.407 102.621 110.38L104.841 109.84L102.481 101.38C102.414 101.153 102.381 101.02 102.381 100.98C102.381 100.873 102.421 100.78 102.501 100.7C102.581 100.62 102.674 100.58 102.781 100.58H105.401C105.521 100.58 105.621 100.613 105.701 100.68C105.781 100.733 105.834 100.8 105.861 100.88L107.841 109.06C108.561 108.78 109.054 108.407 109.321 107.94C109.587 107.46 109.721 106.813 109.721 106V101.08C109.721 100.933 109.767 100.813 109.861 100.72C109.954 100.627 110.074 100.58 110.221 100.58H112.581ZM124.176 100.58C124.323 100.58 124.443 100.627 124.536 100.72C124.629 100.813 124.676 100.933 124.676 101.08V102.8C124.676 102.933 124.629 103.053 124.536 103.16C124.443 103.253 124.323 103.3 124.176 103.3H123.256C123.096 103.553 122.969 103.893 122.876 104.32C122.796 104.747 122.756 105.22 122.756 105.74V111.56C122.756 111.68 122.689 111.787 122.556 111.88C122.436 111.96 122.309 112 122.176 112H119.836C119.703 112 119.596 111.96 119.516 111.88C119.436 111.8 119.396 111.693 119.396 111.56V105.52C119.396 104.44 119.529 103.7 119.796 103.3H115.236C115.103 103.3 114.983 103.253 114.876 103.16C114.783 103.053 114.736 102.933 114.736 102.8V101.08C114.736 100.933 114.783 100.813 114.876 100.72C114.983 100.627 115.103 100.58 115.236 100.58H124.176ZM126.908 107.26C126.775 107.26 126.655 107.213 126.548 107.12C126.455 107.013 126.408 106.893 126.408 106.76V101.08C126.408 100.933 126.455 100.813 126.548 100.72C126.655 100.627 126.775 100.58 126.908 100.58H129.408C129.555 100.58 129.675 100.627 129.768 100.72C129.875 100.813 129.928 100.933 129.928 101.08V106.76C129.928 106.907 129.875 107.027 129.768 107.12C129.675 107.213 129.555 107.26 129.408 107.26H126.908ZM138.911 100.58C140.311 100.58 141.438 100.987 142.291 101.8C143.144 102.613 143.571 103.833 143.571 105.46V111.5C143.571 111.633 143.524 111.753 143.431 111.86C143.338 111.953 143.218 112 143.071 112H137.631C137.484 112 137.358 111.953 137.251 111.86C137.158 111.767 137.111 111.647 137.111 111.5V109.78C137.111 109.633 137.158 109.513 137.251 109.42C137.358 109.327 137.484 109.28 137.631 109.28H140.191V105.62C140.191 104.927 140.024 104.387 139.691 104C139.358 103.613 138.924 103.42 138.391 103.42H136.851L135.131 111.48C135.131 111.627 135.078 111.753 134.971 111.86C134.878 111.953 134.758 112 134.611 112H132.311C132.164 112 132.038 111.953 131.931 111.86C131.838 111.753 131.804 111.627 131.831 111.48L133.811 103.44H132.471C132.324 103.44 132.204 103.393 132.111 103.3C132.018 103.193 131.971 103.067 131.971 102.92V101.08C131.971 100.933 132.018 100.813 132.111 100.72C132.218 100.627 132.338 100.58 132.471 100.58H138.911ZM46.6836 129.58C46.6836 128.06 45.9303 127.3 44.4236 127.3H41.2436C41.1103 127.3 40.9903 127.253 40.8836 127.16C40.7903 127.053 40.7436 126.933 40.7436 126.8V125.08C40.7436 124.933 40.7903 124.813 40.8836 124.72C40.9903 124.627 41.1103 124.58 41.2436 124.58H44.5436C46.4103 124.58 47.7969 124.96 48.7036 125.72C49.6103 126.467 50.0636 127.713 50.0636 129.46V137.98C50.0636 138.127 50.0169 138.247 49.9236 138.34C49.8303 138.433 49.7103 138.48 49.5636 138.48H47.2036C47.0569 138.48 46.9303 138.433 46.8236 138.34C46.7303 138.247 46.6836 138.127 46.6836 137.98V129.58ZM52.8183 136C52.6849 136 52.5649 135.953 52.4583 135.86C52.3649 135.753 52.3183 135.633 52.3183 135.5V125.08C52.3183 124.933 52.3649 124.813 52.4583 124.72C52.5649 124.627 52.6849 124.58 52.8183 124.58H55.3183C55.4649 124.58 55.5849 124.627 55.6783 124.72C55.7849 124.813 55.8383 124.933 55.8383 125.08V135.5C55.8383 135.647 55.7849 135.767 55.6783 135.86C55.5849 135.953 55.4649 136 55.3183 136H52.8183ZM65.2172 135.5C65.2172 135.647 65.1639 135.767 65.0572 135.86C64.9639 135.953 64.8439 136 64.6972 136H62.1972H58.2572C58.1239 136 58.0039 135.953 57.8972 135.86C57.8039 135.753 57.7572 135.633 57.7572 135.5V133.78C57.7572 133.633 57.8039 133.513 57.8972 133.42C58.0039 133.327 58.1239 133.28 58.2572 133.28H61.5972L61.4172 129.34C61.3905 128.567 61.2639 128.007 61.0372 127.66C60.8105 127.313 60.3905 127.14 59.7772 127.14H58.7572C58.6239 127.14 58.5039 127.093 58.3972 127C58.3039 126.893 58.2572 126.773 58.2572 126.64V124.96C58.2572 124.813 58.3039 124.693 58.3972 124.6C58.4905 124.493 58.6105 124.44 58.7572 124.44H59.8572C61.6039 124.44 62.8705 124.833 63.6572 125.62C64.4439 126.407 64.8705 127.667 64.9372 129.4L65.2172 135.5ZM67.5039 131.26C67.3706 131.26 67.2506 131.213 67.1439 131.12C67.0506 131.013 67.0039 130.893 67.0039 130.76V125.08C67.0039 124.933 67.0506 124.813 67.1439 124.72C67.2506 124.627 67.3706 124.58 67.5039 124.58H70.0039C70.1506 124.58 70.2706 124.627 70.3639 124.72C70.4706 124.813 70.5239 124.933 70.5239 125.08V130.76C70.5239 130.907 70.4706 131.027 70.3639 131.12C70.2706 131.213 70.1506 131.26 70.0039 131.26H67.5039ZM73.3066 136C73.1732 136 73.0532 135.953 72.9466 135.86C72.8532 135.753 72.8066 135.633 72.8066 135.5V125.08C72.8066 124.933 72.8532 124.813 72.9466 124.72C73.0532 124.627 73.1732 124.58 73.3066 124.58H78.0466C79.9266 124.58 81.3199 124.973 82.2266 125.76C83.1332 126.533 83.5866 127.813 83.5866 129.6V135.5C83.5866 135.633 83.5399 135.753 83.4466 135.86C83.3532 135.953 83.2332 136 83.0866 136H80.7066C80.5599 136 80.4399 135.953 80.3466 135.86C80.2532 135.767 80.2066 135.647 80.2066 135.5V129.58C80.2066 128.06 79.4532 127.3 77.9466 127.3H76.1866V135.5C76.1866 135.633 76.1399 135.753 76.0466 135.86C75.9532 135.953 75.8332 136 75.6866 136H73.3066ZM93.6934 136C93.5468 136 93.4201 135.953 93.3134 135.86C93.2201 135.767 93.1734 135.647 93.1734 135.5V129.58C93.1734 128.06 92.4201 127.3 90.9134 127.3H86.3534C86.2201 127.3 86.1001 127.253 85.9934 127.16C85.9001 127.053 85.8534 126.933 85.8534 126.8V125.08C85.8534 124.933 85.9001 124.813 85.9934 124.72C86.1001 124.627 86.2201 124.58 86.3534 124.58H91.0134C92.8534 124.58 94.2334 124.987 95.1534 125.8C96.0868 126.613 96.5534 127.88 96.5534 129.6V135.5C96.5534 135.633 96.5068 135.753 96.4134 135.86C96.3201 135.953 96.2001 136 96.0534 136H93.6934ZM86.3534 136C86.2201 136 86.1001 135.953 85.9934 135.86C85.9001 135.753 85.8534 135.633 85.8534 135.5V129.66C85.8534 129.513 85.9001 129.393 85.9934 129.3C86.1001 129.207 86.2201 129.16 86.3534 129.16H88.7334C88.8801 129.16 89.0001 129.207 89.0934 129.3C89.1868 129.393 89.2334 129.513 89.2334 129.66V135.5C89.2334 135.633 89.1868 135.753 89.0934 135.86C89.0001 135.953 88.8801 136 88.7334 136H86.3534ZM108.051 129.58C108.051 128.06 107.297 127.3 105.791 127.3H102.611C102.477 127.3 102.357 127.253 102.251 127.16C102.157 127.053 102.111 126.933 102.111 126.8V125.08C102.111 124.933 102.157 124.813 102.251 124.72C102.357 124.627 102.477 124.58 102.611 124.58H105.911C107.777 124.58 109.164 124.96 110.071 125.72C110.977 126.467 111.431 127.713 111.431 129.46V137.98C111.431 138.127 111.384 138.247 111.291 138.34C111.197 138.433 111.077 138.48 110.931 138.48H108.571C108.424 138.48 108.297 138.433 108.191 138.34C108.097 138.247 108.051 138.127 108.051 137.98V129.58ZM119.625 136C119.479 136 119.352 135.953 119.245 135.86C119.152 135.767 119.105 135.647 119.105 135.5V129.58C119.105 128.06 118.352 127.3 116.845 127.3H113.805C113.672 127.3 113.552 127.253 113.445 127.16C113.352 127.053 113.305 126.933 113.305 126.8V125.08C113.305 124.933 113.352 124.813 113.445 124.72C113.552 124.627 113.672 124.58 113.805 124.58H116.965C118.819 124.58 120.199 124.96 121.105 125.72C122.025 126.48 122.485 127.727 122.485 129.46V135.5C122.485 135.633 122.439 135.753 122.345 135.86C122.252 135.953 122.132 136 121.985 136H119.625ZM134.68 124.58C134.827 124.58 134.947 124.627 135.04 124.72C135.147 124.813 135.2 124.933 135.2 125.08V131C135.2 132.32 134.74 133.42 133.82 134.3C132.9 135.167 131.607 135.747 129.94 136.04L124.8 137.12C124.653 137.147 124.527 137.113 124.42 137.02C124.313 136.927 124.26 136.807 124.26 136.66V134.92C124.26 134.787 124.3 134.673 124.38 134.58C124.46 134.473 124.573 134.407 124.72 134.38L126.94 133.84L124.58 125.38C124.513 125.153 124.48 125.02 124.48 124.98C124.48 124.873 124.52 124.78 124.6 124.7C124.68 124.62 124.773 124.58 124.88 124.58H127.5C127.62 124.58 127.72 124.613 127.8 124.68C127.88 124.733 127.933 124.8 127.96 124.88L129.94 133.06C130.66 132.78 131.153 132.407 131.42 131.94C131.687 131.46 131.82 130.813 131.82 130V125.08C131.82 124.933 131.867 124.813 131.96 124.72C132.053 124.627 132.173 124.58 132.32 124.58H134.68ZM144.135 124.58C145.535 124.58 146.662 124.987 147.515 125.8C148.369 126.613 148.795 127.833 148.795 129.46V135.5C148.795 135.633 148.749 135.753 148.655 135.86C148.562 135.953 148.442 136 148.295 136H142.855C142.709 136 142.582 135.953 142.475 135.86C142.382 135.767 142.335 135.647 142.335 135.5V133.78C142.335 133.633 142.382 133.513 142.475 133.42C142.582 133.327 142.709 133.28 142.855 133.28H145.415V129.62C145.415 128.927 145.249 128.387 144.915 128C144.582 127.613 144.149 127.42 143.615 127.42H142.075L140.355 135.48C140.355 135.627 140.302 135.753 140.195 135.86C140.102 135.953 139.982 136 139.835 136H137.535C137.389 136 137.262 135.953 137.155 135.86C137.062 135.753 137.029 135.627 137.055 135.48L139.035 127.44H137.695C137.549 127.44 137.429 127.393 137.335 127.3C137.242 127.193 137.195 127.067 137.195 126.92V125.08C137.195 124.933 137.242 124.813 137.335 124.72C137.442 124.627 137.562 124.58 137.695 124.58H144.135ZM71.8628 148.58C73.5961 148.58 74.8361 149 75.5828 149.84C76.3428 150.667 76.7228 151.92 76.7228 153.6C76.7228 155.293 76.2228 156.68 75.2228 157.76C74.2228 158.84 72.9695 159.593 71.4628 160.02L70.6628 160.26C70.5295 160.287 70.4028 160.24 70.2828 160.12C70.1761 160.013 70.1228 159.88 70.1228 159.72V157.7C70.1228 157.567 70.1695 157.447 70.2628 157.34C70.3561 157.22 70.4761 157.127 70.6228 157.06L71.2628 156.8C71.8761 156.56 72.3561 156.207 72.7028 155.74C73.0628 155.26 73.2428 154.58 73.2428 153.7C73.2428 152.86 73.0895 152.273 72.7828 151.94C72.4895 151.607 71.9495 151.44 71.1628 151.44H70.7028H70.6428L67.9628 151.42C67.8161 151.42 67.6961 151.373 67.6028 151.28C67.5095 151.187 67.4628 151.067 67.4628 150.92V146.3C67.4628 146.153 67.5095 146.033 67.6028 145.94C67.7095 145.847 67.8295 145.8 67.9628 145.8H70.1228C70.2695 145.8 70.3895 145.847 70.4828 145.94C70.5761 146.033 70.6228 146.153 70.6228 146.3V148.58H71.4628H71.8628ZM81.4455 150.68C81.4321 150.853 81.3721 150.993 81.2655 151.1C81.1588 151.193 81.0321 151.24 80.8855 151.24H79.3255C79.1788 151.24 79.0521 151.193 78.9455 151.1C78.8388 150.993 78.7788 150.853 78.7655 150.68L78.3255 146.52C78.2988 146.307 78.3321 146.133 78.4255 146C78.5188 145.867 78.6655 145.8 78.8655 145.8H81.3455C81.5455 145.8 81.6921 145.867 81.7855 146C81.8788 146.133 81.9121 146.307 81.8855 146.52L81.4455 150.68ZM86.0055 150.68C85.9921 150.853 85.9321 150.993 85.8255 151.1C85.7188 151.193 85.5921 151.24 85.4455 151.24H83.8855C83.7388 151.24 83.6121 151.193 83.5055 151.1C83.3988 150.993 83.3388 150.853 83.3255 150.68L82.8855 146.52C82.8588 146.307 82.8921 146.133 82.9855 146C83.0788 145.867 83.2255 145.8 83.4255 145.8H85.9055C86.1055 145.8 86.2521 145.867 86.3455 146C86.4388 146.133 86.4721 146.307 86.4455 146.52L86.0055 150.68ZM96.2911 160C96.1444 160 96.0178 159.953 95.9111 159.86C95.8178 159.767 95.7711 159.647 95.7711 159.5V153.58C95.7711 152.06 95.0178 151.3 93.5111 151.3H88.9511C88.8178 151.3 88.6978 151.253 88.5911 151.16C88.4978 151.053 88.4511 150.933 88.4511 150.8V149.08C88.4511 148.933 88.4978 148.813 88.5911 148.72C88.6978 148.627 88.8178 148.58 88.9511 148.58H93.6111C95.4511 148.58 96.8311 148.987 97.7511 149.8C98.6844 150.613 99.1511 151.88 99.1511 153.6V159.5C99.1511 159.633 99.1044 159.753 99.0111 159.86C98.9178 159.953 98.7978 160 98.6511 160H96.2911ZM88.9511 160C88.8178 160 88.6978 159.953 88.5911 159.86C88.4978 159.753 88.4511 159.633 88.4511 159.5V153.66C88.4511 153.513 88.4978 153.393 88.5911 153.3C88.6978 153.207 88.8178 153.16 88.9511 153.16H91.3311C91.4778 153.16 91.5978 153.207 91.6911 153.3C91.7844 153.393 91.8311 153.513 91.8311 153.66V159.5C91.8311 159.633 91.7844 159.753 91.6911 159.86C91.5978 159.953 91.4778 160 91.3311 160H88.9511ZM111.08 150.84C111.08 151.733 110.88 152.547 110.48 153.28C110.08 154.013 109.493 154.62 108.72 155.1L110.26 157.22C110.447 157.433 110.54 157.653 110.54 157.88V159.5C110.54 159.633 110.493 159.753 110.4 159.86C110.307 159.953 110.187 160 110.04 160H101.92C101.787 160 101.667 159.953 101.56 159.86C101.467 159.753 101.42 159.633 101.42 159.5V157.72C101.42 157.573 101.467 157.453 101.56 157.36C101.667 157.267 101.787 157.22 101.92 157.22H106.6L100.8 149.3C100.72 149.167 100.68 149.06 100.68 148.98C100.68 148.86 100.72 148.767 100.8 148.7C100.893 148.62 101 148.58 101.12 148.58H103.6C103.867 148.58 104.08 148.7 104.24 148.94L107.04 152.8C107.667 152.253 107.98 151.4 107.98 150.24V149.12C107.98 148.96 108.027 148.833 108.12 148.74C108.213 148.633 108.333 148.58 108.48 148.58H110.58C110.713 148.58 110.827 148.633 110.92 148.74C111.027 148.847 111.08 148.973 111.08 149.12V150.84ZM113.337 160C113.203 160 113.083 159.953 112.977 159.86C112.883 159.753 112.837 159.633 112.837 159.5V157.78C112.837 157.633 112.883 157.513 112.977 157.42C113.083 157.327 113.203 157.28 113.337 157.28H118.357V153.58C118.357 152.073 117.603 151.32 116.097 151.32H113.537C113.39 151.32 113.27 151.273 113.177 151.18C113.083 151.073 113.037 150.947 113.037 150.8V149.08C113.037 148.933 113.083 148.813 113.177 148.72C113.283 148.627 113.403 148.58 113.537 148.58H116.197C118.063 148.58 119.47 148.973 120.417 149.76C121.377 150.547 121.857 151.82 121.857 153.58V157.28H122.557C122.703 157.28 122.823 157.327 122.917 157.42C123.01 157.513 123.057 157.633 123.057 157.78V159.5C123.057 159.633 123.01 159.753 122.917 159.86C122.823 159.953 122.703 160 122.557 160H113.337Z" fill="#2A5470"/>
</svg>
