<svg width="195" height="195" viewBox="0 0 195 195" fill="none" xmlns="http://www.w3.org/2000/svg">
<circle cx="97.5" cy="97.5" r="97.5" fill="#A6DDFF"/>
<path d="M43.0349 66.26C42.9016 66.26 42.7816 66.2133 42.6749 66.12C42.5816 66.0133 42.5349 65.8933 42.5349 65.76V60.08C42.5349 59.9333 42.5816 59.8133 42.6749 59.72C42.7816 59.6267 42.9016 59.58 43.0349 59.58H45.5349C45.6816 59.58 45.8016 59.6267 45.8949 59.72C46.0016 59.8133 46.0549 59.9333 46.0549 60.08V65.76C46.0549 65.9067 46.0016 66.0267 45.8949 66.12C45.8016 66.2133 45.6816 66.26 45.5349 66.26H43.0349ZM52.2376 59.58C53.9709 59.58 55.2109 60 55.9576 60.84C56.7176 61.6667 57.0976 62.92 57.0976 64.6C57.0976 66.2933 56.5976 67.68 55.5976 68.76C54.5976 69.84 53.3442 70.5933 51.8376 71.02L51.0376 71.26C50.9042 71.2867 50.7776 71.24 50.6576 71.12C50.5509 71.0133 50.4976 70.88 50.4976 70.72V68.7C50.4976 68.5667 50.5442 68.4467 50.6376 68.34C50.7309 68.22 50.8509 68.1267 50.9976 68.06L51.6376 67.8C52.2509 67.56 52.7309 67.2067 53.0776 66.74C53.4376 66.26 53.6176 65.58 53.6176 64.7C53.6176 63.86 53.4642 63.2733 53.1576 62.94C52.8642 62.6067 52.3242 62.44 51.5376 62.44H51.0776H51.0176L48.3376 62.42C48.1909 62.42 48.0709 62.3733 47.9776 62.28C47.8842 62.1867 47.8376 62.0667 47.8376 61.92V57.3C47.8376 57.1533 47.8842 57.0333 47.9776 56.94C48.0842 56.8467 48.2042 56.8 48.3376 56.8H50.4976C50.6442 56.8 50.7642 56.8467 50.8576 56.94C50.9509 57.0333 50.9976 57.1533 50.9976 57.3V59.58H51.8376H52.2376ZM67.0802 70.5C67.0935 70.6333 67.0469 70.7533 66.9402 70.86C66.8469 70.9533 66.7202 71 66.5602 71H64.0602C63.9269 71 63.8135 70.9533 63.7202 70.86C63.6269 70.7667 63.5735 70.6467 63.5602 70.5L63.2602 69.04C62.9402 69.4267 62.5602 69.7467 62.1202 70C61.5869 70.32 61.1002 70.5733 60.6602 70.76C60.2202 70.9333 59.7669 71.0667 59.3002 71.16L59.1602 71.18C58.9335 71.18 58.8202 71.0733 58.8202 70.86V68.7C58.8202 68.4733 58.9602 68.3067 59.2402 68.2C59.3335 68.16 59.6402 68.0667 60.1602 67.92C60.6802 67.76 61.0935 67.6 61.4002 67.44C61.8935 67.2 62.3402 66.84 62.7402 66.36L62.3602 64.5C62.1869 63.6867 61.9735 63.12 61.7202 62.8C61.4669 62.4667 61.0535 62.3 60.4802 62.3H59.7802C59.6469 62.3 59.5269 62.2533 59.4202 62.16C59.3269 62.0533 59.2802 61.9333 59.2802 61.8V59.96C59.2802 59.8133 59.3269 59.6933 59.4202 59.6C59.5135 59.4933 59.6335 59.44 59.7802 59.44H60.5602C61.6802 59.44 62.5802 59.6133 63.2602 59.96C63.9535 60.2933 64.5002 60.8133 64.9002 61.52C65.3002 62.2267 65.6202 63.1867 65.8602 64.4L67.0802 70.5ZM73.7943 71.2C71.9809 71.2 70.6209 70.7667 69.7143 69.9C68.8076 69.02 68.3543 67.78 68.3543 66.18V60.08C68.3543 59.9333 68.4009 59.8133 68.4943 59.72C68.6009 59.6267 68.7209 59.58 68.8543 59.58H73.9743C75.8809 59.58 77.2476 59.9867 78.0743 60.8C78.9143 61.6133 79.3743 62.8133 79.4543 64.4C79.4676 64.5333 79.4743 64.8467 79.4743 65.34C79.4743 65.8467 79.4676 66.1667 79.4543 66.3C79.3876 67.9 78.9143 69.12 78.0343 69.96C77.1676 70.7867 75.7543 71.2 73.7943 71.2ZM73.7743 68.34C74.6809 68.34 75.3076 68.18 75.6543 67.86C76.0143 67.5267 76.2076 66.9733 76.2343 66.2C76.2476 66.0667 76.2543 65.78 76.2543 65.34C76.2543 64.9133 76.2476 64.6333 76.2343 64.5C76.2076 63.7533 76.0076 63.2 75.6343 62.84C75.2609 62.48 74.6743 62.3 73.8743 62.3H71.4543V66.12C71.4543 67.6 72.2276 68.34 73.7743 68.34ZM86.2204 73.48C86.087 73.48 85.967 73.4333 85.8604 73.34C85.767 73.2467 85.7204 73.1267 85.7204 72.98V60.08C85.7204 59.9333 85.767 59.8133 85.8604 59.72C85.967 59.6267 86.087 59.58 86.2204 59.58H88.6004C88.747 59.58 88.867 59.6267 88.9604 59.72C89.0537 59.8133 89.1004 59.9333 89.1004 60.08V72.98C89.1004 73.1267 89.0537 73.2467 88.9604 73.34C88.867 73.4333 88.747 73.48 88.6004 73.48H86.2204ZM91.9021 66.26C91.7688 66.26 91.6488 66.2133 91.5421 66.12C91.4488 66.0133 91.4021 65.8933 91.4021 65.76V60.08C91.4021 59.9333 91.4488 59.8133 91.5421 59.72C91.6488 59.6267 91.7688 59.58 91.9021 59.58H94.4021C94.5488 59.58 94.6688 59.6267 94.7621 59.72C94.8688 59.8133 94.9221 59.9333 94.9221 60.08V65.76C94.9221 65.9067 94.8688 66.0267 94.7621 66.12C94.6688 66.2133 94.5488 66.26 94.4021 66.26H91.9021ZM97.3247 71C97.1914 71 97.0714 70.9533 96.9647 70.86C96.8714 70.7533 96.8247 70.6333 96.8247 70.5V68.78C96.8247 68.6333 96.8714 68.5133 96.9647 68.42C97.0714 68.3267 97.1914 68.28 97.3247 68.28H102.345V64.58C102.345 63.0733 101.591 62.32 100.085 62.32H97.5247C97.3781 62.32 97.2581 62.2733 97.1647 62.18C97.0714 62.0733 97.0247 61.9467 97.0247 61.8V60.08C97.0247 59.9333 97.0714 59.8133 97.1647 59.72C97.2714 59.6267 97.3914 59.58 97.5247 59.58H100.185C102.051 59.58 103.458 59.9733 104.405 60.76C105.365 61.5467 105.845 62.82 105.845 64.58V68.28H106.545C106.691 68.28 106.811 68.3267 106.905 68.42C106.998 68.5133 107.045 68.6333 107.045 68.78V70.5C107.045 70.6333 106.998 70.7533 106.905 70.86C106.811 70.9533 106.691 71 106.545 71H97.3247ZM117.976 64.58C117.976 63.06 117.223 62.3 115.716 62.3H112.536C112.403 62.3 112.283 62.2533 112.176 62.16C112.083 62.0533 112.036 61.9333 112.036 61.8V60.08C112.036 59.9333 112.083 59.8133 112.176 59.72C112.283 59.6267 112.403 59.58 112.536 59.58H115.836C117.703 59.58 119.09 59.96 119.996 60.72C120.903 61.4667 121.356 62.7133 121.356 64.46V72.98C121.356 73.1267 121.31 73.2467 121.216 73.34C121.123 73.4333 121.003 73.48 120.856 73.48H118.496C118.35 73.48 118.223 73.4333 118.116 73.34C118.023 73.2467 117.976 73.1267 117.976 72.98V64.58ZM124.111 71C123.978 71 123.858 70.9533 123.751 70.86C123.658 70.7533 123.611 70.6333 123.611 70.5V60.08C123.611 59.9333 123.658 59.8133 123.751 59.72C123.858 59.6267 123.978 59.58 124.111 59.58H126.611C126.758 59.58 126.878 59.6267 126.971 59.72C127.078 59.8133 127.131 59.9333 127.131 60.08V70.5C127.131 70.6467 127.078 70.7667 126.971 70.86C126.878 70.9533 126.758 71 126.611 71H124.111ZM129.99 71C129.857 71 129.737 70.9533 129.63 70.86C129.537 70.7533 129.49 70.6333 129.49 70.5V60.08C129.49 59.9333 129.537 59.8133 129.63 59.72C129.737 59.6267 129.857 59.58 129.99 59.58H132.49C132.637 59.58 132.757 59.6267 132.85 59.72C132.957 59.8133 133.01 59.9333 133.01 60.08V70.5C133.01 70.6467 132.957 70.7667 132.85 70.86C132.757 70.9533 132.637 71 132.49 71H129.99ZM135.789 66.26C135.655 66.26 135.535 66.2133 135.429 66.12C135.335 66.0133 135.289 65.8933 135.289 65.76V60.08C135.289 59.9333 135.335 59.8133 135.429 59.72C135.535 59.6267 135.655 59.58 135.789 59.58H138.289C138.435 59.58 138.555 59.6267 138.649 59.72C138.755 59.8133 138.809 59.9333 138.809 60.08V65.76C138.809 65.9067 138.755 66.0267 138.649 66.12C138.555 66.2133 138.435 66.26 138.289 66.26H135.789ZM147.591 59.58C149.418 59.58 150.791 59.98 151.711 60.78C152.645 61.5667 153.111 62.8 153.111 64.48V70.5C153.111 70.6333 153.065 70.7533 152.971 70.86C152.878 70.9533 152.758 71 152.611 71H150.231C150.085 71 149.965 70.9533 149.871 70.86C149.778 70.7667 149.731 70.6467 149.731 70.5V64.58C149.731 63.06 148.978 62.3 147.471 62.3H146.171C146.051 62.7533 145.965 63.2067 145.911 63.66C145.871 64.1133 145.851 64.64 145.851 65.24L146.011 70.5C146.011 70.6333 145.965 70.7533 145.871 70.86C145.778 70.9533 145.658 71 145.511 71L141.251 70.98C141.118 70.98 140.998 70.9333 140.891 70.84C140.798 70.7333 140.751 70.6133 140.751 70.48V68.9C140.751 68.7533 140.798 68.6333 140.891 68.54C140.998 68.4467 141.118 68.4 141.251 68.4H142.871V65.26C142.871 64.14 142.978 63.1533 143.191 62.3H141.991C141.858 62.3 141.738 62.2533 141.631 62.16C141.538 62.0533 141.491 61.9333 141.491 61.8V60.08C141.491 59.9333 141.538 59.8133 141.631 59.72C141.738 59.6267 141.858 59.58 141.991 59.58H147.591ZM42.3337 95C42.2003 95 42.0803 94.9533 41.9737 94.86C41.8803 94.7533 41.8337 94.6333 41.8337 94.5V84.08C41.8337 83.9333 41.8803 83.8133 41.9737 83.72C42.0803 83.6267 42.2003 83.58 42.3337 83.58H47.0737C48.9537 83.58 50.347 83.9733 51.2537 84.76C52.1603 85.5333 52.6137 86.8133 52.6137 88.6V94.5C52.6137 94.6333 52.567 94.7533 52.4737 94.86C52.3803 94.9533 52.2603 95 52.1137 95H49.7337C49.587 95 49.467 94.9533 49.3737 94.86C49.2803 94.7667 49.2337 94.6467 49.2337 94.5V88.58C49.2337 87.06 48.4803 86.3 46.9737 86.3H45.2137V94.5C45.2137 94.6333 45.167 94.7533 45.0737 94.86C44.9803 94.9533 44.8603 95 44.7137 95H42.3337ZM60.3605 95.2C58.4939 95.2 57.0939 94.7667 56.1605 93.9C55.2405 93.0333 54.7805 91.8067 54.7805 90.22V84.08C54.7805 83.9333 54.8272 83.8133 54.9205 83.72C55.0272 83.6267 55.1472 83.58 55.2805 83.58H57.3805C57.5272 83.58 57.6472 83.6267 57.7405 83.72C57.8339 83.8133 57.8805 83.9333 57.8805 84.08V90.12C57.8805 90.8667 58.0939 91.4267 58.5205 91.8C58.9605 92.16 59.5672 92.34 60.3405 92.34C61.8472 92.34 62.6072 91.6267 62.6205 90.2V88.7C62.6072 87.94 62.4739 87.36 62.2205 86.96C61.9805 86.5467 61.6339 86.34 61.1805 86.34C60.9939 86.34 60.7939 86.3667 60.5805 86.42C60.3805 86.4733 60.2139 86.54 60.0805 86.62C60.0005 86.6467 59.9405 86.66 59.9005 86.66C59.7805 86.66 59.6739 86.62 59.5805 86.54C59.5005 86.4467 59.4605 86.3333 59.4605 86.2V84.62C59.4605 84.2733 59.5872 84.0267 59.8405 83.88C60.0539 83.76 60.3072 83.6667 60.6005 83.6C60.8939 83.5333 61.2872 83.5 61.7805 83.5C63.2339 83.5 64.2805 83.8867 64.9205 84.66C65.5605 85.42 65.8872 86.6 65.9005 88.2V89.66V90.3C65.7539 93.5667 63.9072 95.2 60.3605 95.2ZM80.5679 83.58C80.7145 83.58 80.8345 83.6267 80.9279 83.72C81.0212 83.8133 81.0679 83.9333 81.0679 84.08V89.32C81.0679 90.4933 80.8012 91.5267 80.2679 92.42C79.7345 93.3 79.0079 93.98 78.0879 94.46C77.1679 94.94 76.1412 95.1733 75.0079 95.16H73.1079C72.0412 95.16 71.1079 94.9533 70.3079 94.54C69.5079 94.1267 68.8945 93.5667 68.4679 92.86C68.0545 92.1533 67.8479 91.3733 67.8479 90.52V84.08C67.8479 83.9333 67.8945 83.8133 67.9879 83.72C68.0945 83.6267 68.2145 83.58 68.3479 83.58H70.4479C70.5945 83.58 70.7145 83.6267 70.8079 83.72C70.9145 83.8133 70.9679 83.9333 70.9679 84.08L70.9879 88.88C71.7079 88.8133 72.2145 88.54 72.5079 88.06C72.8012 87.5667 72.9479 86.8667 72.9479 85.96V84.12C72.9479 83.96 72.9945 83.8333 73.0879 83.74C73.1812 83.6333 73.3012 83.58 73.4479 83.58H75.5479C75.6812 83.58 75.7945 83.6333 75.8879 83.74C75.9945 83.8467 76.0479 83.9733 76.0479 84.12V86C76.0479 87.52 75.6545 88.72 74.8679 89.6C74.0812 90.48 72.9679 90.9933 71.5279 91.14C71.7812 91.5667 72.1079 91.8933 72.5079 92.12C72.9212 92.3467 73.3879 92.46 73.9079 92.46H74.3879C75.0679 92.46 75.6745 92.32 76.2079 92.04C76.7545 91.76 77.1812 91.3733 77.4879 90.88C77.7945 90.3867 77.9479 89.8333 77.9479 89.22V84.08C77.9479 83.9333 77.9945 83.8133 78.0879 83.72C78.1945 83.6267 78.3212 83.58 78.4679 83.58H80.5679ZM83.3599 95C83.2266 95 83.1066 94.9533 82.9999 94.86C82.9066 94.7533 82.8599 94.6333 82.8599 94.5V92.78C82.8599 92.6333 82.9066 92.5133 82.9999 92.42C83.1066 92.3267 83.2266 92.28 83.3599 92.28H88.3799V88.58C88.3799 87.0733 87.6266 86.32 86.1199 86.32H83.5599C83.4132 86.32 83.2932 86.2733 83.1999 86.18C83.1066 86.0733 83.0599 85.9467 83.0599 85.8V84.08C83.0599 83.9333 83.1066 83.8133 83.1999 83.72C83.3066 83.6267 83.4266 83.58 83.5599 83.58H86.2199C88.0866 83.58 89.4932 83.9733 90.4399 84.76C91.3999 85.5467 91.8799 86.82 91.8799 88.58V92.28H92.5799C92.7266 92.28 92.8466 92.3267 92.9399 92.42C93.0332 92.5133 93.0799 92.6333 93.0799 92.78V94.5C93.0799 94.6333 93.0332 94.7533 92.9399 94.86C92.8466 94.9533 92.7266 95 92.5799 95H83.3599ZM104.011 88.58C104.011 87.06 103.258 86.3 101.751 86.3H98.5715C98.4381 86.3 98.3181 86.2533 98.2115 86.16C98.1181 86.0533 98.0715 85.9333 98.0715 85.8V84.08C98.0715 83.9333 98.1181 83.8133 98.2115 83.72C98.3181 83.6267 98.4381 83.58 98.5715 83.58H101.871C103.738 83.58 105.125 83.96 106.031 84.72C106.938 85.4667 107.391 86.7133 107.391 88.46V96.98C107.391 97.1267 107.345 97.2467 107.251 97.34C107.158 97.4333 107.038 97.48 106.891 97.48H104.531C104.385 97.48 104.258 97.4333 104.151 97.34C104.058 97.2467 104.011 97.1267 104.011 96.98V88.58ZM110.146 95C110.013 95 109.893 94.9533 109.786 94.86C109.693 94.7533 109.646 94.6333 109.646 94.5V84.08C109.646 83.9333 109.693 83.8133 109.786 83.72C109.893 83.6267 110.013 83.58 110.146 83.58H112.646C112.793 83.58 112.913 83.6267 113.006 83.72C113.113 83.8133 113.166 83.9333 113.166 84.08V94.5C113.166 94.6467 113.113 94.7667 113.006 94.86C112.913 94.9533 112.793 95 112.646 95H110.146ZM122.545 94.5C122.545 94.6467 122.492 94.7667 122.385 94.86C122.292 94.9533 122.172 95 122.025 95H119.525H115.585C115.452 95 115.332 94.9533 115.225 94.86C115.132 94.7533 115.085 94.6333 115.085 94.5V92.78C115.085 92.6333 115.132 92.5133 115.225 92.42C115.332 92.3267 115.452 92.28 115.585 92.28H118.925L118.745 88.34C118.718 87.5667 118.592 87.0067 118.365 86.66C118.138 86.3133 117.718 86.14 117.105 86.14H116.085C115.952 86.14 115.832 86.0933 115.725 86C115.632 85.8933 115.585 85.7733 115.585 85.64V83.96C115.585 83.8133 115.632 83.6933 115.725 83.6C115.818 83.4933 115.938 83.44 116.085 83.44H117.185C118.932 83.44 120.198 83.8333 120.985 84.62C121.772 85.4067 122.198 86.6667 122.265 88.4L122.545 94.5ZM124.832 90.26C124.698 90.26 124.578 90.2133 124.472 90.12C124.378 90.0133 124.332 89.8933 124.332 89.76V84.08C124.332 83.9333 124.378 83.8133 124.472 83.72C124.578 83.6267 124.698 83.58 124.832 83.58H127.332C127.478 83.58 127.598 83.6267 127.692 83.72C127.798 83.8133 127.852 83.9333 127.852 84.08V89.76C127.852 89.9067 127.798 90.0267 127.692 90.12C127.598 90.2133 127.478 90.26 127.332 90.26H124.832ZM130.634 95C130.501 95 130.381 94.9533 130.274 94.86C130.181 94.7533 130.134 94.6333 130.134 94.5V84.08C130.134 83.9333 130.181 83.8133 130.274 83.72C130.381 83.6267 130.501 83.58 130.634 83.58H135.374C137.254 83.58 138.648 83.9733 139.554 84.76C140.461 85.5333 140.914 86.8133 140.914 88.6V94.5C140.914 94.6333 140.868 94.7533 140.774 94.86C140.681 94.9533 140.561 95 140.414 95H138.034C137.888 95 137.768 94.9533 137.674 94.86C137.581 94.7667 137.534 94.6467 137.534 94.5V88.58C137.534 87.06 136.781 86.3 135.274 86.3H133.514V94.5C133.514 94.6333 133.468 94.7533 133.374 94.86C133.281 94.9533 133.161 95 133.014 95H130.634ZM151.021 95C150.875 95 150.748 94.9533 150.641 94.86C150.548 94.7667 150.501 94.6467 150.501 94.5V88.58C150.501 87.06 149.748 86.3 148.241 86.3H143.681C143.548 86.3 143.428 86.2533 143.321 86.16C143.228 86.0533 143.181 85.9333 143.181 85.8V84.08C143.181 83.9333 143.228 83.8133 143.321 83.72C143.428 83.6267 143.548 83.58 143.681 83.58H148.341C150.181 83.58 151.561 83.9867 152.481 84.8C153.415 85.6133 153.881 86.88 153.881 88.6V94.5C153.881 94.6333 153.835 94.7533 153.741 94.86C153.648 94.9533 153.528 95 153.381 95H151.021ZM143.681 95C143.548 95 143.428 94.9533 143.321 94.86C143.228 94.7533 143.181 94.6333 143.181 94.5V88.66C143.181 88.5133 143.228 88.3933 143.321 88.3C143.428 88.2067 143.548 88.16 143.681 88.16H146.061C146.208 88.16 146.328 88.2067 146.421 88.3C146.515 88.3933 146.561 88.5133 146.561 88.66V94.5C146.561 94.6333 146.515 94.7533 146.421 94.86C146.328 94.9533 146.208 95 146.061 95H143.681ZM82.9001 121.48C82.7667 121.48 82.6467 121.433 82.5401 121.34C82.4467 121.247 82.4001 121.127 82.4001 120.98V108.08C82.4001 107.933 82.4467 107.813 82.5401 107.72C82.6467 107.627 82.7667 107.58 82.9001 107.58H85.2801C85.4267 107.58 85.5467 107.627 85.6401 107.72C85.7334 107.813 85.7801 107.933 85.7801 108.08V120.98C85.7801 121.127 85.7334 121.247 85.6401 121.34C85.5467 121.433 85.4267 121.48 85.2801 121.48H82.9001ZM88.5818 114.26C88.4484 114.26 88.3284 114.213 88.2218 114.12C88.1284 114.013 88.0818 113.893 88.0818 113.76V108.08C88.0818 107.933 88.1284 107.813 88.2218 107.72C88.3284 107.627 88.4484 107.58 88.5818 107.58H91.0818C91.2284 107.58 91.3484 107.627 91.4418 107.72C91.5484 107.813 91.6018 107.933 91.6018 108.08V113.76C91.6018 113.907 91.5484 114.027 91.4418 114.12C91.3484 114.213 91.2284 114.26 91.0818 114.26H88.5818ZM94.0044 119C93.8711 119 93.7511 118.953 93.6444 118.86C93.5511 118.753 93.5044 118.633 93.5044 118.5V116.78C93.5044 116.633 93.5511 116.513 93.6444 116.42C93.7511 116.327 93.8711 116.28 94.0044 116.28H99.0244V112.58C99.0244 111.073 98.2711 110.32 96.7644 110.32H94.2044C94.0578 110.32 93.9378 110.273 93.8444 110.18C93.7511 110.073 93.7044 109.947 93.7044 109.8V108.08C93.7044 107.933 93.7511 107.813 93.8444 107.72C93.9511 107.627 94.0711 107.58 94.2044 107.58H96.8644C98.7311 107.58 100.138 107.973 101.084 108.76C102.044 109.547 102.524 110.82 102.524 112.58V116.28H103.224C103.371 116.28 103.491 116.327 103.584 116.42C103.678 116.513 103.724 116.633 103.724 116.78V118.5C103.724 118.633 103.678 118.753 103.584 118.86C103.491 118.953 103.371 119 103.224 119H94.0044ZM108.761 107.58C110.494 107.58 111.734 108 112.481 108.84C113.241 109.667 113.621 110.92 113.621 112.6C113.621 114.293 113.121 115.68 112.121 116.76C111.121 117.84 109.868 118.593 108.361 119.02L107.561 119.26C107.428 119.287 107.301 119.24 107.181 119.12C107.074 119.013 107.021 118.88 107.021 118.72V116.7C107.021 116.567 107.068 116.447 107.161 116.34C107.254 116.22 107.374 116.127 107.521 116.06L108.161 115.8C108.774 115.56 109.254 115.207 109.601 114.74C109.961 114.26 110.141 113.58 110.141 112.7C110.141 111.86 109.988 111.273 109.681 110.94C109.388 110.607 108.848 110.44 108.061 110.44H107.601H107.541L104.861 110.42C104.714 110.42 104.594 110.373 104.501 110.28C104.408 110.187 104.361 110.067 104.361 109.92V105.3C104.361 105.153 104.408 105.033 104.501 104.94C104.608 104.847 104.728 104.8 104.861 104.8H107.021C107.168 104.8 107.288 104.847 107.381 104.94C107.474 105.033 107.521 105.153 107.521 105.3V107.58H108.361H108.761ZM57.9615 142.46C57.9615 142.607 57.9082 142.733 57.8015 142.84C57.6949 142.947 57.5682 143 57.4215 143H54.8015C54.6549 143 54.5282 142.947 54.4215 142.84C54.3149 142.733 54.2615 142.607 54.2615 142.46V139.84C54.2615 139.693 54.3149 139.567 54.4215 139.46C54.5282 139.353 54.6549 139.3 54.8015 139.3H57.4215C57.5682 139.3 57.6949 139.353 57.8015 139.46C57.9082 139.567 57.9615 139.693 57.9615 139.84V142.46ZM66.6637 131.58C68.4904 131.58 69.8637 131.98 70.7837 132.78C71.7171 133.567 72.1837 134.8 72.1837 136.48V142.5C72.1837 142.633 72.1371 142.753 72.0437 142.86C71.9504 142.953 71.8304 143 71.6837 143H69.3037C69.1571 143 69.0371 142.953 68.9437 142.86C68.8504 142.767 68.8037 142.647 68.8037 142.5V136.58C68.8037 135.06 68.0504 134.3 66.5437 134.3H65.2437C65.1237 134.753 65.0371 135.207 64.9837 135.66C64.9437 136.113 64.9237 136.64 64.9237 137.24L65.0837 142.5C65.0837 142.633 65.0371 142.753 64.9437 142.86C64.8504 142.953 64.7304 143 64.5837 143L60.3237 142.98C60.1904 142.98 60.0704 142.933 59.9637 142.84C59.8704 142.733 59.8237 142.613 59.8237 142.48V140.9C59.8237 140.753 59.8704 140.633 59.9637 140.54C60.0704 140.447 60.1904 140.4 60.3237 140.4H61.9437V137.26C61.9437 136.14 62.0504 135.153 62.2637 134.3H61.0637C60.9304 134.3 60.8104 134.253 60.7037 134.16C60.6104 134.053 60.5637 133.933 60.5637 133.8V132.08C60.5637 131.933 60.6104 131.813 60.7037 131.72C60.8104 131.627 60.9304 131.58 61.0637 131.58H66.6637ZM74.9411 143C74.8077 143 74.6877 142.953 74.5811 142.86C74.4877 142.753 74.4411 142.633 74.4411 142.5V132.08C74.4411 131.933 74.4877 131.813 74.5811 131.72C74.6877 131.627 74.8077 131.58 74.9411 131.58H77.4411C77.5877 131.58 77.7077 131.627 77.8011 131.72C77.9077 131.813 77.9611 131.933 77.9611 132.08V142.5C77.9611 142.647 77.9077 142.767 77.8011 142.86C77.7077 142.953 77.5877 143 77.4411 143H74.9411ZM86.26 143C86.1133 143 85.9866 142.953 85.88 142.86C85.7866 142.767 85.74 142.647 85.74 142.5V136.58C85.74 135.06 84.9866 134.3 83.48 134.3H80.44C80.3066 134.3 80.1866 134.253 80.08 134.16C79.9866 134.053 79.94 133.933 79.94 133.8V132.08C79.94 131.933 79.9866 131.813 80.08 131.72C80.1866 131.627 80.3066 131.58 80.44 131.58H83.6C85.4533 131.58 86.8333 131.96 87.74 132.72C88.66 133.48 89.12 134.727 89.12 136.46V142.5C89.12 142.633 89.0733 142.753 88.98 142.86C88.8866 142.953 88.7666 143 88.62 143H86.26ZM104.035 131.58C104.181 131.58 104.301 131.627 104.395 131.72C104.488 131.813 104.535 131.933 104.535 132.08V137.32C104.535 138.493 104.268 139.527 103.735 140.42C103.201 141.3 102.475 141.98 101.555 142.46C100.635 142.94 99.608 143.173 98.4747 143.16H96.5747C95.508 143.16 94.5747 142.953 93.7747 142.54C92.9747 142.127 92.3613 141.567 91.9347 140.86C91.5213 140.153 91.3147 139.373 91.3147 138.52V132.08C91.3147 131.933 91.3613 131.813 91.4547 131.72C91.5613 131.627 91.6813 131.58 91.8147 131.58H93.9147C94.0613 131.58 94.1813 131.627 94.2747 131.72C94.3813 131.813 94.4347 131.933 94.4347 132.08L94.4547 136.88C95.1747 136.813 95.6813 136.54 95.9747 136.06C96.268 135.567 96.4147 134.867 96.4147 133.96V132.12C96.4147 131.96 96.4613 131.833 96.5547 131.74C96.648 131.633 96.768 131.58 96.9147 131.58H99.0147C99.148 131.58 99.2613 131.633 99.3547 131.74C99.4613 131.847 99.5147 131.973 99.5147 132.12V134C99.5147 135.52 99.1213 136.72 98.3347 137.6C97.548 138.48 96.4347 138.993 94.9947 139.14C95.248 139.567 95.5747 139.893 95.9747 140.12C96.388 140.347 96.8547 140.46 97.3747 140.46H97.8547C98.5347 140.46 99.1413 140.32 99.6747 140.04C100.221 139.76 100.648 139.373 100.955 138.88C101.261 138.387 101.415 137.833 101.415 137.22V132.08C101.415 131.933 101.461 131.813 101.555 131.72C101.661 131.627 101.788 131.58 101.935 131.58H104.035ZM107.087 143C106.953 143 106.833 142.953 106.727 142.86C106.633 142.753 106.587 142.633 106.587 142.5V140.66C106.587 140.513 106.633 140.393 106.727 140.3C106.82 140.193 106.94 140.14 107.087 140.14H110.007C110.767 140.14 111.347 139.947 111.747 139.56C112.147 139.173 112.36 138.613 112.387 137.88C112.4 137.72 112.407 137.52 112.407 137.28C112.407 137.053 112.4 136.86 112.387 136.7C112.36 135.967 112.147 135.407 111.747 135.02C111.347 134.633 110.767 134.44 110.007 134.44H107.087C106.94 134.44 106.82 134.393 106.727 134.3C106.633 134.193 106.587 134.067 106.587 133.92V132.08C106.587 131.933 106.633 131.813 106.727 131.72C106.833 131.627 106.953 131.58 107.087 131.58H110.107C113.64 131.58 115.487 133.293 115.647 136.72C115.66 136.867 115.667 137.053 115.667 137.28C115.667 139.093 115.227 140.5 114.347 141.5C113.48 142.5 112.067 143 110.107 143H107.087ZM125.465 143C125.318 143 125.191 142.953 125.085 142.86C124.991 142.767 124.945 142.647 124.945 142.5V136.58C124.945 135.06 124.191 134.3 122.685 134.3H118.125C117.991 134.3 117.871 134.253 117.765 134.16C117.671 134.053 117.625 133.933 117.625 133.8V132.08C117.625 131.933 117.671 131.813 117.765 131.72C117.871 131.627 117.991 131.58 118.125 131.58H122.785C124.625 131.58 126.005 131.987 126.925 132.8C127.858 133.613 128.325 134.88 128.325 136.6V142.5C128.325 142.633 128.278 142.753 128.185 142.86C128.091 142.953 127.971 143 127.825 143H125.465ZM118.125 143C117.991 143 117.871 142.953 117.765 142.86C117.671 142.753 117.625 142.633 117.625 142.5V136.66C117.625 136.513 117.671 136.393 117.765 136.3C117.871 136.207 117.991 136.16 118.125 136.16H120.505C120.651 136.16 120.771 136.207 120.865 136.3C120.958 136.393 121.005 136.513 121.005 136.66V142.5C121.005 142.633 120.958 142.753 120.865 142.86C120.771 142.953 120.651 143 120.505 143H118.125ZM138.433 143C138.287 143 138.16 142.953 138.053 142.86C137.96 142.767 137.913 142.647 137.913 142.5V136.58C137.913 135.06 137.16 134.3 135.653 134.3H131.093C130.96 134.3 130.84 134.253 130.733 134.16C130.64 134.053 130.593 133.933 130.593 133.8V132.08C130.593 131.933 130.64 131.813 130.733 131.72C130.84 131.627 130.96 131.58 131.093 131.58H135.753C137.593 131.58 138.973 131.987 139.893 132.8C140.827 133.613 141.293 134.88 141.293 136.6V142.5C141.293 142.633 141.247 142.753 141.153 142.86C141.06 142.953 140.94 143 140.793 143H138.433ZM131.093 143C130.96 143 130.84 142.953 130.733 142.86C130.64 142.753 130.593 142.633 130.593 142.5V136.66C130.593 136.513 130.64 136.393 130.733 136.3C130.84 136.207 130.96 136.16 131.093 136.16H133.473C133.62 136.16 133.74 136.207 133.833 136.3C133.927 136.393 133.973 136.513 133.973 136.66V142.5C133.973 142.633 133.927 142.753 133.833 142.86C133.74 142.953 133.62 143 133.473 143H131.093Z" fill="#2A5470"/>
</svg>
