<svg width="368" height="267" viewBox="0 0 368 267" fill="none" xmlns="http://www.w3.org/2000/svg">
<g filter="url(#filter0_f_278_237)">
<rect x="30.2998" y="30.3" width="307" height="206" rx="17" fill="#D3EEFF"/>
</g>
<rect x="42.3027" y="39.3" width="283" height="186" rx="17" fill="#427494"/>
<path d="M87.978 86.2999C87.8447 86.2999 87.7313 86.2599 87.638 86.1799C87.558 86.0866 87.518 85.9733 87.518 85.8399V75.3399C87.518 75.2066 87.558 75.0999 87.638 75.0199C87.7313 74.9266 87.8447 74.8799 87.978 74.8799H91.758C93.4647 74.8799 94.7313 75.2866 95.558 76.0999C96.398 76.9133 96.818 78.1333 96.818 79.7599V85.8399C96.818 85.9733 96.7713 86.0866 96.678 86.1799C96.598 86.2599 96.4913 86.2999 96.358 86.2999H87.978ZM95.098 84.7399V79.8599C95.098 77.5666 93.958 76.4199 91.678 76.4199H89.178V84.7399H95.098ZM104.903 74.8799C108.289 74.8799 109.983 76.5066 109.983 79.7599V85.8399C109.983 85.9733 109.936 86.0866 109.843 86.1799C109.763 86.2599 109.656 86.2999 109.523 86.2999H108.683C108.549 86.2999 108.436 86.2599 108.343 86.1799C108.263 86.0866 108.223 85.9733 108.223 85.8399V79.8599C108.223 77.5666 107.083 76.4199 104.803 76.4199H103.343C103.209 77.1933 103.109 77.8666 103.043 78.4399C102.989 79.0133 102.963 79.6666 102.963 80.3999L103.003 85.8399C103.003 85.9733 102.963 86.0866 102.883 86.1799C102.803 86.2599 102.696 86.2999 102.563 86.2999L99.7827 86.2599C99.6494 86.2599 99.536 86.2199 99.4427 86.1399C99.3627 86.0466 99.3227 85.9333 99.3227 85.7999V85.1999C99.3227 85.0666 99.3627 84.9599 99.4427 84.8799C99.536 84.7866 99.6494 84.7399 99.7827 84.7399L101.303 84.7599V80.4799C101.303 79.6266 101.323 78.9133 101.363 78.3399C101.416 77.7666 101.523 77.1266 101.683 76.4199H100.623C100.489 76.4199 100.376 76.3799 100.283 76.2999C100.203 76.2199 100.163 76.1133 100.163 75.9799V75.3399C100.163 75.2066 100.203 75.0999 100.283 75.0199C100.376 74.9266 100.489 74.8799 100.623 74.8799H104.903ZM121.927 85.5199C122.02 85.6399 122.067 85.7666 122.067 85.8999C122.067 86.0066 122.027 86.0999 121.947 86.1799C121.867 86.2599 121.773 86.2999 121.667 86.2999H120.767C120.593 86.2999 120.46 86.2533 120.367 86.1599C120.273 86.0533 120.22 85.9933 120.207 85.9799L115.647 79.5599C115.073 79.9866 114.68 80.4799 114.467 81.0399C114.267 81.5999 114.167 82.2199 114.167 82.8999V85.8399C114.167 85.9733 114.12 86.0866 114.027 86.1799C113.947 86.2599 113.84 86.2999 113.707 86.2999H112.967C112.833 86.2999 112.72 86.2599 112.627 86.1799C112.547 86.0866 112.507 85.9733 112.507 85.8399V82.8199C112.507 81.8333 112.653 80.9733 112.947 80.2399C113.253 79.5066 113.847 78.8466 114.727 78.2599L112.867 75.6599C112.773 75.5133 112.727 75.3866 112.727 75.2799C112.727 75.1733 112.767 75.0799 112.847 74.9999C112.927 74.9199 113.02 74.8799 113.127 74.8799H114.007C114.22 74.8799 114.407 74.9933 114.567 75.2199L118.767 81.0799C119.247 80.7999 119.593 80.5066 119.807 80.1999C120.033 79.8933 120.173 79.5933 120.227 79.2999C120.28 78.9933 120.307 78.5999 120.307 78.1199V75.3399C120.307 75.2066 120.347 75.0999 120.427 75.0199C120.52 74.9266 120.633 74.8799 120.767 74.8799H121.547C121.68 74.8799 121.787 74.9266 121.867 75.0199C121.96 75.0999 122.007 75.2066 122.007 75.3399V78.1999C122.007 79.1199 121.853 79.8999 121.547 80.5399C121.24 81.1799 120.613 81.7799 119.667 82.3399L121.927 85.5199ZM131.186 86.2999C131.052 86.2999 130.939 86.2599 130.846 86.1799C130.766 86.0866 130.726 85.9733 130.726 85.8399V79.8599C130.726 77.5666 129.579 76.4199 127.286 76.4199H124.706C124.572 76.4199 124.459 76.3799 124.366 76.2999C124.286 76.2199 124.246 76.1133 124.246 75.9799V75.3399C124.246 75.2066 124.286 75.0999 124.366 75.0199C124.459 74.9266 124.572 74.8799 124.706 74.8799H127.406C130.792 74.8799 132.486 76.5066 132.486 79.7599V85.8399C132.486 85.9733 132.439 86.0866 132.346 86.1799C132.266 86.2599 132.159 86.2999 132.026 86.2999H131.186ZM139.747 86.4799C139.72 86.4933 139.673 86.4999 139.607 86.4999C139.513 86.4999 139.427 86.4666 139.347 86.3999C139.28 86.3333 139.247 86.2399 139.247 86.1199V85.2399C139.247 85.1333 139.287 85.0333 139.367 84.9399C139.447 84.8333 139.553 84.7533 139.687 84.6999L140.467 84.3999C141.387 84.0533 142.093 83.5533 142.587 82.8999C143.08 82.2466 143.327 81.2866 143.327 80.0199C143.327 79.1266 143.22 78.4266 143.007 77.9199C142.793 77.3999 142.44 77.0266 141.947 76.7999C141.467 76.5733 140.8 76.4599 139.947 76.4599H135.947C135.813 76.4599 135.7 76.4199 135.607 76.3399C135.527 76.2466 135.487 76.1333 135.487 75.9999V75.3199C135.487 75.1866 135.527 75.0799 135.607 74.9999C135.7 74.9199 135.813 74.8799 135.947 74.8799H140.207C141.42 74.8799 142.38 75.0533 143.087 75.3999C143.807 75.7466 144.327 76.2999 144.647 77.0599C144.967 77.8199 145.127 78.8333 145.127 80.0999C145.127 81.8066 144.707 83.1399 143.867 84.0999C143.027 85.0466 141.933 85.7466 140.587 86.1999L139.747 86.4799ZM135.947 90.1199C135.813 90.1199 135.7 90.0733 135.607 89.9799C135.527 89.8999 135.487 89.7933 135.487 89.6599V79.1199C135.487 78.9866 135.527 78.8799 135.607 78.7999C135.7 78.7066 135.813 78.6599 135.947 78.6599H136.767C136.9 78.6599 137.007 78.7066 137.087 78.7999C137.18 78.8799 137.227 78.9866 137.227 79.1199V89.6599C137.227 89.8066 137.187 89.9199 137.107 89.9999C137.027 90.0799 136.913 90.1199 136.767 90.1199H135.947ZM153.31 86.2999C153.177 86.2999 153.063 86.2599 152.97 86.1799C152.89 86.0866 152.85 85.9733 152.85 85.8399V75.3399C152.85 75.2066 152.89 75.0999 152.97 75.0199C153.063 74.9266 153.177 74.8799 153.31 74.8799H157.09C158.797 74.8799 160.063 75.2866 160.89 76.0999C161.73 76.9133 162.15 78.1333 162.15 79.7599V85.8399C162.15 85.9733 162.103 86.0866 162.01 86.1799C161.93 86.2599 161.823 86.2999 161.69 86.2999H153.31ZM160.43 84.7399V79.8599C160.43 77.5666 159.29 76.4199 157.01 76.4199H154.51V84.7399H160.43ZM170.235 74.8799C173.621 74.8799 175.315 76.5066 175.315 79.7599V85.8399C175.315 85.9733 175.268 86.0866 175.175 86.1799C175.095 86.2599 174.988 86.2999 174.855 86.2999H174.015C173.881 86.2999 173.768 86.2599 173.675 86.1799C173.595 86.0866 173.555 85.9733 173.555 85.8399V79.8599C173.555 77.5666 172.415 76.4199 170.135 76.4199H168.675C168.541 77.1933 168.441 77.8666 168.375 78.4399C168.321 79.0133 168.295 79.6666 168.295 80.3999L168.335 85.8399C168.335 85.9733 168.295 86.0866 168.215 86.1799C168.135 86.2599 168.028 86.2999 167.895 86.2999L165.115 86.2599C164.981 86.2599 164.868 86.2199 164.775 86.1399C164.695 86.0466 164.655 85.9333 164.655 85.7999V85.1999C164.655 85.0666 164.695 84.9599 164.775 84.8799C164.868 84.7866 164.981 84.7399 165.115 84.7399L166.635 84.7599V80.4799C166.635 79.6266 166.655 78.9133 166.695 78.3399C166.748 77.7666 166.855 77.1266 167.015 76.4199H165.955C165.821 76.4199 165.708 76.3799 165.615 76.2999C165.535 76.2199 165.495 76.1133 165.495 75.9799V75.3399C165.495 75.2066 165.535 75.0999 165.615 75.0199C165.708 74.9266 165.821 74.8799 165.955 74.8799H170.235ZM178.779 86.2999C178.645 86.2999 178.532 86.2599 178.439 86.1799C178.359 86.0866 178.319 85.9733 178.319 85.8399V75.3399C178.319 75.2066 178.359 75.0999 178.439 75.0199C178.532 74.9266 178.645 74.8799 178.779 74.8799H179.659C179.792 74.8799 179.899 74.9266 179.979 75.0199C180.072 75.0999 180.119 75.2066 180.119 75.3399V85.8399C180.119 85.9733 180.072 86.0866 179.979 86.1799C179.899 86.2599 179.792 86.2999 179.659 86.2999H178.779ZM192.161 85.5199C192.254 85.6399 192.301 85.7666 192.301 85.8999C192.301 86.0066 192.261 86.0999 192.181 86.1799C192.101 86.2599 192.008 86.2999 191.901 86.2999H191.001C190.828 86.2999 190.694 86.2533 190.601 86.1599C190.508 86.0533 190.454 85.9933 190.441 85.9799L185.881 79.5599C185.308 79.9866 184.914 80.4799 184.701 81.0399C184.501 81.5999 184.401 82.2199 184.401 82.8999V85.8399C184.401 85.9733 184.354 86.0866 184.261 86.1799C184.181 86.2599 184.074 86.2999 183.941 86.2999H183.201C183.068 86.2999 182.954 86.2599 182.861 86.1799C182.781 86.0866 182.741 85.9733 182.741 85.8399V82.8199C182.741 81.8333 182.888 80.9733 183.181 80.2399C183.488 79.5066 184.081 78.8466 184.961 78.2599L183.101 75.6599C183.008 75.5133 182.961 75.3866 182.961 75.2799C182.961 75.1733 183.001 75.0799 183.081 74.9999C183.161 74.9199 183.254 74.8799 183.361 74.8799H184.241C184.454 74.8799 184.641 74.9933 184.801 75.2199L189.001 81.0799C189.481 80.7999 189.828 80.5066 190.041 80.1999C190.268 79.8933 190.408 79.5933 190.461 79.2999C190.514 78.9933 190.541 78.5999 190.541 78.1199V75.3399C190.541 75.2066 190.581 75.0999 190.661 75.0199C190.754 74.9266 190.868 74.8799 191.001 74.8799H191.781C191.914 74.8799 192.021 74.9266 192.101 75.0199C192.194 75.0999 192.241 75.2066 192.241 75.3399V78.1999C192.241 79.1199 192.088 79.8999 191.781 80.5399C191.474 81.1799 190.848 81.7799 189.901 82.3399L192.161 85.5199ZM199.603 84.6599C199.643 84.4466 199.729 84.2666 199.863 84.1199C200.009 83.9599 200.209 83.8799 200.463 83.8799H201.623C201.743 83.8799 201.843 83.9266 201.923 84.0199C202.016 84.0999 202.063 84.1999 202.063 84.3199C202.063 84.3733 202.056 84.4199 202.043 84.4599L201.003 87.1599C200.843 87.5866 200.556 87.7999 200.143 87.7999H199.643C199.523 87.7999 199.416 87.7533 199.323 87.6599C199.243 87.5799 199.203 87.4799 199.203 87.3599V87.3199L199.603 84.6599ZM205.283 86.2999C205.149 86.2999 205.036 86.2599 204.943 86.1799C204.863 86.0866 204.823 85.9733 204.823 85.8399V75.3399C204.823 75.2066 204.863 75.0999 204.943 75.0199C205.036 74.9266 205.149 74.8799 205.283 74.8799H206.163C206.296 74.8799 206.403 74.9266 206.483 75.0199C206.576 75.0999 206.623 75.2066 206.623 75.3399V85.8399C206.623 85.9733 206.576 86.0866 206.483 86.1799C206.403 86.2599 206.296 86.2999 206.163 86.2999H205.283ZM212.625 74.8799C213.838 74.8799 214.798 75.0533 215.505 75.3999C216.225 75.7466 216.745 76.2999 217.065 77.0599C217.385 77.8199 217.545 78.8333 217.545 80.0999C217.545 81.8066 217.125 83.1399 216.285 84.0999C215.445 85.0466 214.352 85.7466 213.005 86.1999L212.165 86.4799C212.138 86.4933 212.092 86.4999 212.025 86.4999C211.932 86.4999 211.845 86.4666 211.765 86.3999C211.698 86.3333 211.665 86.2399 211.665 86.1199V85.2399C211.665 85.1333 211.705 85.0333 211.785 84.9399C211.865 84.8333 211.972 84.7533 212.105 84.6999L212.885 84.3999C213.805 84.0533 214.512 83.5533 215.005 82.8999C215.498 82.2466 215.745 81.2866 215.745 80.0199C215.745 79.1266 215.638 78.4266 215.425 77.9199C215.212 77.3999 214.858 77.0266 214.365 76.7999C213.885 76.5733 213.218 76.4599 212.365 76.4599H211.745H211.685L209.845 76.4399C209.712 76.4399 209.598 76.3999 209.505 76.3199C209.425 76.2399 209.385 76.1333 209.385 75.9999V72.5599C209.385 72.4266 209.425 72.3199 209.505 72.2399C209.598 72.1466 209.712 72.0999 209.845 72.0999H210.645C210.778 72.0999 210.885 72.1466 210.965 72.2399C211.045 72.3199 211.085 72.4266 211.085 72.5599V74.8799H212.225H212.625ZM229.134 85.5199C229.227 85.6399 229.274 85.7666 229.274 85.8999C229.274 86.0066 229.234 86.0999 229.154 86.1799C229.074 86.2599 228.98 86.2999 228.874 86.2999H227.974C227.8 86.2999 227.667 86.2533 227.574 86.1599C227.48 86.0533 227.427 85.9933 227.414 85.9799L222.854 79.5599C222.28 79.9866 221.887 80.4799 221.674 81.0399C221.474 81.5999 221.374 82.2199 221.374 82.8999V85.8399C221.374 85.9733 221.327 86.0866 221.234 86.1799C221.154 86.2599 221.047 86.2999 220.914 86.2999H220.174C220.04 86.2999 219.927 86.2599 219.834 86.1799C219.754 86.0866 219.714 85.9733 219.714 85.8399V82.8199C219.714 81.8333 219.86 80.9733 220.154 80.2399C220.46 79.5066 221.054 78.8466 221.934 78.2599L220.074 75.6599C219.98 75.5133 219.934 75.3866 219.934 75.2799C219.934 75.1733 219.974 75.0799 220.054 74.9999C220.134 74.9199 220.227 74.8799 220.334 74.8799H221.214C221.427 74.8799 221.614 74.9933 221.774 75.2199L225.974 81.0799C226.454 80.7999 226.8 80.5066 227.014 80.1999C227.24 79.8933 227.38 79.5933 227.434 79.2999C227.487 78.9933 227.514 78.5999 227.514 78.1199V75.3399C227.514 75.2066 227.554 75.0999 227.634 75.0199C227.727 74.9266 227.84 74.8799 227.974 74.8799H228.754C228.887 74.8799 228.994 74.9266 229.074 75.0199C229.167 75.0999 229.214 75.2066 229.214 75.3399V78.1999C229.214 79.1199 229.06 79.8999 228.754 80.5399C228.447 81.1799 227.82 81.7799 226.874 82.3399L229.134 85.5199ZM237.255 86.2999C237.122 86.2999 237.009 86.2599 236.915 86.1799C236.835 86.0866 236.795 85.9733 236.795 85.8399V75.3399C236.795 75.2066 236.835 75.0999 236.915 75.0199C237.009 74.9266 237.122 74.8799 237.255 74.8799H241.035C242.742 74.8799 244.009 75.2866 244.835 76.0999C245.675 76.9133 246.095 78.1333 246.095 79.7599V85.8399C246.095 85.9733 246.049 86.0866 245.955 86.1799C245.875 86.2599 245.769 86.2999 245.635 86.2999H237.255ZM244.375 84.7399V79.8599C244.375 77.5666 243.235 76.4199 240.955 76.4199H238.455V84.7399H244.375ZM249.42 81.6599C249.287 81.6599 249.173 81.6199 249.08 81.5399C249 81.4466 248.96 81.3333 248.96 81.1999V75.3399C248.96 75.2066 249 75.0999 249.08 75.0199C249.173 74.9266 249.287 74.8799 249.42 74.8799H250.3C250.433 74.8799 250.54 74.9266 250.62 75.0199C250.713 75.0999 250.76 75.2066 250.76 75.3399V81.1999C250.76 81.3333 250.713 81.4466 250.62 81.5399C250.54 81.6199 250.433 81.6599 250.3 81.6599H249.42ZM254.189 86.2999C254.056 86.2999 253.942 86.2599 253.849 86.1799C253.769 86.0866 253.729 85.9733 253.729 85.8399V85.1799C253.729 85.0466 253.769 84.9399 253.849 84.8599C253.942 84.7666 254.056 84.7199 254.189 84.7199H257.049C258.209 84.7199 259.062 84.4266 259.609 83.8399C260.156 83.2533 260.456 82.3999 260.509 81.2799C260.522 81.0933 260.529 80.8599 260.529 80.5799C260.529 80.3133 260.522 80.0866 260.509 79.8999C260.469 78.7666 260.169 77.9133 259.609 77.3399C259.062 76.7533 258.209 76.4599 257.049 76.4599H254.189C254.056 76.4599 253.942 76.4199 253.849 76.3399C253.769 76.2466 253.729 76.1333 253.729 75.9999V75.3399C253.729 75.2066 253.769 75.0999 253.849 75.0199C253.942 74.9266 254.056 74.8799 254.189 74.8799H257.149C258.856 74.8799 260.116 75.3066 260.929 76.1599C261.742 76.9999 262.176 78.2199 262.229 79.8199C262.242 80.0066 262.249 80.2599 262.249 80.5799C262.249 80.8999 262.242 81.1599 262.229 81.3599C262.176 82.9599 261.742 84.1866 260.929 85.0399C260.116 85.8799 258.856 86.2999 257.149 86.2999H254.189ZM271.381 86.2999C271.247 86.2999 271.134 86.2599 271.041 86.1799C270.961 86.0866 270.921 85.9733 270.921 85.8399V79.8599C270.921 77.5666 269.774 76.4199 267.481 76.4199H264.901C264.767 76.4199 264.654 76.3799 264.561 76.2999C264.481 76.2199 264.441 76.1133 264.441 75.9799V75.3399C264.441 75.2066 264.481 75.0999 264.561 75.0199C264.654 74.9266 264.767 74.8799 264.901 74.8799H267.601C270.987 74.8799 272.681 76.5066 272.681 79.7599V85.8399C272.681 85.9733 272.634 86.0866 272.541 86.1799C272.461 86.2599 272.354 86.2999 272.221 86.2999H271.381ZM283.742 74.8799C283.889 74.8799 284.002 74.9199 284.082 74.9999C284.162 75.0799 284.202 75.1933 284.202 75.3399V80.8599C284.202 82.0333 283.815 83.0933 283.042 84.0399C282.282 84.9733 281.249 85.6333 279.942 86.0199L275.582 87.3999C275.542 87.4133 275.489 87.4199 275.422 87.4199C275.315 87.4199 275.222 87.3866 275.142 87.3199C275.062 87.2533 275.022 87.1666 275.022 87.0599V86.4399C275.022 86.1333 275.129 85.9466 275.342 85.8799L277.962 85.0199L275.362 75.6799C275.295 75.4533 275.262 75.3199 275.262 75.2799C275.262 75.1733 275.302 75.0799 275.382 74.9999C275.462 74.9199 275.555 74.8799 275.662 74.8799H276.582C276.702 74.8799 276.802 74.9133 276.882 74.9799C276.962 75.0333 277.015 75.0999 277.042 75.1799L279.602 84.4599C280.655 84.0866 281.389 83.5599 281.802 82.8799C282.229 82.1999 282.442 81.3466 282.442 80.3199V75.3399C282.442 75.2066 282.482 75.0999 282.562 75.0199C282.655 74.9266 282.769 74.8799 282.902 74.8799H283.742ZM77.1488 98.8799C80.5355 98.8799 82.2288 100.507 82.2288 103.76V109.84C82.2288 109.973 82.1821 110.087 82.0888 110.18C82.0088 110.26 81.9021 110.3 81.7688 110.3H80.9288C80.7955 110.3 80.6821 110.26 80.5888 110.18C80.5088 110.087 80.4688 109.973 80.4688 109.84V103.86C80.4688 101.567 79.3288 100.42 77.0488 100.42H75.5888C75.4555 101.193 75.3555 101.867 75.2888 102.44C75.2355 103.013 75.2088 103.667 75.2088 104.4L75.2488 109.84C75.2488 109.973 75.2088 110.087 75.1288 110.18C75.0488 110.26 74.9421 110.3 74.8088 110.3L72.0288 110.26C71.8955 110.26 71.7821 110.22 71.6888 110.14C71.6088 110.047 71.5688 109.933 71.5688 109.8V109.2C71.5688 109.067 71.6088 108.96 71.6888 108.88C71.7821 108.787 71.8955 108.74 72.0288 108.74L73.5488 108.76V104.48C73.5488 103.627 73.5688 102.913 73.6088 102.34C73.6621 101.767 73.7688 101.127 73.9288 100.42H72.8688C72.7355 100.42 72.6221 100.38 72.5288 100.3C72.4488 100.22 72.4088 100.113 72.4088 99.9799V99.3399C72.4088 99.2066 72.4488 99.0999 72.5288 99.0199C72.6221 98.9266 72.7355 98.8799 72.8688 98.8799H77.1488ZM94.1729 109.52C94.2662 109.64 94.3129 109.767 94.3129 109.9C94.3129 110.007 94.2729 110.1 94.1929 110.18C94.1129 110.26 94.0195 110.3 93.9129 110.3H93.0129C92.8395 110.3 92.7062 110.253 92.6129 110.16C92.5195 110.053 92.4662 109.993 92.4529 109.98L87.8929 103.56C87.3195 103.987 86.9262 104.48 86.7129 105.04C86.5129 105.6 86.4129 106.22 86.4129 106.9V109.84C86.4129 109.973 86.3662 110.087 86.2729 110.18C86.1929 110.26 86.0862 110.3 85.9529 110.3H85.2129C85.0795 110.3 84.9662 110.26 84.8729 110.18C84.7929 110.087 84.7529 109.973 84.7529 109.84V106.82C84.7529 105.833 84.8995 104.973 85.1929 104.24C85.4995 103.507 86.0929 102.847 86.9729 102.26L85.1129 99.6599C85.0195 99.5133 84.9729 99.3866 84.9729 99.2799C84.9729 99.1733 85.0129 99.0799 85.0929 98.9999C85.1729 98.9199 85.2662 98.8799 85.3729 98.8799H86.2529C86.4662 98.8799 86.6529 98.9933 86.8129 99.2199L91.0129 105.08C91.4929 104.8 91.8395 104.507 92.0529 104.2C92.2795 103.893 92.4195 103.593 92.4729 103.3C92.5262 102.993 92.5529 102.6 92.5529 102.12V99.3399C92.5529 99.2066 92.5929 99.0999 92.6729 99.0199C92.7662 98.9266 92.8795 98.8799 93.0129 98.8799H93.7929C93.9262 98.8799 94.0329 98.9266 94.1129 99.0199C94.2062 99.0999 94.2529 99.2066 94.2529 99.3399V102.2C94.2529 103.12 94.0995 103.9 93.7929 104.54C93.4862 105.18 92.8595 105.78 91.9129 106.34L94.1729 109.52ZM102.294 110.3C102.161 110.3 102.048 110.26 101.954 110.18C101.874 110.087 101.834 109.973 101.834 109.84V99.3399C101.834 99.2066 101.874 99.0999 101.954 99.0199C102.048 98.9266 102.161 98.8799 102.294 98.8799H106.074C107.781 98.8799 109.048 99.2866 109.874 100.1C110.714 100.913 111.134 102.133 111.134 103.76V109.84C111.134 109.973 111.088 110.087 110.994 110.18C110.914 110.26 110.808 110.3 110.674 110.3H102.294ZM109.414 108.74V103.86C109.414 101.567 108.274 100.42 105.994 100.42H103.494V108.74H109.414ZM114.459 105.66C114.326 105.66 114.212 105.62 114.119 105.54C114.039 105.447 113.999 105.333 113.999 105.2V99.3399C113.999 99.2066 114.039 99.0999 114.119 99.0199C114.212 98.9266 114.326 98.8799 114.459 98.8799H115.339C115.472 98.8799 115.579 98.9266 115.659 99.0199C115.752 99.0999 115.799 99.2066 115.799 99.3399V105.2C115.799 105.333 115.752 105.447 115.659 105.54C115.579 105.62 115.472 105.66 115.339 105.66H114.459ZM121.668 98.8799C122.881 98.8799 123.841 99.0533 124.548 99.3999C125.268 99.7466 125.788 100.3 126.108 101.06C126.428 101.82 126.588 102.833 126.588 104.1C126.588 105.807 126.168 107.14 125.328 108.1C124.488 109.047 123.395 109.747 122.048 110.2L121.208 110.48C121.181 110.493 121.135 110.5 121.068 110.5C120.975 110.5 120.888 110.467 120.808 110.4C120.741 110.333 120.708 110.24 120.708 110.12V109.24C120.708 109.133 120.748 109.033 120.828 108.94C120.908 108.833 121.015 108.753 121.148 108.7L121.928 108.4C122.848 108.053 123.555 107.553 124.048 106.9C124.541 106.247 124.788 105.287 124.788 104.02C124.788 103.127 124.681 102.427 124.468 101.92C124.255 101.4 123.901 101.027 123.408 100.8C122.928 100.573 122.261 100.46 121.408 100.46H120.788H120.728L118.888 100.44C118.755 100.44 118.641 100.4 118.548 100.32C118.468 100.24 118.428 100.133 118.428 99.9999V96.5599C118.428 96.4266 118.468 96.3199 118.548 96.2399C118.641 96.1466 118.755 96.0999 118.888 96.0999H119.688C119.821 96.0999 119.928 96.1466 120.008 96.2399C120.088 96.3199 120.128 96.4266 120.128 96.5599V98.8799H121.268H121.668ZM129.557 105.66C129.423 105.66 129.31 105.62 129.217 105.54C129.137 105.447 129.097 105.333 129.097 105.2V99.3399C129.097 99.2066 129.137 99.0999 129.217 99.0199C129.31 98.9266 129.423 98.8799 129.557 98.8799H130.437C130.57 98.8799 130.677 98.9266 130.757 99.0199C130.85 99.0999 130.897 99.2066 130.897 99.3399V105.2C130.897 105.333 130.85 105.447 130.757 105.54C130.677 105.62 130.57 105.66 130.437 105.66H129.557ZM133.826 110.3C133.692 110.3 133.579 110.26 133.486 110.18C133.406 110.087 133.366 109.973 133.366 109.84V109.2C133.366 109.067 133.406 108.96 133.486 108.88C133.579 108.787 133.692 108.74 133.826 108.74H139.586V103.86C139.586 101.58 138.446 100.44 136.166 100.44H134.026C133.892 100.44 133.779 100.4 133.686 100.32C133.606 100.227 133.566 100.113 133.566 99.9799V99.3399C133.566 99.2066 133.606 99.0999 133.686 99.0199C133.779 98.9266 133.892 98.8799 134.026 98.8799H136.266C137.972 98.8799 139.252 99.2933 140.106 100.12C140.959 100.947 141.386 102.167 141.386 103.78V108.74H142.126C142.259 108.74 142.366 108.787 142.446 108.88C142.539 108.96 142.586 109.067 142.586 109.2V109.84C142.586 109.973 142.539 110.087 142.446 110.18C142.366 110.26 142.259 110.3 142.126 110.3H133.826ZM145.185 110.3C145.052 110.3 144.938 110.26 144.845 110.18C144.765 110.087 144.725 109.973 144.725 109.84V99.3399C144.725 99.2066 144.765 99.0999 144.845 99.0199C144.938 98.9266 145.052 98.8799 145.185 98.8799H146.065C146.198 98.8799 146.305 98.9266 146.385 99.0199C146.478 99.0999 146.525 99.2066 146.525 99.3399V109.84C146.525 109.973 146.478 110.087 146.385 110.18C146.305 110.26 146.198 110.3 146.065 110.3H145.185ZM154.767 98.8799C155.594 98.8799 156.327 99.0799 156.967 99.4799C157.621 99.8666 158.127 100.427 158.487 101.16C158.861 101.893 159.047 102.76 159.047 103.76V109.84C159.047 109.973 159.001 110.087 158.907 110.18C158.827 110.26 158.721 110.3 158.587 110.3H153.427C153.294 110.3 153.181 110.26 153.087 110.18C153.007 110.087 152.967 109.973 152.967 109.84V109.2C152.967 109.067 153.007 108.96 153.087 108.88C153.181 108.787 153.294 108.74 153.427 108.74H157.287V103.88C157.287 102.867 157.027 102.047 156.507 101.42C156.001 100.78 155.354 100.46 154.567 100.46H152.467L150.907 109.82C150.894 109.953 150.841 110.067 150.747 110.16C150.654 110.253 150.541 110.3 150.407 110.3H149.567C149.434 110.3 149.327 110.253 149.247 110.16C149.181 110.067 149.154 109.953 149.167 109.82L150.767 100.46H149.747C149.614 100.46 149.501 100.42 149.407 100.34C149.327 100.247 149.287 100.133 149.287 99.9999V99.3399C149.287 99.2066 149.327 99.0999 149.407 99.0199C149.501 98.9266 149.614 98.8799 149.747 98.8799H154.767ZM170.109 110.3C169.976 110.3 169.863 110.26 169.769 110.18C169.689 110.087 169.649 109.973 169.649 109.84V103.86C169.649 101.567 168.509 100.42 166.229 100.42H162.509C162.376 100.42 162.263 100.38 162.169 100.3C162.089 100.22 162.049 100.113 162.049 99.9799V99.3399C162.049 99.2066 162.089 99.0999 162.169 99.0199C162.263 98.9266 162.376 98.8799 162.509 98.8799H166.329C169.716 98.8799 171.409 100.52 171.409 103.8V109.84C171.409 109.973 171.369 110.087 171.289 110.18C171.209 110.26 171.103 110.3 170.969 110.3H170.109ZM162.509 110.3C162.376 110.3 162.263 110.26 162.169 110.18C162.089 110.087 162.049 109.973 162.049 109.84V103.12C162.049 102.987 162.089 102.88 162.169 102.8C162.263 102.707 162.376 102.66 162.509 102.66H163.349C163.483 102.66 163.589 102.707 163.669 102.8C163.763 102.88 163.809 102.987 163.809 103.12V109.84C163.809 109.973 163.763 110.087 163.669 110.18C163.589 110.26 163.483 110.3 163.349 110.3H162.509ZM179.755 110.3C179.622 110.3 179.509 110.26 179.415 110.18C179.335 110.087 179.295 109.973 179.295 109.84V99.3399C179.295 99.2066 179.335 99.0999 179.415 99.0199C179.509 98.9266 179.622 98.8799 179.755 98.8799H183.535C185.242 98.8799 186.509 99.2866 187.335 100.1C188.175 100.913 188.595 102.133 188.595 103.76V109.84C188.595 109.973 188.549 110.087 188.455 110.18C188.375 110.26 188.269 110.3 188.135 110.3H179.755ZM186.875 108.74V103.86C186.875 101.567 185.735 100.42 183.455 100.42H180.955V108.74H186.875ZM199.66 110.3C199.527 110.3 199.413 110.26 199.32 110.18C199.24 110.087 199.2 109.973 199.2 109.84V103.86C199.2 101.567 198.06 100.42 195.78 100.42H192.06C191.927 100.42 191.813 100.38 191.72 100.3C191.64 100.22 191.6 100.113 191.6 99.9799V99.3399C191.6 99.2066 191.64 99.0999 191.72 99.0199C191.813 98.9266 191.927 98.8799 192.06 98.8799H195.88C199.267 98.8799 200.96 100.52 200.96 103.8V109.84C200.96 109.973 200.92 110.087 200.84 110.18C200.76 110.26 200.653 110.3 200.52 110.3H199.66ZM192.06 110.3C191.927 110.3 191.813 110.26 191.72 110.18C191.64 110.087 191.6 109.973 191.6 109.84V103.12C191.6 102.987 191.64 102.88 191.72 102.8C191.813 102.707 191.927 102.66 192.06 102.66H192.9C193.033 102.66 193.14 102.707 193.22 102.8C193.313 102.88 193.36 102.987 193.36 103.12V109.84C193.36 109.973 193.313 110.087 193.22 110.18C193.14 110.26 193.033 110.3 192.9 110.3H192.06ZM213.509 108.66C213.549 108.447 213.636 108.267 213.769 108.12C213.916 107.96 214.116 107.88 214.369 107.88H215.529C215.649 107.88 215.749 107.927 215.829 108.02C215.922 108.1 215.969 108.2 215.969 108.32C215.969 108.373 215.962 108.42 215.949 108.46L214.909 111.16C214.749 111.587 214.462 111.8 214.049 111.8H213.549C213.429 111.8 213.322 111.753 213.229 111.66C213.149 111.58 213.109 111.48 213.109 111.36V111.32L213.509 108.66ZM220.418 98.8799C221.631 98.8799 222.591 99.0533 223.298 99.3999C224.018 99.7466 224.538 100.3 224.858 101.06C225.178 101.82 225.338 102.833 225.338 104.1C225.338 105.807 224.918 107.14 224.078 108.1C223.238 109.047 222.145 109.747 220.798 110.2L219.958 110.48C219.931 110.493 219.885 110.5 219.818 110.5C219.725 110.5 219.638 110.467 219.558 110.4C219.491 110.333 219.458 110.24 219.458 110.12V109.24C219.458 109.133 219.498 109.033 219.578 108.94C219.658 108.833 219.765 108.753 219.898 108.7L220.678 108.4C221.598 108.053 222.305 107.553 222.798 106.9C223.291 106.247 223.538 105.287 223.538 104.02C223.538 103.127 223.431 102.427 223.218 101.92C223.005 101.4 222.651 101.027 222.158 100.8C221.678 100.573 221.011 100.46 220.158 100.46H219.538H219.478L217.638 100.44C217.505 100.44 217.391 100.4 217.298 100.32C217.218 100.24 217.178 100.133 217.178 99.9999V96.5599C217.178 96.4266 217.218 96.3199 217.298 96.2399C217.391 96.1466 217.505 96.0999 217.638 96.0999H218.438C218.571 96.0999 218.678 96.1466 218.758 96.2399C218.838 96.3199 218.878 96.4266 218.878 96.5599V98.8799H220.018H220.418ZM227.947 96.8799C227.987 96.6666 228.073 96.4866 228.207 96.3399C228.353 96.1799 228.553 96.0999 228.807 96.0999H229.967C230.087 96.0999 230.187 96.1466 230.267 96.2399C230.36 96.3199 230.407 96.4199 230.407 96.5399C230.407 96.5933 230.4 96.6399 230.387 96.6799L229.347 99.3799C229.187 99.8066 228.9 100.02 228.487 100.02H227.987C227.867 100.02 227.76 99.9799 227.667 99.8999C227.587 99.8066 227.547 99.6999 227.547 99.5799V99.5399L227.947 96.8799ZM231.347 96.8799C231.387 96.6666 231.473 96.4866 231.607 96.3399C231.753 96.1799 231.953 96.0999 232.207 96.0999H233.367C233.487 96.0999 233.587 96.1466 233.667 96.2399C233.76 96.3199 233.807 96.4199 233.807 96.5399C233.807 96.5933 233.8 96.6399 233.787 96.6799L232.747 99.3799C232.587 99.8066 232.3 100.02 231.887 100.02H231.387C231.267 100.02 231.16 99.9799 231.067 99.8999C230.987 99.8066 230.947 99.6999 230.947 99.5799V99.5399L231.347 96.8799ZM243.976 110.3C243.843 110.3 243.73 110.26 243.636 110.18C243.556 110.087 243.516 109.973 243.516 109.84V103.86C243.516 101.567 242.376 100.42 240.096 100.42H236.376C236.243 100.42 236.13 100.38 236.036 100.3C235.956 100.22 235.916 100.113 235.916 99.9799V99.3399C235.916 99.2066 235.956 99.0999 236.036 99.0199C236.13 98.9266 236.243 98.8799 236.376 98.8799H240.196C243.583 98.8799 245.276 100.52 245.276 103.8V109.84C245.276 109.973 245.236 110.087 245.156 110.18C245.076 110.26 244.97 110.3 244.836 110.3H243.976ZM236.376 110.3C236.243 110.3 236.13 110.26 236.036 110.18C235.956 110.087 235.916 109.973 235.916 109.84V103.12C235.916 102.987 235.956 102.88 236.036 102.8C236.13 102.707 236.243 102.66 236.376 102.66H237.216C237.35 102.66 237.456 102.707 237.536 102.8C237.63 102.88 237.676 102.987 237.676 103.12V109.84C237.676 109.973 237.63 110.087 237.536 110.18C237.456 110.26 237.35 110.3 237.216 110.3H236.376ZM256.062 101.3C256.062 102.34 255.848 103.227 255.422 103.96C255.008 104.68 254.388 105.233 253.562 105.62L255.642 108.62C255.802 108.82 255.882 109.02 255.882 109.22V109.84C255.882 109.973 255.835 110.087 255.742 110.18C255.662 110.26 255.555 110.3 255.422 110.3H248.222C248.088 110.3 247.975 110.26 247.882 110.18C247.802 110.087 247.762 109.973 247.762 109.84V109.2C247.762 109.053 247.802 108.94 247.882 108.86C247.975 108.78 248.088 108.74 248.222 108.74H253.662L247.402 99.6599C247.295 99.5133 247.242 99.3866 247.242 99.2799C247.242 99.1733 247.282 99.0799 247.362 98.9999C247.455 98.9199 247.555 98.8799 247.662 98.8799H248.562C248.775 98.8799 248.955 98.9866 249.102 99.1999L252.682 104.36C253.815 103.827 254.382 102.733 254.382 101.08V99.3399C254.382 99.1933 254.422 99.0799 254.502 98.9999C254.595 98.9199 254.708 98.8799 254.842 98.8799H255.622C255.755 98.8799 255.862 98.9266 255.942 99.0199C256.022 99.0999 256.062 99.2066 256.062 99.3399V101.3ZM264.169 110.3C264.036 110.3 263.923 110.26 263.829 110.18C263.749 110.087 263.709 109.973 263.709 109.84V99.3399C263.709 99.2066 263.749 99.0999 263.829 99.0199C263.923 98.9266 264.036 98.8799 264.169 98.8799H268.029C269.749 98.8799 271.023 99.2933 271.849 100.12C272.689 100.933 273.109 102.16 273.109 103.8V109.84C273.109 109.973 273.063 110.087 272.969 110.18C272.889 110.26 272.783 110.3 272.649 110.3H271.809C271.676 110.3 271.563 110.26 271.469 110.18C271.389 110.087 271.349 109.973 271.349 109.84V103.86C271.349 101.567 270.209 100.42 267.929 100.42H265.469V109.84C265.469 109.973 265.423 110.087 265.329 110.18C265.249 110.26 265.143 110.3 265.009 110.3H264.169ZM276.572 110.3C276.438 110.3 276.325 110.26 276.232 110.18C276.152 110.087 276.112 109.973 276.112 109.84V99.3399C276.112 99.2066 276.152 99.0999 276.232 99.0199C276.325 98.9266 276.438 98.8799 276.572 98.8799H277.452C277.585 98.8799 277.692 98.9266 277.772 99.0199C277.865 99.0999 277.912 99.2066 277.912 99.3399V109.84C277.912 109.973 277.865 110.087 277.772 110.18C277.692 110.26 277.585 110.3 277.452 110.3H276.572ZM287.494 110.3C287.361 110.3 287.247 110.26 287.154 110.18C287.074 110.087 287.034 109.973 287.034 109.84V103.86C287.034 101.567 285.887 100.42 283.594 100.42H281.014C280.881 100.42 280.767 100.38 280.674 100.3C280.594 100.22 280.554 100.113 280.554 99.9799V99.3399C280.554 99.2066 280.594 99.0999 280.674 99.0199C280.767 98.9266 280.881 98.8799 281.014 98.8799H283.714C287.101 98.8799 288.794 100.507 288.794 103.76V109.84C288.794 109.973 288.747 110.087 288.654 110.18C288.574 110.26 288.467 110.3 288.334 110.3H287.494ZM291.755 110.3C291.622 110.3 291.509 110.26 291.415 110.18C291.335 110.087 291.295 109.973 291.295 109.84V109.2C291.295 109.067 291.335 108.96 291.415 108.88C291.509 108.787 291.622 108.74 291.755 108.74H297.515V103.86C297.515 101.58 296.375 100.44 294.095 100.44H291.955C291.822 100.44 291.709 100.4 291.615 100.32C291.535 100.227 291.495 100.113 291.495 99.9799V99.3399C291.495 99.2066 291.535 99.0999 291.615 99.0199C291.709 98.9266 291.822 98.8799 291.955 98.8799H294.195C295.902 98.8799 297.182 99.2933 298.035 100.12C298.889 100.947 299.315 102.167 299.315 103.78V108.74H300.055C300.189 108.74 300.295 108.787 300.375 108.88C300.469 108.96 300.515 109.067 300.515 109.2V109.84C300.515 109.973 300.469 110.087 300.375 110.18C300.295 110.26 300.189 110.3 300.055 110.3H291.755ZM78.5968 132.66C78.6368 132.447 78.7235 132.267 78.8568 132.12C79.0035 131.96 79.2035 131.88 79.4568 131.88H80.6168C80.7368 131.88 80.8368 131.927 80.9168 132.02C81.0102 132.1 81.0568 132.2 81.0568 132.32C81.0568 132.373 81.0502 132.42 81.0368 132.46L79.9968 135.16C79.8368 135.587 79.5502 135.8 79.1368 135.8H78.6368C78.5168 135.8 78.4102 135.753 78.3168 135.66C78.2368 135.58 78.1968 135.48 78.1968 135.36V135.32L78.5968 132.66ZM84.2768 134.3C84.1435 134.3 84.0302 134.26 83.9368 134.18C83.8568 134.087 83.8168 133.973 83.8168 133.84V123.34C83.8168 123.207 83.8568 123.1 83.9368 123.02C84.0302 122.927 84.1435 122.88 84.2768 122.88H88.0568C89.7635 122.88 91.0302 123.287 91.8568 124.1C92.6968 124.913 93.1168 126.133 93.1168 127.76V133.84C93.1168 133.973 93.0702 134.087 92.9768 134.18C92.8968 134.26 92.7902 134.3 92.6568 134.3H84.2768ZM91.3968 132.74V127.86C91.3968 125.567 90.2568 124.42 87.9768 124.42H85.4768V132.74H91.3968ZM96.4415 129.66C96.3082 129.66 96.1949 129.62 96.1015 129.54C96.0215 129.447 95.9815 129.333 95.9815 129.2V123.34C95.9815 123.207 96.0215 123.1 96.1015 123.02C96.1949 122.927 96.3082 122.88 96.4415 122.88H97.3215C97.4549 122.88 97.5615 122.927 97.6415 123.02C97.7349 123.1 97.7815 123.207 97.7815 123.34V129.2C97.7815 129.333 97.7349 129.447 97.6415 129.54C97.5615 129.62 97.4549 129.66 97.3215 129.66H96.4415ZM103.65 122.88C104.864 122.88 105.824 123.053 106.53 123.4C107.25 123.747 107.77 124.3 108.09 125.06C108.41 125.82 108.57 126.833 108.57 128.1C108.57 129.807 108.15 131.14 107.31 132.1C106.47 133.047 105.377 133.747 104.03 134.2L103.19 134.48C103.164 134.493 103.117 134.5 103.05 134.5C102.957 134.5 102.87 134.467 102.79 134.4C102.724 134.333 102.69 134.24 102.69 134.12V133.24C102.69 133.133 102.73 133.033 102.81 132.94C102.89 132.833 102.997 132.753 103.13 132.7L103.91 132.4C104.83 132.053 105.537 131.553 106.03 130.9C106.524 130.247 106.77 129.287 106.77 128.02C106.77 127.127 106.664 126.427 106.45 125.92C106.237 125.4 105.884 125.027 105.39 124.8C104.91 124.573 104.244 124.46 103.39 124.46H102.77H102.71L100.87 124.44C100.737 124.44 100.624 124.4 100.53 124.32C100.45 124.24 100.41 124.133 100.41 124V120.56C100.41 120.427 100.45 120.32 100.53 120.24C100.624 120.147 100.737 120.1 100.87 120.1H101.67C101.804 120.1 101.91 120.147 101.99 120.24C102.07 120.32 102.11 120.427 102.11 120.56V122.88H103.25H103.65ZM111.539 129.66C111.406 129.66 111.293 129.62 111.199 129.54C111.119 129.447 111.079 129.333 111.079 129.2V123.34C111.079 123.207 111.119 123.1 111.199 123.02C111.293 122.927 111.406 122.88 111.539 122.88H112.419C112.553 122.88 112.659 122.927 112.739 123.02C112.833 123.1 112.879 123.207 112.879 123.34V129.2C112.879 129.333 112.833 129.447 112.739 129.54C112.659 129.62 112.553 129.66 112.419 129.66H111.539ZM116.168 129.66C116.035 129.66 115.921 129.62 115.828 129.54C115.748 129.447 115.708 129.333 115.708 129.2V123.34C115.708 123.207 115.748 123.1 115.828 123.02C115.921 122.927 116.035 122.88 116.168 122.88H117.048C117.181 122.88 117.288 122.927 117.368 123.02C117.461 123.1 117.508 123.207 117.508 123.34V129.2C117.508 129.333 117.461 129.447 117.368 129.54C117.288 129.62 117.181 129.66 117.048 129.66H116.168ZM120.937 134.3C120.804 134.3 120.69 134.26 120.597 134.18C120.517 134.087 120.477 133.973 120.477 133.84V123.34C120.477 123.207 120.517 123.1 120.597 123.02C120.69 122.927 120.804 122.88 120.937 122.88H124.797C126.517 122.88 127.79 123.293 128.617 124.12C129.457 124.933 129.877 126.16 129.877 127.8V133.84C129.877 133.973 129.83 134.087 129.737 134.18C129.657 134.26 129.55 134.3 129.417 134.3H128.577C128.444 134.3 128.33 134.26 128.237 134.18C128.157 134.087 128.117 133.973 128.117 133.84V127.86C128.117 125.567 126.977 124.42 124.697 124.42H122.237V133.84C122.237 133.973 122.19 134.087 122.097 134.18C122.017 134.26 121.91 134.3 121.777 134.3H120.937ZM133.339 134.3C133.206 134.3 133.093 134.26 132.999 134.18C132.919 134.087 132.879 133.973 132.879 133.84V133.18C132.879 133.047 132.919 132.94 132.999 132.86C133.093 132.767 133.206 132.72 133.339 132.72H136.199C137.359 132.72 138.213 132.427 138.759 131.84C139.306 131.253 139.606 130.4 139.659 129.28C139.673 129.093 139.679 128.86 139.679 128.58C139.679 128.313 139.673 128.087 139.659 127.9C139.619 126.767 139.319 125.913 138.759 125.34C138.213 124.753 137.359 124.46 136.199 124.46H133.339C133.206 124.46 133.093 124.42 132.999 124.34C132.919 124.247 132.879 124.133 132.879 124V123.34C132.879 123.207 132.919 123.1 132.999 123.02C133.093 122.927 133.206 122.88 133.339 122.88H136.299C138.006 122.88 139.266 123.307 140.079 124.16C140.893 125 141.326 126.22 141.379 127.82C141.393 128.007 141.399 128.26 141.399 128.58C141.399 128.9 141.393 129.16 141.379 129.36C141.326 130.96 140.893 132.187 140.079 133.04C139.266 133.88 138.006 134.3 136.299 134.3H133.339ZM149.394 134.3C149.261 134.3 149.147 134.26 149.054 134.18C148.974 134.087 148.934 133.973 148.934 133.84V123.34C148.934 123.207 148.974 123.1 149.054 123.02C149.147 122.927 149.261 122.88 149.394 122.88H150.274C150.407 122.88 150.514 122.927 150.594 123.02C150.687 123.1 150.734 123.207 150.734 123.34V133.84C150.734 133.973 150.687 134.087 150.594 134.18C150.514 134.26 150.407 134.3 150.274 134.3H149.394ZM159.416 133.84C159.43 133.973 159.39 134.087 159.296 134.18C159.216 134.26 159.103 134.3 158.956 134.3H158.076H153.636C153.503 134.3 153.39 134.26 153.296 134.18C153.216 134.087 153.176 133.973 153.176 133.84V133.2C153.176 133.067 153.216 132.96 153.296 132.88C153.39 132.787 153.503 132.74 153.636 132.74H157.556L157.236 127.66C157.183 126.807 157.116 126.173 157.036 125.76C156.97 125.347 156.81 125.013 156.556 124.76C156.303 124.507 155.903 124.38 155.356 124.38H154.556C154.423 124.38 154.31 124.34 154.216 124.26C154.136 124.18 154.096 124.073 154.096 123.94V123.3C154.096 123.167 154.136 123.06 154.216 122.98C154.31 122.887 154.423 122.84 154.556 122.84H155.376C156.336 122.84 157.07 123.033 157.576 123.42C158.096 123.793 158.45 124.313 158.636 124.98C158.836 125.647 158.97 126.52 159.036 127.6L159.416 133.84ZM164.471 122.88C165.684 122.88 166.644 123.053 167.351 123.4C168.071 123.747 168.591 124.3 168.911 125.06C169.231 125.82 169.391 126.833 169.391 128.1C169.391 129.807 168.971 131.14 168.131 132.1C167.291 133.047 166.197 133.747 164.851 134.2L164.011 134.48C163.984 134.493 163.937 134.5 163.871 134.5C163.777 134.5 163.691 134.467 163.611 134.4C163.544 134.333 163.511 134.24 163.511 134.12V133.24C163.511 133.133 163.551 133.033 163.631 132.94C163.711 132.833 163.817 132.753 163.951 132.7L164.731 132.4C165.651 132.053 166.357 131.553 166.851 130.9C167.344 130.247 167.591 129.287 167.591 128.02C167.591 127.127 167.484 126.427 167.271 125.92C167.057 125.4 166.704 125.027 166.211 124.8C165.731 124.573 165.064 124.46 164.211 124.46H163.591H163.531L161.691 124.44C161.557 124.44 161.444 124.4 161.351 124.32C161.271 124.24 161.231 124.133 161.231 124V120.56C161.231 120.427 161.271 120.32 161.351 120.24C161.444 120.147 161.557 120.1 161.691 120.1H162.491C162.624 120.1 162.731 120.147 162.811 120.24C162.891 120.32 162.931 120.427 162.931 120.56V122.88H164.071H164.471ZM182.939 122.88C183.086 122.88 183.199 122.92 183.279 123C183.359 123.08 183.399 123.193 183.399 123.34V128.9C183.399 130.02 183.166 131.007 182.699 131.86C182.246 132.7 181.599 133.347 180.759 133.8C179.933 134.24 178.979 134.447 177.899 134.42H176.419C175.566 134.42 174.793 134.22 174.099 133.82C173.406 133.42 172.859 132.86 172.459 132.14C172.059 131.407 171.859 130.567 171.859 129.62V123.34C171.859 123.207 171.899 123.1 171.979 123.02C172.073 122.927 172.186 122.88 172.319 122.88H173.099C173.233 122.88 173.339 122.927 173.419 123.02C173.513 123.1 173.559 123.207 173.559 123.34L173.619 129.02C174.833 128.927 175.679 128.6 176.159 128.04C176.639 127.48 176.879 126.747 176.879 125.84V123.34C176.879 123.207 176.919 123.1 176.999 123.02C177.079 122.927 177.186 122.88 177.319 122.88H178.099C178.233 122.88 178.339 122.927 178.419 123.02C178.513 123.1 178.559 123.207 178.559 123.34V125.92C178.559 127.2 178.153 128.253 177.339 129.08C176.526 129.907 175.333 130.36 173.759 130.44C173.973 131.213 174.366 131.813 174.939 132.24C175.526 132.653 176.226 132.86 177.039 132.86H177.679C178.946 132.873 179.933 132.507 180.639 131.76C181.346 131.013 181.699 130.02 181.699 128.78V123.34C181.699 123.207 181.739 123.1 181.819 123.02C181.913 122.927 182.026 122.88 182.159 122.88H182.939ZM199.182 134.3C199.048 134.3 198.935 134.26 198.842 134.18C198.762 134.087 198.722 133.973 198.722 133.84V127.86C198.722 125.567 197.582 124.42 195.302 124.42H191.582C191.448 124.42 191.335 124.38 191.242 124.3C191.162 124.22 191.122 124.113 191.122 123.98V123.34C191.122 123.207 191.162 123.1 191.242 123.02C191.335 122.927 191.448 122.88 191.582 122.88H195.402C198.788 122.88 200.482 124.52 200.482 127.8V133.84C200.482 133.973 200.442 134.087 200.362 134.18C200.282 134.26 200.175 134.3 200.042 134.3H199.182ZM191.582 134.3C191.448 134.3 191.335 134.26 191.242 134.18C191.162 134.087 191.122 133.973 191.122 133.84V127.12C191.122 126.987 191.162 126.88 191.242 126.8C191.335 126.707 191.448 126.66 191.582 126.66H192.422C192.555 126.66 192.662 126.707 192.742 126.8C192.835 126.88 192.882 126.987 192.882 127.12V133.84C192.882 133.973 192.835 134.087 192.742 134.18C192.662 134.26 192.555 134.3 192.422 134.3H191.582ZM205.994 122.88C207.208 122.88 208.168 123.053 208.874 123.4C209.594 123.747 210.114 124.3 210.434 125.06C210.754 125.82 210.914 126.833 210.914 128.1C210.914 129.807 210.494 131.14 209.654 132.1C208.814 133.047 207.721 133.747 206.374 134.2L205.534 134.48C205.508 134.493 205.461 134.5 205.394 134.5C205.301 134.5 205.214 134.467 205.134 134.4C205.068 134.333 205.034 134.24 205.034 134.12V133.24C205.034 133.133 205.074 133.033 205.154 132.94C205.234 132.833 205.341 132.753 205.474 132.7L206.254 132.4C207.174 132.053 207.881 131.553 208.374 130.9C208.868 130.247 209.114 129.287 209.114 128.02C209.114 127.127 209.008 126.427 208.794 125.92C208.581 125.4 208.228 125.027 207.734 124.8C207.254 124.573 206.588 124.46 205.734 124.46H205.114H205.054L203.214 124.44C203.081 124.44 202.968 124.4 202.874 124.32C202.794 124.24 202.754 124.133 202.754 124V120.56C202.754 120.427 202.794 120.32 202.874 120.24C202.968 120.147 203.081 120.1 203.214 120.1H204.014C204.148 120.1 204.254 120.147 204.334 120.24C204.414 120.32 204.454 120.427 204.454 120.56V122.88H205.594H205.994ZM214.023 134.3C213.89 134.3 213.776 134.26 213.683 134.18C213.603 134.087 213.563 133.973 213.563 133.84V123.34C213.563 123.207 213.603 123.1 213.683 123.02C213.776 122.927 213.89 122.88 214.023 122.88H214.903C215.036 122.88 215.143 122.927 215.223 123.02C215.316 123.1 215.363 123.207 215.363 123.34V133.84C215.363 133.973 215.316 134.087 215.223 134.18C215.143 134.26 215.036 134.3 214.903 134.3H214.023ZM226.525 122.88C226.672 122.88 226.785 122.92 226.865 123C226.945 123.08 226.985 123.193 226.985 123.34V128.86C226.985 130.033 226.599 131.093 225.825 132.04C225.065 132.973 224.032 133.633 222.725 134.02L218.365 135.4C218.325 135.413 218.272 135.42 218.205 135.42C218.099 135.42 218.005 135.387 217.925 135.32C217.845 135.253 217.805 135.167 217.805 135.06V134.44C217.805 134.133 217.912 133.947 218.125 133.88L220.745 133.02L218.145 123.68C218.079 123.453 218.045 123.32 218.045 123.28C218.045 123.173 218.085 123.08 218.165 123C218.245 122.92 218.339 122.88 218.445 122.88H219.365C219.485 122.88 219.585 122.913 219.665 122.98C219.745 123.033 219.799 123.1 219.825 123.18L222.385 132.46C223.439 132.087 224.172 131.56 224.585 130.88C225.012 130.2 225.225 129.347 225.225 128.32V123.34C225.225 123.207 225.265 123.1 225.345 123.02C225.439 122.927 225.552 122.88 225.685 122.88H226.525ZM231.569 126.06C231.582 126.593 231.649 127.013 231.769 127.32C231.889 127.627 232.089 127.82 232.369 127.9L233.129 128.1C233.235 128.127 233.315 128.2 233.369 128.32C233.435 128.427 233.469 128.56 233.469 128.72V129.18C233.469 129.327 233.395 129.433 233.249 129.5C233.102 129.567 232.942 129.587 232.769 129.56L232.009 129.4C230.662 129.107 229.989 127.973 229.989 126V123.34C230.002 123.193 230.049 123.08 230.129 123C230.209 122.92 230.315 122.88 230.449 122.88H234.149C235.615 122.88 236.729 123.313 237.489 124.18C238.249 125.033 238.649 126.247 238.689 127.82C238.702 127.953 238.709 128.207 238.709 128.58C238.709 128.967 238.702 129.227 238.689 129.36C238.649 130.933 238.249 132.153 237.489 133.02C236.729 133.873 235.615 134.3 234.149 134.3H230.709C230.575 134.3 230.462 134.26 230.369 134.18C230.289 134.087 230.249 133.973 230.249 133.84V133.18C230.249 133.033 230.289 132.92 230.369 132.84C230.462 132.76 230.575 132.72 230.709 132.72H234.029C234.962 132.72 235.682 132.42 236.189 131.82C236.695 131.22 236.969 130.373 237.009 129.28C237.035 129.013 237.049 128.78 237.049 128.58C237.049 128.393 237.035 128.167 237.009 127.9C236.982 126.793 236.715 125.947 236.209 125.36C235.702 124.76 234.975 124.46 234.029 124.46H231.569V126.06ZM249.435 134.3C249.302 134.3 249.189 134.26 249.095 134.18C249.015 134.087 248.975 133.973 248.975 133.84V127.86C248.975 125.567 247.835 124.42 245.555 124.42H241.835C241.702 124.42 241.589 124.38 241.495 124.3C241.415 124.22 241.375 124.113 241.375 123.98V123.34C241.375 123.207 241.415 123.1 241.495 123.02C241.589 122.927 241.702 122.88 241.835 122.88H245.655C249.042 122.88 250.735 124.52 250.735 127.8V133.84C250.735 133.973 250.695 134.087 250.615 134.18C250.535 134.26 250.429 134.3 250.295 134.3H249.435ZM241.835 134.3C241.702 134.3 241.589 134.26 241.495 134.18C241.415 134.087 241.375 133.973 241.375 133.84V127.12C241.375 126.987 241.415 126.88 241.495 126.8C241.589 126.707 241.702 126.66 241.835 126.66H242.675C242.809 126.66 242.915 126.707 242.995 126.8C243.089 126.88 243.135 126.987 243.135 127.12V133.84C243.135 133.973 243.089 134.087 242.995 134.18C242.915 134.26 242.809 134.3 242.675 134.3H241.835ZM258.942 129.66C258.808 129.66 258.695 129.62 258.602 129.54C258.522 129.447 258.482 129.333 258.482 129.2V123.34C258.482 123.207 258.522 123.1 258.602 123.02C258.695 122.927 258.808 122.88 258.942 122.88H259.822C259.955 122.88 260.062 122.927 260.142 123.02C260.235 123.1 260.282 123.207 260.282 123.34V129.2C260.282 129.333 260.235 129.447 260.142 129.54C260.062 129.62 259.955 129.66 259.822 129.66H258.942ZM263.71 134.3C263.577 134.3 263.464 134.26 263.37 134.18C263.29 134.087 263.25 133.973 263.25 133.84V133.18C263.25 133.047 263.29 132.94 263.37 132.86C263.464 132.767 263.577 132.72 263.71 132.72H266.57C267.73 132.72 268.584 132.427 269.13 131.84C269.677 131.253 269.977 130.4 270.03 129.28C270.044 129.093 270.05 128.86 270.05 128.58C270.05 128.313 270.044 128.087 270.03 127.9C269.99 126.767 269.69 125.913 269.13 125.34C268.584 124.753 267.73 124.46 266.57 124.46H263.71C263.577 124.46 263.464 124.42 263.37 124.34C263.29 124.247 263.25 124.133 263.25 124V123.34C263.25 123.207 263.29 123.1 263.37 123.02C263.464 122.927 263.577 122.88 263.71 122.88H266.67C268.377 122.88 269.637 123.307 270.45 124.16C271.264 125 271.697 126.22 271.75 127.82C271.764 128.007 271.77 128.26 271.77 128.58C271.77 128.9 271.764 129.16 271.75 129.36C271.697 130.96 271.264 132.187 270.45 133.04C269.637 133.88 268.377 134.3 266.67 134.3H263.71ZM280.902 134.3C280.769 134.3 280.656 134.26 280.562 134.18C280.482 134.087 280.442 133.973 280.442 133.84V127.86C280.442 125.567 279.296 124.42 277.002 124.42H274.422C274.289 124.42 274.176 124.38 274.082 124.3C274.002 124.22 273.962 124.113 273.962 123.98V123.34C273.962 123.207 274.002 123.1 274.082 123.02C274.176 122.927 274.289 122.88 274.422 122.88H277.122C280.509 122.88 282.202 124.507 282.202 127.76V133.84C282.202 133.973 282.156 134.087 282.062 134.18C281.982 134.26 281.876 134.3 281.742 134.3H280.902ZM292.974 122.88C293.107 122.88 293.214 122.927 293.294 123.02C293.387 123.1 293.434 123.207 293.434 123.34V123.98C293.434 124.113 293.387 124.22 293.294 124.3C293.214 124.38 293.107 124.42 292.974 124.42H291.794C291.607 124.62 291.454 124.933 291.334 125.36C291.227 125.787 291.174 126.267 291.174 126.8V133.86C291.174 133.993 291.127 134.1 291.034 134.18C290.941 134.26 290.827 134.3 290.694 134.3H289.854C289.721 134.3 289.614 134.26 289.534 134.18C289.454 134.1 289.414 133.993 289.414 133.86V126.68C289.414 126.133 289.461 125.667 289.554 125.28C289.647 124.893 289.774 124.607 289.934 124.42H284.414C284.281 124.42 284.167 124.38 284.074 124.3C283.994 124.22 283.954 124.113 283.954 123.98V123.34C283.954 123.207 283.994 123.1 284.074 123.02C284.167 122.927 284.281 122.88 284.414 122.88H292.974ZM107.415 157.52C107.508 157.64 107.555 157.767 107.555 157.9C107.555 158.007 107.515 158.1 107.435 158.18C107.355 158.26 107.262 158.3 107.155 158.3H106.255C106.082 158.3 105.948 158.253 105.855 158.16C105.762 158.053 105.708 157.993 105.695 157.98L101.135 151.56C100.562 151.987 100.168 152.48 99.955 153.04C99.755 153.6 99.655 154.22 99.655 154.9V157.84C99.655 157.973 99.6084 158.087 99.515 158.18C99.435 158.26 99.3284 158.3 99.195 158.3H98.455C98.3217 158.3 98.2084 158.26 98.115 158.18C98.035 158.087 97.995 157.973 97.995 157.84V154.82C97.995 153.833 98.1417 152.973 98.435 152.24C98.7417 151.507 99.335 150.847 100.215 150.26L98.355 147.66C98.2617 147.513 98.215 147.387 98.215 147.28C98.215 147.173 98.255 147.08 98.335 147C98.415 146.92 98.5084 146.88 98.615 146.88H99.495C99.7084 146.88 99.895 146.993 100.055 147.22L104.255 153.08C104.735 152.8 105.082 152.507 105.295 152.2C105.522 151.893 105.662 151.593 105.715 151.3C105.768 150.993 105.795 150.6 105.795 150.12V147.34C105.795 147.207 105.835 147.1 105.915 147.02C106.008 146.927 106.122 146.88 106.255 146.88H107.035C107.168 146.88 107.275 146.927 107.355 147.02C107.448 147.1 107.495 147.207 107.495 147.34V150.2C107.495 151.12 107.342 151.9 107.035 152.54C106.728 153.18 106.102 153.78 105.155 154.34L107.415 157.52ZM110.154 158.3C110.02 158.3 109.907 158.26 109.814 158.18C109.734 158.087 109.694 157.973 109.694 157.84V157.2C109.694 157.067 109.734 156.96 109.814 156.88C109.907 156.787 110.02 156.74 110.154 156.74H115.914V151.86C115.914 149.58 114.774 148.44 112.494 148.44H110.354C110.22 148.44 110.107 148.4 110.014 148.32C109.934 148.227 109.894 148.113 109.894 147.98V147.34C109.894 147.207 109.934 147.1 110.014 147.02C110.107 146.927 110.22 146.88 110.354 146.88H112.594C114.3 146.88 115.58 147.293 116.434 148.12C117.287 148.947 117.714 150.167 117.714 151.78V156.74H118.454C118.587 156.74 118.694 156.787 118.774 156.88C118.867 156.96 118.914 157.067 118.914 157.2V157.84C118.914 157.973 118.867 158.087 118.774 158.18C118.694 158.26 118.587 158.3 118.454 158.3H110.154ZM128.913 149.3C128.913 150.34 128.7 151.227 128.273 151.96C127.86 152.68 127.24 153.233 126.413 153.62L128.493 156.62C128.653 156.82 128.733 157.02 128.733 157.22V157.84C128.733 157.973 128.686 158.087 128.593 158.18C128.513 158.26 128.406 158.3 128.273 158.3H121.073C120.94 158.3 120.826 158.26 120.733 158.18C120.653 158.087 120.613 157.973 120.613 157.84V157.2C120.613 157.053 120.653 156.94 120.733 156.86C120.826 156.78 120.94 156.74 121.073 156.74H126.513L120.253 147.66C120.146 147.513 120.093 147.387 120.093 147.28C120.093 147.173 120.133 147.08 120.213 147C120.306 146.92 120.406 146.88 120.513 146.88H121.413C121.626 146.88 121.806 146.987 121.953 147.2L125.533 152.36C126.666 151.827 127.233 150.733 127.233 149.08V147.34C127.233 147.193 127.273 147.08 127.353 147C127.446 146.92 127.56 146.88 127.693 146.88H128.473C128.606 146.88 128.713 146.927 128.793 147.02C128.873 147.1 128.913 147.207 128.913 147.34V149.3ZM139.738 158.3C139.605 158.3 139.491 158.26 139.398 158.18C139.318 158.087 139.278 157.973 139.278 157.84V151.86C139.278 149.567 138.138 148.42 135.858 148.42H132.138C132.005 148.42 131.891 148.38 131.798 148.3C131.718 148.22 131.678 148.113 131.678 147.98V147.34C131.678 147.207 131.718 147.1 131.798 147.02C131.891 146.927 132.005 146.88 132.138 146.88H135.958C139.345 146.88 141.038 148.52 141.038 151.8V157.84C141.038 157.973 140.998 158.087 140.918 158.18C140.838 158.26 140.731 158.3 140.598 158.3H139.738ZM132.138 158.3C132.005 158.3 131.891 158.26 131.798 158.18C131.718 158.087 131.678 157.973 131.678 157.84V151.12C131.678 150.987 131.718 150.88 131.798 150.8C131.891 150.707 132.005 150.66 132.138 150.66H132.978C133.111 150.66 133.218 150.707 133.298 150.8C133.391 150.88 133.438 150.987 133.438 151.12V157.84C133.438 157.973 133.391 158.087 133.298 158.18C133.218 158.26 133.111 158.3 132.978 158.3H132.138ZM151.356 146.88C152.569 146.88 153.529 147.053 154.236 147.4C154.956 147.747 155.476 148.3 155.796 149.06C156.116 149.82 156.276 150.833 156.276 152.1C156.276 153.807 155.856 155.14 155.016 156.1C154.176 157.047 153.082 157.747 151.736 158.2L150.896 158.48C150.869 158.493 150.822 158.5 150.756 158.5C150.662 158.5 150.576 158.467 150.496 158.4C150.429 158.333 150.396 158.24 150.396 158.12V157.24C150.396 157.133 150.436 157.033 150.516 156.94C150.596 156.833 150.702 156.753 150.836 156.7L151.616 156.4C152.536 156.053 153.242 155.553 153.736 154.9C154.229 154.247 154.476 153.287 154.476 152.02C154.476 151.127 154.369 150.427 154.156 149.92C153.942 149.4 153.589 149.027 153.096 148.8C152.616 148.573 151.949 148.46 151.096 148.46H150.476H150.416L148.576 148.44C148.442 148.44 148.329 148.4 148.236 148.32C148.156 148.24 148.116 148.133 148.116 148V144.56C148.116 144.427 148.156 144.32 148.236 144.24C148.329 144.147 148.442 144.1 148.576 144.1H149.376C149.509 144.1 149.616 144.147 149.696 144.24C149.776 144.32 149.816 144.427 149.816 144.56V146.88H150.956H151.356ZM169.824 146.88C169.971 146.88 170.084 146.92 170.164 147C170.244 147.08 170.284 147.193 170.284 147.34V152.9C170.284 154.02 170.051 155.007 169.584 155.86C169.131 156.7 168.484 157.347 167.644 157.8C166.818 158.24 165.864 158.447 164.784 158.42H163.304C162.451 158.42 161.678 158.22 160.984 157.82C160.291 157.42 159.744 156.86 159.344 156.14C158.944 155.407 158.744 154.567 158.744 153.62V147.34C158.744 147.207 158.784 147.1 158.864 147.02C158.958 146.927 159.071 146.88 159.204 146.88H159.984C160.118 146.88 160.224 146.927 160.304 147.02C160.398 147.1 160.444 147.207 160.444 147.34L160.504 153.02C161.718 152.927 162.564 152.6 163.044 152.04C163.524 151.48 163.764 150.747 163.764 149.84V147.34C163.764 147.207 163.804 147.1 163.884 147.02C163.964 146.927 164.071 146.88 164.204 146.88H164.984C165.118 146.88 165.224 146.927 165.304 147.02C165.398 147.1 165.444 147.207 165.444 147.34V149.92C165.444 151.2 165.038 152.253 164.224 153.08C163.411 153.907 162.218 154.36 160.644 154.44C160.858 155.213 161.251 155.813 161.824 156.24C162.411 156.653 163.111 156.86 163.924 156.86H164.564C165.831 156.873 166.818 156.507 167.524 155.76C168.231 155.013 168.584 154.02 168.584 152.78V147.34C168.584 147.207 168.624 147.1 168.704 147.02C168.798 146.927 168.911 146.88 169.044 146.88H169.824ZM173.583 158.3C173.45 158.3 173.337 158.26 173.243 158.18C173.163 158.087 173.123 157.973 173.123 157.84V147.34C173.123 147.207 173.163 147.1 173.243 147.02C173.337 146.927 173.45 146.88 173.583 146.88H174.463C174.597 146.88 174.703 146.927 174.783 147.02C174.877 147.1 174.923 147.207 174.923 147.34V157.84C174.923 157.973 174.877 158.087 174.783 158.18C174.703 158.26 174.597 158.3 174.463 158.3H173.583ZM183.369 158.3C183.235 158.3 183.122 158.26 183.029 158.18C182.949 158.087 182.909 157.973 182.909 157.84V147.34C182.909 147.207 182.949 147.1 183.029 147.02C183.122 146.927 183.235 146.88 183.369 146.88H187.149C188.855 146.88 190.122 147.287 190.949 148.1C191.789 148.913 192.209 150.133 192.209 151.76V157.84C192.209 157.973 192.162 158.087 192.069 158.18C191.989 158.26 191.882 158.3 191.749 158.3H183.369ZM190.489 156.74V151.86C190.489 149.567 189.349 148.42 187.069 148.42H184.569V156.74H190.489ZM195.533 153.66C195.4 153.66 195.287 153.62 195.193 153.54C195.113 153.447 195.073 153.333 195.073 153.2V147.34C195.073 147.207 195.113 147.1 195.193 147.02C195.287 146.927 195.4 146.88 195.533 146.88H196.413C196.547 146.88 196.653 146.927 196.733 147.02C196.827 147.1 196.873 147.207 196.873 147.34V153.2C196.873 153.333 196.827 153.447 196.733 153.54C196.653 153.62 196.547 153.66 196.413 153.66H195.533ZM208.042 146.88C208.176 146.88 208.282 146.927 208.362 147.02C208.456 147.1 208.502 147.207 208.502 147.34V147.98C208.502 148.113 208.456 148.22 208.362 148.3C208.282 148.38 208.176 148.42 208.042 148.42H206.862C206.676 148.62 206.522 148.933 206.402 149.36C206.296 149.787 206.242 150.267 206.242 150.8V157.86C206.242 157.993 206.196 158.1 206.102 158.18C206.009 158.26 205.896 158.3 205.762 158.3H204.922C204.789 158.3 204.682 158.26 204.602 158.18C204.522 158.1 204.482 157.993 204.482 157.86V150.68C204.482 150.133 204.529 149.667 204.622 149.28C204.716 148.893 204.842 148.607 205.002 148.42H199.482C199.349 148.42 199.236 148.38 199.142 148.3C199.062 148.22 199.022 148.113 199.022 147.98V147.34C199.022 147.207 199.062 147.1 199.142 147.02C199.236 146.927 199.349 146.88 199.482 146.88H208.042ZM215.235 158.48C215.208 158.493 215.162 158.5 215.095 158.5C215.002 158.5 214.915 158.467 214.835 158.4C214.768 158.333 214.735 158.24 214.735 158.12V157.24C214.735 157.133 214.775 157.033 214.855 156.94C214.935 156.833 215.042 156.753 215.175 156.7L215.955 156.4C216.875 156.053 217.582 155.553 218.075 154.9C218.568 154.247 218.815 153.287 218.815 152.02C218.815 151.127 218.708 150.427 218.495 149.92C218.282 149.4 217.928 149.027 217.435 148.8C216.955 148.573 216.288 148.46 215.435 148.46H211.435C211.302 148.46 211.188 148.42 211.095 148.34C211.015 148.247 210.975 148.133 210.975 148V147.32C210.975 147.187 211.015 147.08 211.095 147C211.188 146.92 211.302 146.88 211.435 146.88H215.695C216.908 146.88 217.868 147.053 218.575 147.4C219.295 147.747 219.815 148.3 220.135 149.06C220.455 149.82 220.615 150.833 220.615 152.1C220.615 153.807 220.195 155.14 219.355 156.1C218.515 157.047 217.422 157.747 216.075 158.2L215.235 158.48ZM211.435 162.12C211.302 162.12 211.188 162.073 211.095 161.98C211.015 161.9 210.975 161.793 210.975 161.66V151.12C210.975 150.987 211.015 150.88 211.095 150.8C211.188 150.707 211.302 150.66 211.435 150.66H212.255C212.388 150.66 212.495 150.707 212.575 150.8C212.668 150.88 212.715 150.987 212.715 151.12V161.66C212.715 161.807 212.675 161.92 212.595 162C212.515 162.08 212.402 162.12 212.255 162.12H211.435ZM225.036 150.06C225.049 150.593 225.116 151.013 225.236 151.32C225.356 151.627 225.556 151.82 225.836 151.9L226.596 152.1C226.702 152.127 226.782 152.2 226.836 152.32C226.902 152.427 226.936 152.56 226.936 152.72V153.18C226.936 153.327 226.862 153.433 226.716 153.5C226.569 153.567 226.409 153.587 226.236 153.56L225.476 153.4C224.129 153.107 223.456 151.973 223.456 150V147.34C223.469 147.193 223.516 147.08 223.596 147C223.676 146.92 223.782 146.88 223.916 146.88H227.616C229.082 146.88 230.196 147.313 230.956 148.18C231.716 149.033 232.116 150.247 232.156 151.82C232.169 151.953 232.176 152.207 232.176 152.58C232.176 152.967 232.169 153.227 232.156 153.36C232.116 154.933 231.716 156.153 230.956 157.02C230.196 157.873 229.082 158.3 227.616 158.3H224.176C224.042 158.3 223.929 158.26 223.836 158.18C223.756 158.087 223.716 157.973 223.716 157.84V157.18C223.716 157.033 223.756 156.92 223.836 156.84C223.929 156.76 224.042 156.72 224.176 156.72H227.496C228.429 156.72 229.149 156.42 229.656 155.82C230.162 155.22 230.436 154.373 230.476 153.28C230.502 153.013 230.516 152.78 230.516 152.58C230.516 152.393 230.502 152.167 230.476 151.9C230.449 150.793 230.182 149.947 229.676 149.36C229.169 148.76 228.442 148.46 227.496 148.46H225.036V150.06ZM239.885 146.88C240.711 146.88 241.445 147.08 242.085 147.48C242.738 147.867 243.245 148.427 243.605 149.16C243.978 149.893 244.165 150.76 244.165 151.76V157.84C244.165 157.973 244.118 158.087 244.025 158.18C243.945 158.26 243.838 158.3 243.705 158.3H238.545C238.411 158.3 238.298 158.26 238.205 158.18C238.125 158.087 238.085 157.973 238.085 157.84V157.2C238.085 157.067 238.125 156.96 238.205 156.88C238.298 156.787 238.411 156.74 238.545 156.74H242.405V151.88C242.405 150.867 242.145 150.047 241.625 149.42C241.118 148.78 240.471 148.46 239.685 148.46H237.585L236.025 157.82C236.011 157.953 235.958 158.067 235.865 158.16C235.771 158.253 235.658 158.3 235.525 158.3H234.685C234.551 158.3 234.445 158.253 234.365 158.16C234.298 158.067 234.271 157.953 234.285 157.82L235.885 148.46H234.865C234.731 148.46 234.618 148.42 234.525 148.34C234.445 148.247 234.405 148.133 234.405 148V147.34C234.405 147.207 234.445 147.1 234.525 147.02C234.618 146.927 234.731 146.88 234.865 146.88H239.885ZM254.481 146.88C255.694 146.88 256.654 147.053 257.361 147.4C258.081 147.747 258.601 148.3 258.921 149.06C259.241 149.82 259.401 150.833 259.401 152.1C259.401 153.807 258.981 155.14 258.141 156.1C257.301 157.047 256.207 157.747 254.861 158.2L254.021 158.48C253.994 158.493 253.947 158.5 253.881 158.5C253.787 158.5 253.701 158.467 253.621 158.4C253.554 158.333 253.521 158.24 253.521 158.12V157.24C253.521 157.133 253.561 157.033 253.641 156.94C253.721 156.833 253.827 156.753 253.961 156.7L254.741 156.4C255.661 156.053 256.367 155.553 256.861 154.9C257.354 154.247 257.601 153.287 257.601 152.02C257.601 151.127 257.494 150.427 257.281 149.92C257.067 149.4 256.714 149.027 256.221 148.8C255.741 148.573 255.074 148.46 254.221 148.46H253.601H253.541L251.701 148.44C251.567 148.44 251.454 148.4 251.361 148.32C251.281 148.24 251.241 148.133 251.241 148V144.56C251.241 144.427 251.281 144.32 251.361 144.24C251.454 144.147 251.567 144.1 251.701 144.1H252.501C252.634 144.1 252.741 144.147 252.821 144.24C252.901 144.32 252.941 144.427 252.941 144.56V146.88H254.081H254.481ZM272.949 146.88C273.096 146.88 273.209 146.92 273.289 147C273.369 147.08 273.409 147.193 273.409 147.34V152.9C273.409 154.02 273.176 155.007 272.709 155.86C272.256 156.7 271.609 157.347 270.769 157.8C269.943 158.24 268.989 158.447 267.909 158.42H266.429C265.576 158.42 264.803 158.22 264.109 157.82C263.416 157.42 262.869 156.86 262.469 156.14C262.069 155.407 261.869 154.567 261.869 153.62V147.34C261.869 147.207 261.909 147.1 261.989 147.02C262.083 146.927 262.196 146.88 262.329 146.88H263.109C263.243 146.88 263.349 146.927 263.429 147.02C263.523 147.1 263.569 147.207 263.569 147.34L263.629 153.02C264.843 152.927 265.689 152.6 266.169 152.04C266.649 151.48 266.889 150.747 266.889 149.84V147.34C266.889 147.207 266.929 147.1 267.009 147.02C267.089 146.927 267.196 146.88 267.329 146.88H268.109C268.243 146.88 268.349 146.927 268.429 147.02C268.523 147.1 268.569 147.207 268.569 147.34V149.92C268.569 151.2 268.163 152.253 267.349 153.08C266.536 153.907 265.343 154.36 263.769 154.44C263.983 155.213 264.376 155.813 264.949 156.24C265.536 156.653 266.236 156.86 267.049 156.86H267.689C268.956 156.873 269.943 156.507 270.649 155.76C271.356 155.013 271.709 154.02 271.709 152.78V147.34C271.709 147.207 271.749 147.1 271.829 147.02C271.923 146.927 272.036 146.88 272.169 146.88H272.949ZM151.354 179.88C151.501 179.88 151.627 179.933 151.734 180.04C151.841 180.147 151.894 180.273 151.894 180.42V181.76C151.894 181.907 151.841 182.033 151.734 182.14C151.627 182.247 151.501 182.3 151.354 182.3H150.014C149.867 182.3 149.741 182.247 149.634 182.14C149.527 182.033 149.474 181.907 149.474 181.76V180.42C149.474 180.273 149.527 180.147 149.634 180.04C149.741 179.933 149.867 179.88 150.014 179.88H151.354ZM159.795 170.88C163.182 170.88 164.875 172.507 164.875 175.76V181.84C164.875 181.973 164.829 182.087 164.735 182.18C164.655 182.26 164.549 182.3 164.415 182.3H163.575C163.442 182.3 163.329 182.26 163.235 182.18C163.155 182.087 163.115 181.973 163.115 181.84V175.86C163.115 173.567 161.975 172.42 159.695 172.42H158.235C158.102 173.193 158.002 173.867 157.935 174.44C157.882 175.013 157.855 175.667 157.855 176.4L157.895 181.84C157.895 181.973 157.855 182.087 157.775 182.18C157.695 182.26 157.589 182.3 157.455 182.3L154.675 182.26C154.542 182.26 154.429 182.22 154.335 182.14C154.255 182.047 154.215 181.933 154.215 181.8V181.2C154.215 181.067 154.255 180.96 154.335 180.88C154.429 180.787 154.542 180.74 154.675 180.74L156.195 180.76V176.48C156.195 175.627 156.215 174.913 156.255 174.34C156.309 173.767 156.415 173.127 156.575 172.42H155.515C155.382 172.42 155.269 172.38 155.175 172.3C155.095 172.22 155.055 172.113 155.055 171.98V171.34C155.055 171.207 155.095 171.1 155.175 171.02C155.269 170.927 155.382 170.88 155.515 170.88H159.795ZM168.339 182.3C168.206 182.3 168.093 182.26 167.999 182.18C167.919 182.087 167.879 181.973 167.879 181.84V181.18C167.879 181.047 167.919 180.94 167.999 180.86C168.093 180.767 168.206 180.72 168.339 180.72H171.199C172.359 180.72 173.213 180.427 173.759 179.84C174.306 179.253 174.606 178.4 174.659 177.28C174.673 177.093 174.679 176.86 174.679 176.58C174.679 176.313 174.673 176.087 174.659 175.9C174.619 174.767 174.319 173.913 173.759 173.34C173.213 172.753 172.359 172.46 171.199 172.46H168.339C168.206 172.46 168.093 172.42 167.999 172.34C167.919 172.247 167.879 172.133 167.879 172V171.34C167.879 171.207 167.919 171.1 167.999 171.02C168.093 170.927 168.206 170.88 168.339 170.88H171.299C173.006 170.88 174.266 171.307 175.079 172.16C175.893 173 176.326 174.22 176.379 175.82C176.393 176.007 176.399 176.26 176.399 176.58C176.399 176.9 176.393 177.16 176.379 177.36C176.326 178.96 175.893 180.187 175.079 181.04C174.266 181.88 173.006 182.3 171.299 182.3H168.339ZM185.531 182.3C185.398 182.3 185.285 182.26 185.191 182.18C185.111 182.087 185.071 181.973 185.071 181.84V175.86C185.071 173.567 183.925 172.42 181.631 172.42H179.051C178.918 172.42 178.805 172.38 178.711 172.3C178.631 172.22 178.591 172.113 178.591 171.98V171.34C178.591 171.207 178.631 171.1 178.711 171.02C178.805 170.927 178.918 170.88 179.051 170.88H181.751C185.138 170.88 186.831 172.507 186.831 175.76V181.84C186.831 181.973 186.785 182.087 186.691 182.18C186.611 182.26 186.505 182.3 186.371 182.3H185.531ZM197.892 170.88C198.039 170.88 198.152 170.92 198.232 171C198.312 171.08 198.352 171.193 198.352 171.34V176.86C198.352 178.033 197.966 179.093 197.192 180.04C196.432 180.973 195.399 181.633 194.092 182.02L189.732 183.4C189.692 183.413 189.639 183.42 189.572 183.42C189.466 183.42 189.372 183.387 189.292 183.32C189.212 183.253 189.172 183.167 189.172 183.06V182.44C189.172 182.133 189.279 181.947 189.492 181.88L192.112 181.02L189.512 171.68C189.446 171.453 189.412 171.32 189.412 171.28C189.412 171.173 189.452 171.08 189.532 171C189.612 170.92 189.706 170.88 189.812 170.88H190.732C190.852 170.88 190.952 170.913 191.032 170.98C191.112 171.033 191.166 171.1 191.192 171.18L193.752 180.46C194.806 180.087 195.539 179.56 195.952 178.88C196.379 178.2 196.592 177.347 196.592 176.32V171.34C196.592 171.207 196.632 171.1 196.712 171.02C196.806 170.927 196.919 170.88 197.052 170.88H197.892ZM206.496 170.88C207.323 170.88 208.056 171.08 208.696 171.48C209.349 171.867 209.856 172.427 210.216 173.16C210.589 173.893 210.776 174.76 210.776 175.76V181.84C210.776 181.973 210.729 182.087 210.636 182.18C210.556 182.26 210.449 182.3 210.316 182.3H205.156C205.023 182.3 204.909 182.26 204.816 182.18C204.736 182.087 204.696 181.973 204.696 181.84V181.2C204.696 181.067 204.736 180.96 204.816 180.88C204.909 180.787 205.023 180.74 205.156 180.74H209.016V175.88C209.016 174.867 208.756 174.047 208.236 173.42C207.729 172.78 207.083 172.46 206.296 172.46H204.196L202.636 181.82C202.623 181.953 202.569 182.067 202.476 182.16C202.383 182.253 202.269 182.3 202.136 182.3H201.296C201.163 182.3 201.056 182.253 200.976 182.16C200.909 182.067 200.883 181.953 200.896 181.82L202.496 172.46H201.476C201.343 172.46 201.229 172.42 201.136 172.34C201.056 172.247 201.016 172.133 201.016 172V171.34C201.016 171.207 201.056 171.1 201.136 171.02C201.229 170.927 201.343 170.88 201.476 170.88H206.496ZM214.238 182.3C214.104 182.3 213.991 182.26 213.898 182.18C213.818 182.087 213.778 181.973 213.778 181.84V181.18C213.778 181.047 213.818 180.94 213.898 180.86C213.991 180.767 214.104 180.72 214.238 180.72H217.098C218.258 180.72 219.111 180.427 219.658 179.84C220.204 179.253 220.504 178.4 220.558 177.28C220.571 177.093 220.578 176.86 220.578 176.58C220.578 176.313 220.571 176.087 220.558 175.9C220.518 174.767 220.218 173.913 219.658 173.34C219.111 172.753 218.258 172.46 217.098 172.46H214.238C214.104 172.46 213.991 172.42 213.898 172.34C213.818 172.247 213.778 172.133 213.778 172V171.34C213.778 171.207 213.818 171.1 213.898 171.02C213.991 170.927 214.104 170.88 214.238 170.88H217.198C218.904 170.88 220.164 171.307 220.978 172.16C221.791 173 222.224 174.22 222.278 175.82C222.291 176.007 222.298 176.26 222.298 176.58C222.298 176.9 222.291 177.16 222.278 177.36C222.224 178.96 221.791 180.187 220.978 181.04C220.164 181.88 218.904 182.3 217.198 182.3H214.238Z" fill="white"/>
<defs>
<filter id="filter0_f_278_237" x="-0.00019455" y="-1.14441e-05" width="367.6" height="266.6" filterUnits="userSpaceOnUse" color-interpolation-filters="sRGB">
<feFlood flood-opacity="0" result="BackgroundImageFix"/>
<feBlend mode="normal" in="SourceGraphic" in2="BackgroundImageFix" result="shape"/>
<feGaussianBlur stdDeviation="15.15" result="effect1_foregroundBlur_278_237"/>
</filter>
</defs>
</svg>
